<svg width="22" height="25" viewBox="0 0 22 25" fill="none" xmlns="http://www.w3.org/2000/svg">
<path d="M14.75 18.5V19.75C14.75 20.7446 14.3549 21.6984 13.6517 22.4017C12.9484 23.1049 11.9946 23.5 11 23.5C10.0054 23.5 9.05161 23.1049 8.34835 22.4017C7.64509 21.6984 7.25 20.7446 7.25 19.75V18.5M14.75 18.5H7.25M14.75 18.5H19.2375C19.7162 18.5 19.9563 18.5 20.15 18.435C20.3322 18.3733 20.4978 18.2704 20.6337 18.1342C20.7697 17.998 20.8723 17.8323 20.9338 17.65C21 17.455 21 17.215 21 16.7325C21 16.5213 21 16.4163 20.9825 16.315C20.9516 16.1257 20.8777 15.9461 20.7663 15.79C20.7063 15.7062 20.6312 15.6313 20.4825 15.4825L19.995 14.995C19.9172 14.9172 19.8556 14.8248 19.8136 14.7231C19.7715 14.6215 19.7499 14.5125 19.75 14.4025V9.75C19.75 8.60093 19.5237 7.46312 19.0839 6.40152C18.6442 5.33992 17.9997 4.37533 17.1872 3.56282C16.3747 2.7503 15.4101 2.10578 14.3485 1.66605C13.2869 1.22633 12.1491 1 11 1C9.85093 1 8.71312 1.22633 7.65152 1.66605C6.58992 2.10578 5.62533 2.7503 4.81282 3.56282C4.0003 4.37533 3.35578 5.33992 2.91605 6.40152C2.47633 7.46312 2.25 8.60093 2.25 9.75V14.4025C2.25008 14.5125 2.22848 14.6215 2.18644 14.7231C2.14441 14.8248 2.08275 14.9172 2.005 14.995L1.5175 15.4825C1.3675 15.6325 1.29375 15.7062 1.235 15.7887C1.12253 15.945 1.04767 16.1251 1.01625 16.315C1 16.415 1 16.5213 1 16.7325C1 17.215 1 17.455 1.065 17.65C1.12667 17.8326 1.22972 17.9985 1.36612 18.1347C1.50251 18.2708 1.66855 18.3736 1.85125 18.435C2.045 18.5 2.28375 18.5 2.7625 18.5H7.25" stroke="black" stroke-width="1.5" stroke-linecap="round" stroke-linejoin="round"/>
</svg>
