<svg width="30" height="30" viewBox="0 0 30 30" fill="none" xmlns="http://www.w3.org/2000/svg">
<path d="M23.7499 25.3125C23.7499 25.83 23.3299 26.25 22.8124 26.25H9.49738C8.04363 26.25 7.49989 25.7937 7.49989 24.25V22.4437M23.7499 25.3125C23.7499 24.5666 23.4536 23.8512 22.9261 23.3238C22.3987 22.7963 21.6833 22.5 20.9374 22.5H8.24738C7.96488 22.5 7.71572 22.4812 7.49989 22.4437M23.7499 25.3125V7.75C23.7499 6.33 23.8399 4.76375 22.3849 4.0225C21.8499 3.75 21.1499 3.75 19.7499 3.75H8.24989C6.70489 3.75 6.24989 4.29625 6.24989 5.75V20.5C6.24989 21.7437 6.60239 22.2812 7.49989 22.4437" stroke="black" stroke-width="1.5" stroke-linecap="round" stroke-linejoin="round"/>
</svg>
