<svg width="30" height="30" viewBox="0 0 30 30" fill="none" xmlns="http://www.w3.org/2000/svg">
<path d="M18.75 6.25012C18.75 5.9186 18.8817 5.60066 19.1161 5.36624C19.3505 5.13182 19.6685 5.00012 20 5.00012H22.5C22.8315 5.00012 23.1495 5.13182 23.3839 5.36624C23.6183 5.60066 23.75 5.9186 23.75 6.25012V23.7501C23.75 24.0816 23.6183 24.3996 23.3839 24.634C23.1495 24.8684 22.8315 25.0001 22.5 25.0001H20C19.6685 25.0001 19.3505 24.8684 19.1161 24.634C18.8817 24.3996 18.75 24.0816 18.75 23.7501M18.75 6.25012V23.7501M18.75 6.25012C18.75 5.9186 18.6183 5.60066 18.3839 5.36624C18.1495 5.13182 17.8315 5.00012 17.5 5.00012H15C14.6685 5.00012 14.3505 5.13182 14.1161 5.36624C13.8817 5.60066 13.75 5.9186 13.75 6.25012V23.7501C13.75 24.0816 13.8817 24.3996 14.1161 24.634C14.3505 24.8684 14.6685 25.0001 15 25.0001H17.5C17.8315 25.0001 18.1495 24.8684 18.3839 24.634C18.6183 24.3996 18.75 24.0816 18.75 23.7501M23.75 10.0001H18.75M18.75 20.0001H13.75" stroke="black" stroke-width="1.5" stroke-linecap="round" stroke-linejoin="round"/>
<path d="M12.5004 11.25L7.50039 9.99999M10.0004 20L5.09664 18.775M12.7466 5.69999L10.0166 5.03749C9.31414 4.86874 8.60039 5.27499 8.41414 5.95249L3.79539 22.725C3.71391 23.0321 3.75 23.3585 3.89658 23.6403C4.04317 23.9222 4.28971 24.1391 4.58789 24.2487L4.75414 24.3L7.48414 24.9625C8.18664 25.1312 8.90039 24.725 9.08664 24.0475L13.7054 7.27499C13.7869 6.96793 13.7508 6.64151 13.6042 6.35966C13.4576 6.07781 13.2111 5.86084 12.9129 5.75124L12.7466 5.69999Z" stroke="black" stroke-width="1.5" stroke-linecap="round" stroke-linejoin="round"/>
</svg>
