<svg width="24" height="24" viewBox="0 0 24 24" fill="none" xmlns="http://www.w3.org/2000/svg">
<path d="M21.3748 9.5C21.3748 9.33424 21.309 9.17527 21.1918 9.05806C21.0745 8.94085 20.9156 8.875 20.7498 8.875C20.5841 8.875 20.4251 8.94085 20.3079 9.05806C20.1907 9.17527 20.1248 9.33424 20.1248 9.5H21.3748ZM3.87481 9.5C3.87481 9.33424 3.80896 9.17527 3.69175 9.05806C3.57454 8.94085 3.41557 8.875 3.24981 8.875C3.08405 8.875 2.92508 8.94085 2.80787 9.05806C2.69066 9.17527 2.62481 9.33424 2.62481 9.5H3.87481ZM22.8073 12.4425C22.9247 12.5599 23.0838 12.6258 23.2498 12.6258C23.4158 12.6258 23.575 12.5599 23.6923 12.4425C23.8097 12.3251 23.8756 12.166 23.8756 12C23.8756 11.834 23.8097 11.6749 23.6923 11.5575L22.8073 12.4425ZM11.9998 0.750003L12.4423 0.307503C12.3843 0.249299 12.3153 0.203121 12.2394 0.171613C12.1634 0.140105 12.082 0.123886 11.9998 0.123886C11.9176 0.123886 11.8362 0.140105 11.7603 0.171613C11.6843 0.203121 11.6154 0.249299 11.5573 0.307503L11.9998 0.750003ZM0.307313 11.5575C0.189954 11.6749 0.124023 11.834 0.124023 12C0.124023 12.166 0.189954 12.3251 0.307313 12.4425C0.424671 12.5599 0.583843 12.6258 0.749813 12.6258C0.915783 12.6258 1.07495 12.5599 1.19231 12.4425L0.307313 11.5575ZM5.74981 23.875H18.2498V22.625H5.74981V23.875ZM21.3748 20.75V9.5H20.1248V20.75H21.3748ZM3.87481 20.75V9.5H2.62481V20.75H3.87481ZM23.6923 11.5575L12.4423 0.307503L11.5573 1.1925L22.8073 12.4425L23.6923 11.5575ZM11.5573 0.307503L0.307313 11.5575L1.19231 12.4425L12.4423 1.1925L11.5573 0.307503ZM18.2498 23.875C19.0786 23.875 19.8735 23.5458 20.4595 22.9597C21.0456 22.3737 21.3748 21.5788 21.3748 20.75H20.1248C20.1248 21.2473 19.9273 21.7242 19.5756 22.0758C19.224 22.4275 18.7471 22.625 18.2498 22.625V23.875ZM5.74981 22.625C5.25253 22.625 4.77562 22.4275 4.42399 22.0758C4.07236 21.7242 3.87481 21.2473 3.87481 20.75H2.62481C2.62481 21.5788 2.95405 22.3737 3.5401 22.9597C4.12616 23.5458 4.92101 23.875 5.74981 23.875V22.625Z" fill="black"/>
</svg>
