<svg width="30" height="30" viewBox="0 0 30 30" fill="none" xmlns="http://www.w3.org/2000/svg">
<path d="M8.75 10L3.75 15M3.75 15L8.75 20M3.75 15L21.25 15M13.75 10L13.75 8.75C13.75 7.75544 14.1451 6.80161 14.8483 6.09835C15.5516 5.39509 16.5054 5 17.5 5L22.5 5C23.4946 5 24.4484 5.39509 25.1516 6.09835C25.8549 6.80161 26.25 7.75544 26.25 8.75L26.25 21.25C26.25 22.2446 25.8549 23.1984 25.1517 23.9017C24.4484 24.6049 23.4946 25 22.5 25L17.5 25C16.5054 25 15.5516 24.6049 14.8483 23.9017C14.1451 23.1984 13.75 22.2446 13.75 21.25L13.75 20" stroke="black" stroke-width="1.5" stroke-linecap="round" stroke-linejoin="round"/>
</svg>
