<svg width="30" height="30" viewBox="0 0 30 30" fill="none" xmlns="http://www.w3.org/2000/svg">
<path d="M6 8.99986V23.8565C5.99986 24.0711 6.06253 24.2814 6.18082 24.4634C6.29911 24.6453 6.46825 24.7915 6.66887 24.8852C6.86949 24.979 7.09348 25.0165 7.3152 24.9934C7.53692 24.9703 7.7474 24.8876 7.92255 24.7547L14.2661 19.9492C14.4754 19.7909 14.7338 19.7048 15 19.7048C15.2662 19.7048 15.5246 19.7909 15.7339 19.9492L22.0774 24.7547C22.2526 24.8876 22.4631 24.9703 22.6848 24.9934C22.9065 25.0165 23.1305 24.979 23.3311 24.8852C23.5317 24.7915 23.7009 24.6453 23.8192 24.4634C23.9375 24.2814 24.0001 24.0711 24 23.8565V8.99986C24 7.93903 23.5621 6.92165 22.7827 6.17153C22.0032 5.42141 20.9461 5 19.8438 5H10.1562C9.05392 5 7.99677 5.42141 7.21733 6.17153C6.43789 6.92165 6 7.93903 6 8.99986Z" stroke="black" stroke-width="1.5" stroke-linejoin="round"/>
</svg>
