<svg width="30" height="30" viewBox="0 0 30 30" fill="none" xmlns="http://www.w3.org/2000/svg">
<path d="M24.7038 16.6535L26.3724 18.1396C26.6805 18.3968 26.8864 18.7558 26.9528 19.1517C27.0191 19.5475 26.9416 19.9541 26.7342 20.2977L24.7222 23.7351C24.5661 23.9983 24.3432 24.2154 24.0762 24.3647C23.806 24.5142 23.5026 24.5935 23.1939 24.5954C23.0023 24.5966 22.8118 24.5679 22.6291 24.5105L20.4934 23.8053C20.1193 24.0453 19.7305 24.26 19.3269 24.4496L18.8783 26.615C18.7953 27.0134 18.5736 27.3693 18.2526 27.6193C17.9276 27.8738 17.5246 28.0082 17.1119 27.9996H12.9459C12.5331 28.0082 12.1302 27.8738 11.8051 27.6193C11.4848 27.369 11.2638 27.0131 11.1812 26.615L10.7309 24.4496C10.3325 24.2575 9.94606 24.0417 9.57353 23.8034L7.43053 24.5105C7.2478 24.5679 7.05725 24.5966 6.86571 24.5954C6.55756 24.5932 6.25487 24.5139 5.98525 24.3647C5.71841 24.216 5.49556 23.9994 5.33921 23.737L3.25527 20.2977C3.03863 19.951 2.95584 19.5371 3.02245 19.1337C3.08905 18.7303 3.30046 18.3651 3.61705 18.1064L5.28383 16V15.3465L3.61521 13.8604C3.30707 13.6032 3.10119 13.2442 3.03482 12.8483C2.96846 12.4525 3.04601 12.0459 3.25343 11.7023L5.33736 8.26486C5.49346 8.00173 5.71633 7.78455 5.9834 7.63534C6.25303 7.48612 6.55572 7.40679 6.86386 7.40458C7.05367 7.39261 7.2442 7.41004 7.42868 7.45627L9.52923 8.19471C9.90455 7.95472 10.2934 7.73996 10.6958 7.55042L11.1462 5.38495C11.2287 4.98688 11.4498 4.631 11.7701 4.38068C12.0951 4.12619 12.4981 3.99184 12.9108 4.00038H17.0417C17.4544 3.99184 17.8574 4.12619 18.1825 4.38068C18.5055 4.63359 18.727 4.98989 18.8063 5.38495L19.2567 7.55042C19.6567 7.74119 20.0424 7.95657 20.4141 8.19656L22.5589 7.49135C22.797 7.4139 23.0485 7.38671 23.2976 7.41149C23.5467 7.43628 23.7879 7.5125 24.006 7.63534C24.2737 7.78672 24.4952 8.00456 24.6521 8.26302L26.7342 11.7023C26.9537 12.0461 27.0407 12.458 26.9789 12.8612C26.9171 13.2645 26.7107 13.6314 26.3982 13.8936L24.7038 15.3373V16.6535Z" stroke="black" stroke-width="1.5"/>
<path d="M19 16C19 17.0609 18.5786 18.0783 17.8284 18.8284C17.0783 19.5786 16.0609 20 15 20C13.9391 20 12.9217 19.5786 12.1716 18.8284C11.4214 18.0783 11 17.0609 11 16C11 14.9391 11.4214 13.9217 12.1716 13.1716C12.9217 12.4214 13.9391 12 15 12C16.0609 12 17.0783 12.4214 17.8284 13.1716C18.5786 13.9217 19 14.9391 19 16Z" stroke="black" stroke-width="1.5"/>
</svg>
