<svg width="30" height="30" viewBox="0 0 30 30" fill="none" xmlns="http://www.w3.org/2000/svg">
<path d="M9.625 13.375L17.875 9.125M9.625 16.625L17.875 20.875M2.5 15C2.5 15.9946 2.89509 16.9484 3.59835 17.6517C4.30161 18.3549 5.25544 18.75 6.25 18.75C7.24456 18.75 8.19839 18.3549 8.90165 17.6517C9.60491 16.9484 10 15.9946 10 15C10 14.0054 9.60491 13.0516 8.90165 12.3483C8.19839 11.6451 7.24456 11.25 6.25 11.25C5.25544 11.25 4.30161 11.6451 3.59835 12.3483C2.89509 13.0516 2.5 14.0054 2.5 15ZM17.5 7.5C17.5 8.49456 17.8951 9.44839 18.5983 10.1517C19.3016 10.8549 20.2554 11.25 21.25 11.25C22.2446 11.25 23.1984 10.8549 23.9017 10.1517C24.6049 9.44839 25 8.49456 25 7.5C25 6.50544 24.6049 5.55161 23.9017 4.84835C23.1984 4.14509 22.2446 3.75 21.25 3.75C20.2554 3.75 19.3016 4.14509 18.5983 4.84835C17.8951 5.55161 17.5 6.50544 17.5 7.5ZM17.5 22.5C17.5 23.4946 17.8951 24.4484 18.5983 25.1517C19.3016 25.8549 20.2554 26.25 21.25 26.25C22.2446 26.25 23.1984 25.8549 23.9017 25.1517C24.6049 24.4484 25 23.4946 25 22.5C25 21.5054 24.6049 20.5516 23.9017 19.8483C23.1984 19.1451 22.2446 18.75 21.25 18.75C20.2554 18.75 19.3016 19.1451 18.5983 19.8483C17.8951 20.5516 17.5 21.5054 17.5 22.5Z" stroke="black" stroke-width="1.5" stroke-linecap="round" stroke-linejoin="round"/>
</svg>
