<svg width="361" height="343" viewBox="0 0 361 343" fill="none" xmlns="http://www.w3.org/2000/svg">
<g clip-path="url(#clip0_124_2139)">
<path d="M351.728 11.0247H295.7V69.3484H351.728V11.0247Z" fill="#DCDACE"/>
<path d="M347.94 11.0247H291.912V69.3484H347.94V11.0247Z" fill="#FAFAFA"/>
<path d="M347.956 69.3647H291.896V11.0086H347.956V69.3647ZM291.928 69.3323H347.924V11.041H291.928V69.3323Z" fill="#DCDACE"/>
<path d="M340.404 18.8661H299.439V61.5072H340.404V18.8661Z" fill="#FDFCF7"/>
<path d="M299.44 61.7907C299.472 61.8312 299.083 62.2767 298.426 62.9653C297.768 63.6538 296.852 64.5854 295.822 65.598C294.791 66.6105 293.842 67.5178 293.145 68.1577C292.447 68.7977 291.993 69.1784 291.96 69.146C291.928 69.1136 292.309 68.668 292.966 67.9795C293.623 67.291 294.54 66.3513 295.578 65.3387C296.608 64.3262 297.558 63.4189 298.263 62.779C298.961 62.1309 299.407 61.7583 299.44 61.7907Z" fill="#DCDACE"/>
<path d="M340.404 61.6854C340.445 61.653 340.891 62.0418 341.58 62.698C342.27 63.3541 343.203 64.2695 344.217 65.2982C345.231 66.327 346.139 67.2748 346.78 67.9714C347.421 68.6681 347.802 69.1217 347.77 69.1541C347.737 69.1865 347.291 68.8058 346.602 68.1496C345.912 67.4935 344.971 66.5781 343.957 65.5413C342.943 64.5125 342.035 63.5647 341.394 62.86C340.745 62.1714 340.372 61.7178 340.404 61.6854Z" fill="#DCDACE"/>
<path d="M340.29 18.9795C340.258 18.939 340.647 18.4935 341.304 17.8049C341.961 17.1164 342.878 16.1848 343.908 15.1723C344.939 14.1597 345.888 13.2524 346.585 12.6125C347.283 11.9726 347.737 11.5918 347.77 11.6242C347.802 11.6566 347.421 12.1022 346.764 12.7907C346.107 13.4793 345.19 14.4189 344.152 15.4315C343.121 16.444 342.172 17.3513 341.467 17.9912C340.777 18.6393 340.323 19.02 340.29 18.9795Z" fill="#DCDACE"/>
<path d="M299.326 19.0848C299.285 19.1172 298.839 18.7284 298.15 18.0722C297.46 17.4161 296.527 16.5007 295.513 15.472C294.499 14.4432 293.591 13.4955 292.95 12.7988C292.309 12.1022 291.928 11.6485 291.96 11.6161C291.993 11.5837 292.439 11.9645 293.128 12.6206C293.818 13.2767 294.759 14.1921 295.773 15.229C296.795 16.2577 297.695 17.2055 298.336 17.9102C298.993 18.6069 299.366 19.0524 299.326 19.0848Z" fill="#DCDACE"/>
<path d="M340.291 61.5072C340.291 61.5072 340.283 61.4343 340.283 61.2966C340.283 61.1508 340.275 60.9564 340.275 60.7052C340.266 60.1706 340.266 59.4011 340.258 58.4047C340.25 56.3877 340.234 53.4472 340.218 49.7128C340.202 42.2442 340.169 31.6082 340.137 18.8661L340.291 19.02C328.366 19.0281 314.357 19.0362 299.44 19.0443H299.432L299.61 18.8661C299.602 34.5163 299.594 49.162 299.586 61.5072L299.432 61.3533C311.672 61.3857 321.869 61.41 329.015 61.4343C332.585 61.4505 335.391 61.4667 337.322 61.4748C338.279 61.4829 339.009 61.491 339.52 61.491C339.763 61.491 339.95 61.4991 340.088 61.4991C340.226 61.5072 340.291 61.5072 340.291 61.5072C340.291 61.5072 340.234 61.5153 340.112 61.5153C339.974 61.5153 339.796 61.5234 339.561 61.5234C339.058 61.5315 338.336 61.5315 337.395 61.5396C335.472 61.5477 332.674 61.5639 329.121 61.5801C321.95 61.5963 311.721 61.6287 299.44 61.6611H299.286V61.5072C299.277 49.162 299.269 34.5163 299.261 18.8661V18.6879H299.44H299.448C314.365 18.696 328.375 18.7041 340.299 18.7122H340.461V18.8661C340.429 31.6487 340.396 42.3252 340.38 49.8182C340.364 53.5363 340.348 56.4606 340.339 58.4695C340.331 59.4578 340.323 60.2111 340.323 60.7376C340.323 60.9807 340.315 61.1751 340.315 61.3128C340.299 61.4505 340.299 61.5153 340.291 61.5072Z" fill="#DCDACE"/>
<path d="M326.76 33.366H313.092V47.0154H326.76V33.366Z" fill="#EBE9DD"/>
<path d="M351.728 91.7707H295.7V150.094H351.728V91.7707Z" fill="#DCDACE"/>
<path d="M347.94 91.7707H291.912V150.094H347.94V91.7707Z" fill="#FAFAFA"/>
<path d="M347.956 150.119H291.896V91.7626H347.956V150.119ZM291.928 150.078H347.924V91.7869H291.928V150.078Z" fill="#DCDACE"/>
<path d="M340.404 99.612H299.439V142.253H340.404V99.612Z" fill="#FDFCF7"/>
<path d="M299.44 142.545C299.472 142.585 299.083 143.031 298.426 143.719C297.768 144.408 296.852 145.339 295.822 146.352C294.791 147.365 293.842 148.272 293.145 148.912C292.447 149.552 291.993 149.932 291.96 149.9C291.928 149.868 292.309 149.422 292.966 148.734C293.623 148.045 294.54 147.105 295.578 146.093C296.608 145.08 297.558 144.173 298.263 143.533C298.961 142.877 299.407 142.504 299.44 142.545Z" fill="#DCDACE"/>
<path d="M340.404 142.439C340.445 142.407 340.891 142.796 341.58 143.452C342.27 144.108 343.203 145.023 344.217 146.052C345.231 147.081 346.139 148.029 346.78 148.725C347.421 149.422 347.802 149.876 347.77 149.908C347.737 149.94 347.291 149.56 346.602 148.904C345.912 148.247 344.971 147.332 343.957 146.295C342.943 145.266 342.035 144.319 341.394 143.614C340.745 142.917 340.372 142.472 340.404 142.439Z" fill="#DCDACE"/>
<path d="M340.29 99.7254C340.258 99.6849 340.647 99.2394 341.304 98.5508C341.961 97.8623 342.878 96.9307 343.908 95.9182C344.939 94.9056 345.888 93.9983 346.585 93.3584C347.283 92.7185 347.737 92.3377 347.77 92.3701C347.802 92.4025 347.421 92.8481 346.764 93.5366C346.107 94.2252 345.19 95.1648 344.152 96.1774C343.121 97.1899 342.172 98.0972 341.467 98.7371C340.777 99.3852 340.323 99.7659 340.29 99.7254Z" fill="#DCDACE"/>
<path d="M299.326 99.8307C299.285 99.8631 298.839 99.4743 298.15 98.8181C297.46 98.162 296.527 97.2466 295.513 96.2179C294.499 95.1891 293.591 94.2414 292.95 93.5447C292.309 92.8481 291.928 92.3944 291.96 92.362C291.993 92.3296 292.439 92.7104 293.128 93.3665C293.818 94.0226 294.759 94.938 295.773 95.9749C296.795 97.0036 297.695 97.9514 298.336 98.6561C298.993 99.3528 299.366 99.7983 299.326 99.8307Z" fill="#DCDACE"/>
<path d="M340.291 142.253C340.291 142.253 340.283 142.18 340.283 142.042C340.283 141.897 340.275 141.702 340.275 141.451C340.266 140.917 340.266 140.147 340.258 139.151C340.25 137.134 340.234 134.193 340.218 130.459C340.202 122.99 340.169 112.354 340.137 99.612L340.291 99.7659C328.366 99.774 314.357 99.7821 299.44 99.7902H299.432L299.61 99.612C299.602 115.262 299.594 129.908 299.586 142.253L299.432 142.099C311.672 142.132 321.869 142.156 329.015 142.18C332.585 142.196 335.391 142.213 337.322 142.221C338.279 142.229 339.009 142.237 339.52 142.237C339.763 142.237 339.95 142.245 340.088 142.245C340.226 142.253 340.291 142.253 340.291 142.253C340.291 142.253 340.234 142.261 340.112 142.261C339.974 142.261 339.796 142.269 339.561 142.269C339.058 142.269 338.336 142.277 337.395 142.285C335.472 142.294 332.674 142.31 329.121 142.326C321.95 142.342 311.721 142.375 299.44 142.407H299.286V142.253C299.277 129.908 299.269 115.262 299.261 99.612V99.4338H299.44H299.448C314.365 99.4419 328.375 99.45 340.299 99.4581H340.461V99.612C340.429 112.395 340.396 123.071 340.38 130.564C340.364 134.282 340.348 137.206 340.339 139.215C340.331 140.204 340.323 140.957 340.323 141.484C340.323 141.727 340.315 141.921 340.315 142.059C340.299 142.196 340.299 142.261 340.291 142.253Z" fill="#DCDACE"/>
<path d="M326.76 114.112H313.092V127.761H326.76V114.112Z" fill="#EBE9DD"/>
<path d="M59.3377 152.419H15.1445V198.43H59.3377V152.419Z" fill="#DCDACE"/>
<path d="M56.3445 152.419H12.1514V198.43H56.3445V152.419Z" fill="#FAFAFA"/>
<path d="M56.3609 198.438H12.1353V152.403H56.3609V198.438ZM12.1677 198.414H56.3365V152.435H12.1677V198.414Z" fill="#DCDACE"/>
<path d="M50.4151 158.608H18.0977V192.249H50.4151V158.608Z" fill="#FDFCF7"/>
<path d="M18.0976 192.468C18.1219 192.501 17.8137 192.849 17.3026 193.392C16.7835 193.934 16.0615 194.672 15.2503 195.473C14.4392 196.275 13.6929 196.988 13.1413 197.49C12.5897 197.993 12.2327 198.292 12.2084 198.268C12.1841 198.244 12.4842 197.887 13.0034 197.345C13.5225 196.802 14.2445 196.065 15.0638 195.263C15.8831 194.461 16.6293 193.748 17.1809 193.238C17.7163 192.735 18.0651 192.436 18.0976 192.468Z" fill="#DCDACE"/>
<path d="M50.4067 192.387C50.4391 192.363 50.7879 192.671 51.3314 193.181C51.8749 193.699 52.6131 194.42 53.4162 195.23C54.2192 196.041 54.9331 196.786 55.436 197.337C55.9389 197.887 56.2391 198.244 56.2147 198.268C56.1904 198.292 55.8335 197.993 55.29 197.474C54.7465 196.956 54.0083 196.235 53.2053 195.417C52.4022 194.607 51.6884 193.853 51.1773 193.303C50.6744 192.76 50.3742 192.411 50.4067 192.387Z" fill="#DCDACE"/>
<path d="M50.3177 158.697C50.2934 158.665 50.6017 158.316 51.1127 157.774C51.6319 157.231 52.3538 156.494 53.165 155.692C53.9762 154.89 54.7225 154.177 55.2741 153.675C55.8257 153.173 56.1826 152.873 56.2069 152.897C56.2313 152.921 55.9311 153.278 55.412 153.821C54.8928 154.363 54.1709 155.101 53.3516 155.902C52.5404 156.704 51.786 157.417 51.2344 157.928C50.699 158.43 50.3421 158.73 50.3177 158.697Z" fill="#DCDACE"/>
<path d="M18.0082 158.778C17.9757 158.802 17.6269 158.495 17.0834 157.984C16.5399 157.466 15.8018 156.745 14.9987 155.935C14.1956 155.125 13.4818 154.38 12.9788 153.829C12.4759 153.278 12.1758 152.921 12.2001 152.897C12.2244 152.873 12.5814 153.173 13.1249 153.691C13.6683 154.209 14.4065 154.93 15.2096 155.749C16.0127 156.567 16.7265 157.312 17.2375 157.863C17.7405 158.397 18.0325 158.754 18.0082 158.778Z" fill="#DCDACE"/>
<path d="M50.3174 192.241C50.3174 192.241 50.3093 192.185 50.3093 192.079C50.3093 191.966 50.3012 191.812 50.3012 191.61C50.3012 191.188 50.2931 190.581 50.285 189.795C50.2769 188.199 50.2687 185.882 50.2525 182.942C50.2363 177.053 50.212 168.661 50.1876 158.608L50.3093 158.73C40.8996 158.738 29.8513 158.738 18.0892 158.746L18.2352 158.6C18.2271 170.945 18.219 182.496 18.219 192.241L18.0973 192.12C27.7503 192.144 35.7973 192.168 41.4269 192.185C44.2417 192.201 46.4562 192.209 47.9812 192.217C48.7356 192.225 49.3116 192.225 49.7171 192.233C49.9118 192.233 50.0578 192.241 50.1633 192.241C50.2687 192.241 50.3174 192.241 50.3174 192.241C50.3174 192.241 50.2687 192.249 50.1714 192.249C50.0659 192.249 49.9199 192.249 49.7334 192.258C49.3359 192.258 48.7681 192.266 48.0218 192.274C46.5049 192.282 44.2985 192.29 41.4918 192.306C35.8378 192.322 27.7666 192.347 18.0811 192.371H17.9594V192.249C17.9513 182.505 17.9432 170.961 17.9351 158.608V158.462H18.0811C29.8513 158.47 40.8996 158.478 50.3012 158.478H50.4229V158.6C50.3985 168.685 50.3742 177.101 50.358 183.015C50.3418 185.947 50.3336 188.256 50.3255 189.844C50.3174 190.621 50.3174 191.221 50.3093 191.634C50.3093 191.828 50.3012 191.982 50.3012 192.087C50.3255 192.193 50.3255 192.249 50.3174 192.241Z" fill="#DCDACE"/>
<path d="M39.6424 170.038H28.8618V180.803H39.6424V170.038Z" fill="#EBE9DD"/>
<path d="M345.936 173.853C337.248 178.349 330.589 186.085 325.803 194.599C321.017 203.112 317.926 212.46 314.868 221.743L312.191 269.601C322.298 252.428 330.41 232.25 332.6 212.452C330.361 212.25 328.114 212.055 325.876 211.853C330.386 211.164 334.174 207.9 336.575 204.036C338.984 200.164 340.225 195.708 341.434 191.31C338.7 191.715 335.967 192.12 333.225 192.525C339.658 188.248 344.322 181.403 345.936 173.853Z" fill="#DCDACE"/>
<path d="M310.698 280.812C310.698 280.812 288.764 254.591 289.015 229.56H297.874C297.874 229.56 288.245 223.242 289.007 219.702C289.77 216.162 290.021 202.764 290.021 202.764L298.125 204.789C298.125 204.789 292.049 201.751 291.287 196.948C290.524 192.144 293.055 169.892 293.055 169.892C293.055 169.892 302.927 180.261 305.969 190.88C309.011 201.5 316.985 213.886 314.641 246.247C312.296 278.609 310.698 280.812 310.698 280.812Z" fill="#EBE9DD"/>
<path d="M321.82 283.291C321.82 283.291 345.587 267.479 350.868 247.301L343.746 245.365C343.746 245.365 352.872 242.384 353.034 239.37C353.196 236.357 355.93 225.526 355.93 225.526L348.97 225.381C348.97 225.381 354.518 224.271 356.181 220.569C357.844 216.875 360.683 198.43 360.683 198.43C360.683 198.43 350.471 204.611 345.701 212.485C340.931 220.358 331.805 228.572 326.598 255.109C321.39 281.647 321.82 283.291 321.82 283.291Z" fill="#EBE9DD"/>
<path d="M299.058 192.752C299.066 192.752 299.091 192.841 299.139 193.027C299.188 193.23 299.253 193.497 299.334 193.837C299.496 194.574 299.731 195.619 300.032 196.948C300.34 198.301 300.689 199.953 301.078 201.881C301.467 203.809 301.922 206.004 302.368 208.434C303.309 213.295 304.298 219.111 305.321 225.575C306.31 232.047 307.3 239.176 308.176 246.677C309.036 254.186 309.701 261.355 310.22 267.884C310.707 274.413 311.064 280.302 311.258 285.243C311.38 287.714 311.437 289.958 311.502 291.918C311.567 293.887 311.599 295.58 311.615 296.965C311.632 298.326 311.64 299.395 311.648 300.148C311.648 300.497 311.648 300.772 311.648 300.975C311.648 301.161 311.64 301.258 311.632 301.258C311.623 301.258 311.615 301.161 311.607 300.975C311.599 300.764 311.583 300.489 311.567 300.148C311.542 299.395 311.502 298.326 311.453 296.965C311.413 295.58 311.356 293.887 311.266 291.926C311.185 289.966 311.104 287.722 310.966 285.251C310.731 280.31 310.342 274.429 309.839 267.908C309.303 261.387 308.622 254.226 307.762 246.725C306.886 239.224 305.913 232.104 304.939 225.632C303.942 219.167 302.976 213.351 302.076 208.491C301.646 206.053 301.216 203.858 300.843 201.93C300.478 199.994 300.153 198.333 299.869 196.98C299.602 195.644 299.399 194.591 299.253 193.853C299.188 193.513 299.139 193.246 299.099 193.035C299.066 192.849 299.05 192.76 299.058 192.752Z" fill="#DCDACE"/>
<path d="M307.657 296.868C307.657 296.868 287.58 274.121 281.35 260.375L286.055 258.366C282.648 258.925 279.152 257.467 276.507 255.239C273.863 253.02 271.924 250.095 270.018 247.211L276.215 246.166C270.577 244.587 265.613 240.747 262.668 235.693C269.985 236.891 276.605 240.909 282.056 245.923C286.469 249.982 290.208 254.696 293.802 259.516C295.554 261.865 297.087 264.368 298.36 267.009C301.735 273.967 307.665 288.516 307.657 296.868Z" fill="#EBE9DD"/>
<path d="M351.185 211.683C351.193 211.683 351.16 211.764 351.095 211.918C351.014 212.088 350.917 212.306 350.787 212.582C350.495 213.181 350.09 214.032 349.562 215.109C348.483 217.296 346.967 220.472 345.117 224.409C343.268 228.345 341.134 233.076 338.847 238.349C336.575 243.639 334.158 249.48 331.757 255.668C329.364 261.865 327.214 267.819 325.332 273.255C323.467 278.698 321.861 283.623 320.579 287.787C319.289 291.942 318.275 295.32 317.602 297.653C317.261 298.796 316.993 299.695 316.807 300.343C316.718 300.626 316.645 300.861 316.588 301.039C316.539 301.193 316.507 301.274 316.499 301.274C316.49 301.274 316.507 301.193 316.547 301.031C316.596 300.853 316.653 300.618 316.726 300.327C316.896 299.678 317.139 298.771 317.448 297.621C318.072 295.272 319.046 291.878 320.303 287.714C321.552 283.542 323.134 278.601 324.975 273.149C326.841 267.698 328.983 261.744 331.376 255.539C333.785 249.342 336.21 243.493 338.506 238.212C340.818 232.938 342.976 228.224 344.857 224.295C346.739 220.366 348.305 217.207 349.424 215.044C349.976 213.983 350.406 213.149 350.714 212.557C350.86 212.29 350.974 212.08 351.063 211.918C351.136 211.747 351.177 211.675 351.185 211.683Z" fill="#DCDACE"/>
<path d="M309.36 306.621C309.344 306.621 309.312 306.475 309.263 306.199C309.206 305.875 309.141 305.478 309.068 304.992C308.914 303.939 308.654 302.425 308.281 300.57C307.924 298.706 307.405 296.511 306.748 294.089C306.067 291.675 305.239 289.051 304.225 286.345C303.195 283.639 302.084 281.12 300.997 278.86C299.894 276.608 298.823 274.624 297.858 272.987C296.9 271.351 296.097 270.039 295.521 269.148C295.262 268.735 295.043 268.386 294.873 268.111C294.726 267.868 294.653 267.738 294.67 267.73C294.678 267.722 294.775 267.835 294.946 268.062C295.14 268.33 295.375 268.654 295.659 269.059C296.284 269.917 297.128 271.213 298.117 272.833C299.115 274.453 300.218 276.438 301.346 278.69C302.457 280.95 303.585 283.477 304.623 286.199C305.645 288.921 306.472 291.562 307.129 293.992C307.77 296.43 308.257 298.642 308.581 300.513C308.914 302.384 309.133 303.915 309.239 304.968C309.287 305.454 309.328 305.859 309.36 306.183C309.368 306.467 309.376 306.613 309.36 306.621Z" fill="#DCDACE"/>
<path d="M335.845 301.266H291.912V310.217H335.845V301.266Z" fill="#DCDACE"/>
<path d="M296.097 310.217L300.607 335.88H327.157L331.83 310.217H296.097Z" fill="#DCDACE"/>
<path d="M333.152 310.217C333.152 310.331 324.838 310.428 314.592 310.428C304.339 310.428 296.024 310.331 296.024 310.217C296.024 310.104 304.331 310.007 314.592 310.007C324.846 310.007 333.152 310.104 333.152 310.217Z" fill="#EBE9DD"/>
<path d="M75.1152 6.3265H3.76367V122.05H75.1152V6.3265Z" fill="#DCDACE"/>
<path d="M72.7465 6.3265H1.39502V122.05H72.7465V6.3265Z" fill="#EBE9DD"/>
<path d="M69.7045 8.67565H4.42871V119.709H69.7045V8.67565Z" fill="#FDFCF7"/>
<path d="M56.9932 23.1027H16.856V105.282H56.9932V23.1027Z" fill="#EBE9DD"/>
<path d="M16.8563 76.2015C16.7671 68.5222 23.8081 61.0293 31.563 59.96C35.262 59.4497 39.1962 60.1706 42.6519 58.7773C48.825 56.2986 50.788 48.2629 56.9936 45.8813L57.2775 105.274H16.8563V76.2015Z" fill="#DCDACE"/>
<path d="M361 336.236C361 336.349 280.182 336.447 180.512 336.447C80.8018 336.447 0 336.358 0 336.236C0 336.115 80.8018 336.025 180.512 336.025C280.182 336.025 361 336.123 361 336.236Z" fill="#263238"/>
<path d="M262.231 266.069H98.7615C94.3406 266.069 90.7471 262.367 90.7471 257.799V8.2787C90.7471 3.71001 94.3325 0.00807953 98.7615 0.00807953H262.231C266.652 0.00807953 270.245 3.71001 270.245 8.2868V257.807C270.245 262.368 266.66 266.069 262.231 266.069Z" fill="#263238"/>
<path d="M183.627 253.967C183.627 258.09 180.22 261.428 176.019 261.428C171.817 261.428 168.41 258.082 168.41 253.967C168.41 249.844 171.817 246.507 176.019 246.507C180.22 246.507 183.627 249.844 183.627 253.967Z" fill="#455A64"/>
<path d="M198.894 14.0625H162.236C160.825 14.0625 159.681 12.8798 159.681 11.4217C159.681 9.96364 160.825 8.78096 162.236 8.78096H198.894C200.305 8.78096 201.449 9.96364 201.449 11.4217C201.449 12.8798 200.305 14.0625 198.894 14.0625Z" fill="#455A64"/>
<path d="M264.429 18.9795H96.2632V241.185H264.429V18.9795Z" fill="#FDFCF7"/>
<path d="M264.583 18.9795H96.417V241.185H264.583V18.9795Z" fill="#EBE9DD"/>
<path d="M242.478 222.934H118.522C114.109 222.934 110.523 219.362 110.523 214.947V45.0794C110.523 40.6727 114.101 37.0923 118.522 37.0923H242.478C246.891 37.0923 250.477 40.6646 250.477 45.0794V214.955C250.468 219.362 246.891 222.934 242.478 222.934Z" fill="#FDFCF7"/>
<path d="M155.893 61.0779L156.68 59.3039C157.434 59.798 158.505 60.1382 159.487 60.1382C160.484 60.1382 160.874 59.8628 160.874 59.4497C160.874 58.105 156.039 59.0851 156.039 55.934C156.039 54.4193 157.28 53.1799 159.803 53.1799C160.906 53.1799 162.05 53.431 162.885 53.917L162.147 55.6991C161.336 55.2617 160.533 55.043 159.795 55.043C158.789 55.043 158.424 55.3832 158.424 55.8044C158.424 57.1005 163.242 56.1285 163.242 59.2634C163.242 60.7458 162.001 62.0013 159.478 62.0013C158.075 62.0094 156.696 61.6368 155.893 61.0779Z" fill="#DE6164"/>
<path d="M163.98 53.3176C163.98 52.629 164.54 52.0944 165.392 52.0944C166.244 52.0944 166.803 52.5885 166.803 53.2852C166.803 54.0142 166.244 54.5488 165.392 54.5488C164.54 54.5407 163.98 54.0061 163.98 53.3176ZM164.232 55.2698H166.536V61.8393H164.232V55.2698Z" fill="#DE6164"/>
<path d="M175.118 55.2698V60.6404C175.118 63.1273 173.706 64.3019 171.257 64.3019C169.991 64.3019 168.791 64.0103 167.988 63.4432L168.823 61.8312C169.367 62.2686 170.267 62.536 171.046 62.536C172.287 62.536 172.806 61.977 172.806 60.9483V60.7295C172.36 61.248 171.687 61.5072 170.851 61.5072C169.099 61.5072 167.623 60.2678 167.623 58.3318C167.623 56.4039 169.107 55.1645 170.851 55.1645C171.76 55.1645 172.465 55.4561 172.911 56.0717V55.2698H175.118ZM172.83 58.3237C172.83 57.5217 172.222 56.9871 171.395 56.9871C170.567 56.9871 169.951 57.5217 169.951 58.3237C169.951 59.1256 170.567 59.6684 171.395 59.6684C172.222 59.6684 172.83 59.1256 172.83 58.3237Z" fill="#DE6164"/>
<path d="M183.603 58.0807V61.8393H181.299V58.4533C181.299 57.5055 180.886 57.1086 180.22 57.1086C179.482 57.1086 178.906 57.5703 178.906 58.6639V61.8393H176.603V55.2698H178.801V55.9826C179.32 55.4399 180.066 55.1564 180.886 55.1564C182.427 55.1564 183.603 56.0393 183.603 58.0807Z" fill="#DE6164"/>
<path d="M195.511 55.2698V61.8393H193.313V61.1346C192.818 61.6773 192.112 61.9446 191.358 61.9446C189.744 61.9446 188.567 61.0212 188.567 58.9393V55.2617H190.871V58.5586C190.871 59.5793 191.269 59.9762 191.966 59.9762C192.648 59.9762 193.207 59.5307 193.207 58.4209V55.2536H195.511V55.2698Z" fill="#DE6164"/>
<path d="M204.361 58.5505C204.361 60.6323 202.917 61.9446 201.133 61.9446C200.37 61.9446 199.746 61.7178 199.299 61.2561V64.1885H196.996V55.2698H199.194V55.9259C199.632 55.4075 200.273 55.1645 201.141 55.1645C202.917 55.1564 204.361 56.4687 204.361 58.5505ZM202.033 58.5505C202.033 57.5541 201.425 56.9871 200.646 56.9871C199.867 56.9871 199.259 57.5541 199.259 58.5505C199.259 59.5469 199.867 60.1139 200.646 60.1139C201.425 60.1139 202.033 59.5469 202.033 58.5505Z" fill="#DE6164"/>
<path d="M126.52 109.268V110.167H128.094V110.799H126.52V112.038H125.733V108.636H128.305V109.268H126.52Z" fill="#263238"/>
<path d="M131.355 109.422V112.038H130.633V111.73C130.43 111.957 130.138 112.079 129.822 112.079C129.165 112.079 128.702 111.706 128.702 110.904V109.43H129.465V110.799C129.465 111.236 129.659 111.431 129.992 111.431C130.341 111.431 130.592 111.204 130.592 110.726V109.438H131.355V109.422Z" fill="#263238"/>
<path d="M132.061 108.433H132.823V112.038H132.061V108.433Z" fill="#263238"/>
<path d="M133.529 108.433H134.291V112.038H133.529V108.433Z" fill="#263238"/>
<path d="M139.548 108.636V112.038H138.899L137.204 109.973V112.038H136.425V108.636H137.074L138.769 110.702V108.636H139.548Z" fill="#263238"/>
<path d="M142.614 110.548V112.038H141.9V111.714C141.762 111.949 141.486 112.079 141.105 112.079C140.489 112.079 140.124 111.738 140.124 111.285C140.124 110.823 140.448 110.499 141.251 110.499H141.851C141.851 110.175 141.657 109.981 141.251 109.981C140.975 109.981 140.683 110.07 140.497 110.224L140.221 109.697C140.505 109.495 140.935 109.381 141.348 109.381C142.151 109.389 142.614 109.754 142.614 110.548ZM141.859 111.212V110.945H141.34C140.983 110.945 140.87 111.074 140.87 111.252C140.87 111.439 141.032 111.568 141.3 111.568C141.551 111.568 141.77 111.447 141.859 111.212Z" fill="#263238"/>
<path d="M147.724 110.54V112.038H146.962V110.661C146.962 110.24 146.775 110.045 146.467 110.045C146.126 110.045 145.891 110.264 145.891 110.734V112.046H145.129V110.669C145.129 110.248 144.95 110.054 144.634 110.054C144.301 110.054 144.058 110.272 144.058 110.742V112.054H143.295V109.438H144.017V109.738C144.212 109.511 144.504 109.397 144.837 109.397C145.202 109.397 145.51 109.535 145.697 109.827C145.907 109.559 146.248 109.397 146.637 109.397C147.278 109.389 147.724 109.746 147.724 110.54Z" fill="#263238"/>
<path d="M150.985 110.945H149.006C149.079 111.269 149.355 111.471 149.752 111.471C150.028 111.471 150.231 111.39 150.41 111.22L150.815 111.657C150.572 111.933 150.207 112.079 149.736 112.079C148.828 112.079 148.244 111.512 148.244 110.734C148.244 109.948 148.844 109.389 149.639 109.389C150.41 109.389 151.002 109.908 151.002 110.742C151.002 110.799 150.994 110.88 150.985 110.945ZM148.998 110.499H150.288C150.231 110.167 149.988 109.956 149.647 109.956C149.298 109.956 149.055 110.167 148.998 110.499Z" fill="#263238"/>
<path d="M128.37 133.893V134.525H125.733V131.123H128.305V131.755H126.512V132.492H128.094V133.108H126.512V133.893H128.37Z" fill="#263238"/>
<path d="M133.367 133.035V134.533H132.604V133.156C132.604 132.735 132.417 132.541 132.109 132.541C131.769 132.541 131.533 132.759 131.533 133.229V134.541H130.771V133.164C130.771 132.743 130.592 132.549 130.276 132.549C129.943 132.549 129.7 132.767 129.7 133.237V134.55H128.938V131.933H129.659V132.233C129.854 132.006 130.146 131.893 130.479 131.893C130.844 131.893 131.152 132.03 131.339 132.322C131.55 132.055 131.89 131.893 132.28 131.893C132.912 131.876 133.367 132.233 133.367 133.035Z" fill="#263238"/>
<path d="M136.36 133.035V134.525H135.646V134.201C135.508 134.436 135.232 134.566 134.851 134.566C134.235 134.566 133.87 134.225 133.87 133.772C133.87 133.31 134.194 132.986 134.997 132.986H135.597C135.597 132.662 135.403 132.468 134.997 132.468C134.721 132.468 134.429 132.557 134.243 132.711L133.967 132.184C134.251 131.982 134.681 131.868 135.095 131.868C135.898 131.876 136.36 132.249 136.36 133.035ZM135.606 133.707V133.44H135.086C134.729 133.44 134.616 133.569 134.616 133.748C134.616 133.934 134.778 134.063 135.046 134.063C135.297 134.055 135.516 133.942 135.606 133.707Z" fill="#263238"/>
<path d="M136.96 131.131C136.96 130.896 137.147 130.71 137.43 130.71C137.714 130.71 137.901 130.888 137.901 131.115C137.901 131.366 137.714 131.552 137.43 131.552C137.147 131.552 136.96 131.366 136.96 131.131ZM137.049 131.917H137.812V134.533H137.049V131.917Z" fill="#263238"/>
<path d="M138.518 130.92H139.28V134.525H138.518V130.92Z" fill="#263238"/>
<path d="M143.653 133.804H142.071L141.771 134.533H140.959L142.476 131.131H143.255L144.78 134.533H143.953L143.653 133.804ZM143.409 133.205L142.866 131.901L142.322 133.205H143.409Z" fill="#263238"/>
<path d="M147.725 130.92V134.525H147.003V134.225C146.816 134.452 146.532 134.566 146.183 134.566C145.445 134.566 144.877 134.039 144.877 133.221C144.877 132.403 145.445 131.876 146.183 131.876C146.508 131.876 146.776 131.982 146.97 132.192V130.92H147.725ZM146.987 133.221C146.987 132.767 146.694 132.5 146.321 132.5C145.94 132.5 145.648 132.776 145.648 133.221C145.648 133.675 145.94 133.942 146.321 133.942C146.694 133.942 146.987 133.675 146.987 133.221Z" fill="#263238"/>
<path d="M151.099 130.92V134.525H150.377V134.225C150.191 134.452 149.907 134.566 149.558 134.566C148.82 134.566 148.252 134.039 148.252 133.221C148.252 132.403 148.82 131.876 149.558 131.876C149.882 131.876 150.15 131.982 150.345 132.192V130.92H151.099ZM150.353 133.221C150.353 132.767 150.061 132.5 149.688 132.5C149.306 132.5 149.014 132.776 149.014 133.221C149.014 133.675 149.306 133.942 149.688 133.942C150.061 133.942 150.353 133.675 150.353 133.221Z" fill="#263238"/>
<path d="M153.419 131.876V132.573C153.354 132.565 153.305 132.565 153.249 132.565C152.827 132.565 152.551 132.792 152.551 133.294V134.525H151.789V131.909H152.511V132.257C152.705 132.006 153.022 131.876 153.419 131.876Z" fill="#263238"/>
<path d="M156.404 133.44H154.425C154.498 133.764 154.774 133.966 155.171 133.966C155.447 133.966 155.65 133.885 155.828 133.715L156.234 134.153C155.991 134.428 155.626 134.574 155.155 134.574C154.247 134.574 153.663 134.007 153.663 133.229C153.663 132.443 154.263 131.884 155.058 131.884C155.828 131.884 156.421 132.403 156.421 133.237C156.413 133.294 156.404 133.375 156.404 133.44ZM154.409 132.994H155.699C155.642 132.662 155.399 132.451 155.058 132.451C154.709 132.451 154.466 132.662 154.409 132.994Z" fill="#263238"/>
<path d="M156.672 134.282L156.923 133.739C157.159 133.893 157.516 133.991 157.832 133.991C158.181 133.991 158.31 133.901 158.31 133.756C158.31 133.326 156.729 133.764 156.729 132.719C156.729 132.225 157.175 131.876 157.937 131.876C158.294 131.876 158.7 131.957 158.943 132.103L158.692 132.646C158.432 132.5 158.173 132.451 157.937 132.451C157.597 132.451 157.451 132.557 157.451 132.694C157.451 133.14 159.032 132.711 159.032 133.739C159.032 134.225 158.578 134.574 157.799 134.574C157.361 134.566 156.915 134.444 156.672 134.282Z" fill="#263238"/>
<path d="M159.251 134.282L159.503 133.739C159.738 133.893 160.095 133.991 160.411 133.991C160.76 133.991 160.89 133.901 160.89 133.756C160.89 133.326 159.308 133.764 159.308 132.719C159.308 132.225 159.754 131.876 160.517 131.876C160.874 131.876 161.279 131.957 161.523 132.103L161.271 132.646C161.012 132.5 160.752 132.451 160.517 132.451C160.176 132.451 160.03 132.557 160.03 132.694C160.03 133.14 161.612 132.711 161.612 133.739C161.612 134.225 161.158 134.574 160.379 134.574C159.941 134.566 159.495 134.444 159.251 134.282Z" fill="#263238"/>
<path d="M129.197 154.072C129.197 154.833 128.629 155.303 127.721 155.303H127.031V156.243H126.245V152.84H127.721C128.629 152.84 129.197 153.31 129.197 154.072ZM128.402 154.072C128.402 153.699 128.159 153.48 127.68 153.48H127.04V154.663H127.68C128.159 154.655 128.402 154.436 128.402 154.072Z" fill="#263238"/>
<path d="M131.996 154.744V156.235H131.282V155.911C131.144 156.145 130.868 156.275 130.487 156.275C129.87 156.275 129.505 155.935 129.505 155.481C129.505 155.02 129.83 154.704 130.633 154.704H131.233C131.233 154.38 131.039 154.185 130.633 154.185C130.357 154.185 130.065 154.274 129.879 154.428L129.603 153.902C129.887 153.699 130.317 153.586 130.73 153.586C131.533 153.586 131.996 153.958 131.996 154.744ZM131.233 155.408V155.141H130.714C130.357 155.141 130.244 155.271 130.244 155.449C130.244 155.635 130.406 155.765 130.673 155.765C130.933 155.765 131.152 155.651 131.233 155.408Z" fill="#263238"/>
<path d="M132.434 155.992L132.686 155.449C132.921 155.603 133.278 155.7 133.594 155.7C133.943 155.7 134.073 155.611 134.073 155.465C134.073 155.036 132.491 155.473 132.491 154.428C132.491 153.934 132.937 153.586 133.7 153.586C134.056 153.586 134.462 153.667 134.705 153.813L134.454 154.347C134.194 154.201 133.935 154.153 133.7 154.153C133.359 154.153 133.213 154.258 133.213 154.396C133.213 154.841 134.795 154.412 134.795 155.441C134.795 155.927 134.34 156.275 133.562 156.275C133.124 156.275 132.677 156.154 132.434 155.992Z" fill="#263238"/>
<path d="M135.014 155.992L135.265 155.449C135.5 155.603 135.857 155.7 136.174 155.7C136.522 155.7 136.652 155.611 136.652 155.465C136.652 155.036 135.07 155.473 135.07 154.428C135.07 153.934 135.517 153.586 136.279 153.586C136.636 153.586 137.042 153.667 137.285 153.813L137.034 154.347C136.774 154.201 136.514 154.153 136.279 154.153C135.938 154.153 135.792 154.258 135.792 154.396C135.792 154.841 137.374 154.412 137.374 155.441C137.374 155.927 136.92 156.275 136.141 156.275C135.703 156.275 135.257 156.154 135.014 155.992Z" fill="#263238"/>
<path d="M142.006 153.626L141.057 156.243H140.327L139.734 154.623L139.126 156.243H138.396L137.455 153.626H138.169L138.785 155.392L139.426 153.626H140.067L140.692 155.392L141.333 153.626H142.006Z" fill="#263238"/>
<path d="M142.095 154.93C142.095 154.145 142.704 153.586 143.531 153.586C144.367 153.586 144.967 154.145 144.967 154.93C144.967 155.716 144.367 156.275 143.531 156.275C142.704 156.275 142.095 155.716 142.095 154.93ZM144.204 154.93C144.204 154.477 143.92 154.209 143.539 154.209C143.158 154.209 142.866 154.485 142.866 154.93C142.866 155.384 143.158 155.651 143.539 155.651C143.912 155.651 144.204 155.384 144.204 154.93Z" fill="#263238"/>
<path d="M147.1 153.586V154.282C147.035 154.274 146.987 154.274 146.93 154.274C146.508 154.274 146.232 154.501 146.232 155.003V156.235H145.47V153.618H146.192V153.966C146.386 153.715 146.703 153.586 147.1 153.586Z" fill="#263238"/>
<path d="M150.199 152.63V156.235H149.477V155.935C149.29 156.162 149.006 156.275 148.658 156.275C147.919 156.275 147.352 155.749 147.352 154.93C147.352 154.112 147.919 153.586 148.658 153.586C148.982 153.586 149.25 153.691 149.444 153.902V152.638H150.199V152.63ZM149.453 154.93C149.453 154.477 149.161 154.209 148.787 154.209C148.406 154.209 148.114 154.485 148.114 154.93C148.114 155.384 148.406 155.651 148.787 155.651C149.161 155.651 149.453 155.384 149.453 154.93Z" fill="#263238"/>
<path d="M215.766 210.751H150.945C148.803 210.751 147.067 209.018 147.067 206.879V199.791C147.067 197.653 148.803 195.919 150.945 195.919H215.766C217.908 195.919 219.644 197.653 219.644 199.791V206.879C219.644 209.018 217.908 210.751 215.766 210.751Z" fill="#DE6164"/>
<path d="M160.071 202.999C160.071 201.792 160.996 200.933 162.261 200.933C162.991 200.933 163.583 201.201 163.973 201.678L163.259 202.327C163.007 202.027 162.699 201.857 162.318 201.857C161.661 201.857 161.206 202.31 161.206 202.991C161.206 203.671 161.661 204.125 162.318 204.125C162.699 204.125 163.007 203.963 163.259 203.663L163.973 204.311C163.583 204.789 162.991 205.056 162.261 205.056C160.996 205.056 160.071 204.206 160.071 202.999Z" fill="#FDFCF7"/>
<path d="M166.479 201.857V202.829C166.382 202.821 166.317 202.813 166.236 202.813C165.798 202.813 165.498 203.031 165.498 203.574V204.983H164.419V201.905H165.449V202.278C165.668 201.994 166.025 201.857 166.479 201.857Z" fill="#FDFCF7"/>
<path d="M170.024 203.72H167.785C167.874 204.028 168.142 204.214 168.54 204.214C168.84 204.214 169.043 204.125 169.253 203.947L169.821 204.538C169.529 204.87 169.091 205.04 168.507 205.04C167.412 205.04 166.698 204.368 166.698 203.444C166.698 202.521 167.42 201.865 168.394 201.865C169.302 201.865 170.04 202.44 170.04 203.461C170.04 203.525 170.032 203.631 170.024 203.72ZM167.769 203.145H169.026C168.97 202.821 168.734 202.618 168.394 202.618C168.053 202.618 167.826 202.829 167.769 203.145Z" fill="#FDFCF7"/>
<path d="M173.342 203.274V204.983H172.336V204.587C172.182 204.878 171.873 205.032 171.427 205.032C170.689 205.032 170.275 204.619 170.275 204.084C170.275 203.517 170.689 203.169 171.646 203.169H172.263C172.247 202.861 172.036 202.683 171.606 202.683C171.314 202.683 170.981 202.788 170.77 202.95L170.405 202.221C170.754 201.986 171.281 201.865 171.76 201.865C172.766 201.857 173.342 202.294 173.342 203.274ZM172.263 203.995V203.728H171.8C171.452 203.728 171.33 203.849 171.33 204.036C171.33 204.214 171.476 204.352 171.736 204.352C171.963 204.352 172.174 204.238 172.263 203.995Z" fill="#FDFCF7"/>
<path d="M176.14 204.854C175.954 204.975 175.678 205.032 175.394 205.032C174.607 205.032 174.145 204.643 174.145 203.858V202.829H173.699V202.019H174.145V201.217H175.224V202.019H175.929V202.829H175.224V203.849C175.224 204.076 175.354 204.198 175.548 204.198C175.67 204.198 175.783 204.165 175.881 204.101L176.14 204.854Z" fill="#FDFCF7"/>
<path d="M179.596 203.72H177.357C177.446 204.028 177.714 204.214 178.111 204.214C178.412 204.214 178.614 204.125 178.825 203.947L179.393 204.538C179.101 204.87 178.663 205.04 178.079 205.04C176.984 205.04 176.27 204.368 176.27 203.444C176.27 202.521 176.992 201.865 177.965 201.865C178.874 201.865 179.612 202.44 179.612 203.461C179.612 203.525 179.604 203.631 179.596 203.72ZM177.341 203.145H178.606C178.549 202.821 178.314 202.618 177.973 202.618C177.633 202.618 177.406 202.829 177.341 203.145Z" fill="#FDFCF7"/>
<path d="M184.479 204.206H182.8L182.484 204.975H181.34L183.092 201.006H184.203L185.964 204.975H184.795L184.479 204.206ZM184.147 203.379L183.635 202.108L183.124 203.379H184.147Z" fill="#FDFCF7"/>
<path d="M186.004 203.436C186.004 202.513 186.734 201.857 187.773 201.857C188.47 201.857 189.006 202.173 189.217 202.699L188.381 203.128C188.235 202.837 188.016 202.715 187.765 202.715C187.392 202.715 187.091 202.975 187.091 203.444C187.091 203.922 187.383 204.182 187.765 204.182C188.016 204.182 188.227 204.06 188.381 203.768L189.217 204.198C189.006 204.732 188.47 205.04 187.773 205.04C186.734 205.032 186.004 204.376 186.004 203.436Z" fill="#FDFCF7"/>
<path d="M189.395 203.436C189.395 202.513 190.125 201.857 191.163 201.857C191.861 201.857 192.396 202.173 192.607 202.699L191.772 203.128C191.626 202.837 191.407 202.715 191.155 202.715C190.782 202.715 190.482 202.975 190.482 203.444C190.482 203.922 190.774 204.182 191.155 204.182C191.407 204.182 191.618 204.06 191.772 203.768L192.607 204.198C192.396 204.732 191.861 205.04 191.163 205.04C190.125 205.032 189.395 204.376 189.395 203.436Z" fill="#FDFCF7"/>
<path d="M192.786 203.436C192.786 202.513 193.516 201.857 194.522 201.857C195.536 201.857 196.257 202.513 196.257 203.436C196.257 204.368 195.536 205.032 194.522 205.032C193.516 205.032 192.786 204.368 192.786 203.436ZM195.171 203.436C195.171 202.975 194.895 202.707 194.522 202.707C194.157 202.707 193.873 202.966 193.873 203.436C193.873 203.906 194.157 204.173 194.522 204.173C194.895 204.173 195.171 203.906 195.171 203.436Z" fill="#FDFCF7"/>
<path d="M199.997 201.905V204.983H198.967V204.651C198.732 204.911 198.407 205.032 198.05 205.032C197.296 205.032 196.744 204.603 196.744 203.623V201.905H197.823V203.452C197.823 203.93 198.01 204.117 198.334 204.117C198.65 204.117 198.91 203.906 198.91 203.388V201.905H199.997Z" fill="#FDFCF7"/>
<path d="M203.964 203.226V204.983H202.885V203.404C202.885 202.958 202.69 202.772 202.382 202.772C202.033 202.772 201.765 202.991 201.765 203.501V204.983H200.687V201.905H201.717V202.237C201.96 201.978 202.309 201.849 202.69 201.849C203.412 201.857 203.964 202.27 203.964 203.226Z" fill="#FDFCF7"/>
<path d="M206.762 204.854C206.576 204.975 206.3 205.032 206.016 205.032C205.229 205.032 204.767 204.643 204.767 203.858V202.829H204.321V202.019H204.767V201.217H205.846V202.019H206.552V202.829H205.846V203.849C205.846 204.076 205.976 204.198 206.17 204.198C206.292 204.198 206.406 204.165 206.503 204.101L206.762 204.854Z" fill="#FDFCF7"/>
<path d="M183.538 110.54V108.636H184.325V110.507C184.325 111.155 184.609 111.423 185.087 111.423C185.566 111.423 185.842 111.155 185.842 110.507V108.636H186.621V110.54C186.621 111.544 186.045 112.095 185.079 112.095C184.114 112.095 183.538 111.544 183.538 110.54Z" fill="#263238"/>
<path d="M187.099 111.795L187.351 111.252C187.586 111.406 187.943 111.504 188.259 111.504C188.608 111.504 188.738 111.414 188.738 111.269C188.738 110.839 187.156 111.277 187.156 110.232C187.156 109.738 187.602 109.389 188.365 109.389C188.721 109.389 189.127 109.47 189.37 109.616L189.119 110.159C188.859 110.013 188.608 109.964 188.365 109.964C188.024 109.964 187.878 110.07 187.878 110.207C187.878 110.653 189.46 110.224 189.46 111.252C189.46 111.738 189.005 112.087 188.227 112.087C187.789 112.079 187.342 111.957 187.099 111.795Z" fill="#263238"/>
<path d="M192.485 110.945H190.506C190.579 111.269 190.855 111.471 191.252 111.471C191.528 111.471 191.731 111.39 191.91 111.22L192.315 111.657C192.072 111.933 191.707 112.079 191.236 112.079C190.328 112.079 189.744 111.512 189.744 110.734C189.744 109.948 190.344 109.389 191.139 109.389C191.91 109.389 192.502 109.908 192.502 110.742C192.502 110.799 192.494 110.88 192.485 110.945ZM190.498 110.499H191.788C191.731 110.167 191.488 109.956 191.147 109.956C190.798 109.956 190.547 110.167 190.498 110.499Z" fill="#263238"/>
<path d="M194.635 109.381V110.078C194.57 110.07 194.521 110.07 194.465 110.07C194.043 110.07 193.767 110.297 193.767 110.799V112.03H193.004V109.414H193.726V109.762C193.921 109.519 194.229 109.381 194.635 109.381Z" fill="#263238"/>
<path d="M197.758 110.54V112.038H197.004V110.661C197.004 110.24 196.809 110.045 196.476 110.045C196.111 110.045 195.852 110.272 195.852 110.75V112.046H195.089V109.43H195.811V109.738C196.014 109.511 196.322 109.389 196.679 109.389C197.296 109.381 197.758 109.746 197.758 110.54Z" fill="#263238"/>
<path d="M200.768 110.548V112.038H200.054V111.714C199.916 111.949 199.64 112.079 199.259 112.079C198.65 112.079 198.277 111.738 198.277 111.285C198.277 110.823 198.602 110.499 199.405 110.499H200.005C200.005 110.175 199.81 109.981 199.405 109.981C199.129 109.981 198.837 110.07 198.65 110.224L198.375 109.697C198.659 109.495 199.089 109.381 199.502 109.381C200.305 109.381 200.768 109.754 200.768 110.548ZM200.005 111.212V110.945H199.486C199.129 110.945 199.016 111.074 199.016 111.252C199.016 111.439 199.178 111.568 199.445 111.568C199.697 111.568 199.916 111.447 200.005 111.212Z" fill="#263238"/>
<path d="M205.87 110.54V112.038H205.107V110.661C205.107 110.24 204.921 110.045 204.613 110.045C204.272 110.045 204.037 110.264 204.037 110.734V112.046H203.274V110.669C203.274 110.248 203.096 110.054 202.779 110.054C202.447 110.054 202.203 110.272 202.203 110.742V112.054H201.441V109.438H202.163V109.738C202.358 109.511 202.65 109.397 202.982 109.397C203.347 109.397 203.655 109.535 203.842 109.827C204.053 109.559 204.394 109.397 204.783 109.397C205.424 109.381 205.87 109.746 205.87 110.54Z" fill="#263238"/>
<path d="M209.139 110.945H207.159C207.232 111.269 207.508 111.471 207.906 111.471C208.182 111.471 208.384 111.39 208.563 111.22L208.968 111.657C208.725 111.933 208.36 112.079 207.89 112.079C206.981 112.079 206.397 111.512 206.397 110.734C206.397 109.948 206.997 109.389 207.792 109.389C208.563 109.389 209.155 109.908 209.155 110.742C209.147 110.799 209.139 110.88 209.139 110.945ZM207.143 110.499H208.433C208.376 110.167 208.133 109.956 207.792 109.956C207.443 109.956 207.2 110.167 207.143 110.499Z" fill="#263238"/>
<path d="M126.237 99.9921C142.055 99.9921 157.864 99.9921 173.683 99.9921C173.812 99.9921 173.812 99.7902 173.683 99.7902C157.864 99.7902 142.055 99.7902 126.237 99.7902C126.107 99.7902 126.107 99.9921 126.237 99.9921Z" fill="#263238"/>
<path d="M187.757 99.9921C203.575 99.9921 219.385 99.9921 235.203 99.9921C235.332 99.9921 235.332 99.7902 235.203 99.7902C219.385 99.7902 203.575 99.7902 187.757 99.7902C187.627 99.7902 187.619 99.9921 187.757 99.9921Z" fill="#263238"/>
<path d="M177.617 99.4743C177.617 98.5427 178.339 97.8461 179.312 97.8461C180.285 97.8461 180.999 98.5346 180.999 99.4743C180.999 100.414 180.277 101.102 179.312 101.102C178.339 101.102 177.617 100.406 177.617 99.4743ZM180.553 99.4743C180.553 98.7695 180.026 98.2511 179.32 98.2511C178.606 98.2511 178.079 98.7695 178.079 99.4743C178.079 100.179 178.606 100.697 179.32 100.697C180.026 100.697 180.553 100.179 180.553 99.4743Z" fill="#263238"/>
<path d="M182.938 98.6318V99.0531C182.906 99.045 182.873 99.045 182.841 99.045C182.37 99.045 182.078 99.3285 182.078 99.8631V101.062H181.64V98.648H182.062V99.0531C182.216 98.7776 182.516 98.6318 182.938 98.6318Z" fill="#263238"/>
<path d="M175.289 126.068H127.867C126.464 126.068 125.32 124.934 125.32 123.525V118.332C125.32 116.931 126.455 115.789 127.867 115.789H175.289C176.692 115.789 177.836 116.923 177.836 118.332V123.525C177.836 124.934 176.692 126.068 175.289 126.068Z" fill="#EBE9DD"/>
<path d="M232.169 147.883H127.867C126.464 147.883 125.32 146.749 125.32 145.339V140.147C125.32 138.746 126.455 137.603 127.867 137.603H232.161C233.564 137.603 234.708 138.737 234.708 140.147V145.339C234.708 146.749 233.572 147.883 232.169 147.883Z" fill="#EBE9DD"/>
<path d="M232.169 169.754H127.875C126.472 169.754 125.328 168.62 125.328 167.211V162.018C125.328 160.617 126.464 159.475 127.875 159.475H232.169C233.572 159.475 234.716 160.609 234.716 162.018V167.211C234.708 168.612 233.572 169.754 232.169 169.754Z" fill="#EBE9DD"/>
<path d="M232.168 126.068H185.712C184.309 126.068 183.165 124.934 183.165 123.525V118.332C183.165 116.931 184.301 115.789 185.712 115.789H232.168C233.572 115.789 234.716 116.923 234.716 118.332V123.525C234.707 124.934 233.572 126.068 232.168 126.068Z" fill="#EBE9DD"/>
<path d="M130.106 179.92H127.429C126.983 179.92 126.626 179.564 126.626 179.119V176.445C126.626 176 126.983 175.643 127.429 175.643H130.106C130.552 175.643 130.909 176 130.909 176.445V179.119C130.909 179.564 130.552 179.92 130.106 179.92Z" fill="#DE6164"/>
<path d="M229.824 179.629H135.557C134.681 179.629 133.975 178.924 133.975 178.049C133.975 177.174 134.681 176.47 135.557 176.47H229.824C230.7 176.47 231.406 177.174 231.406 178.049C231.398 178.924 230.692 179.629 229.824 179.629Z" fill="#DCDACE"/>
<path d="M151.058 185.534H136.035C135.159 185.534 134.454 184.829 134.454 183.955C134.454 183.08 135.159 182.375 136.035 182.375H151.058C151.935 182.375 152.64 183.08 152.64 183.955C152.64 184.829 151.935 185.534 151.058 185.534Z" fill="#DCDACE"/>
<path d="M231.641 89.9319H129.36C127.397 89.9319 125.807 88.3442 125.807 86.3839V80.0007C125.807 78.0403 127.397 76.4526 129.36 76.4526H231.641C233.605 76.4526 235.194 78.0403 235.194 80.0007V86.3758C235.194 88.3442 233.605 89.9319 231.641 89.9319Z" fill="#EBE9DD"/>
<path d="M159.803 84.2372L159.982 83.8565C160.233 84.0833 160.671 84.2534 161.109 84.2534C161.701 84.2534 161.953 84.0266 161.953 83.7269C161.953 82.8925 159.892 83.4191 159.892 82.1554C159.892 81.6288 160.298 81.1833 161.198 81.1833C161.596 81.1833 162.01 81.2886 162.294 81.483L162.131 81.8719C161.831 81.6855 161.499 81.5964 161.198 81.5964C160.623 81.5964 160.371 81.8395 160.371 82.1392C160.371 82.9735 162.431 82.447 162.431 83.6945C162.431 84.2129 162.01 84.6584 161.117 84.6584C160.59 84.6584 160.079 84.4883 159.803 84.2372Z" fill="#263238"/>
<path d="M162.991 81.2481C162.991 81.078 163.129 80.9403 163.308 80.9403C163.486 80.9403 163.624 81.0699 163.624 81.24C163.624 81.4182 163.494 81.5478 163.308 81.5478C163.129 81.5559 162.991 81.4182 162.991 81.2481ZM163.072 82.0501H163.543V84.626H163.072V82.0501Z" fill="#263238"/>
<path d="M166.893 82.0501V84.2777C166.893 85.185 166.431 85.5981 165.554 85.5981C165.084 85.5981 164.605 85.4685 164.322 85.2174L164.549 84.861C164.784 85.0635 165.165 85.1931 165.538 85.1931C166.147 85.1931 166.422 84.9096 166.422 84.3263V84.1238C166.195 84.3911 165.863 84.5207 165.49 84.5207C164.743 84.5207 164.184 84.0185 164.184 83.2733C164.184 82.528 164.751 82.0258 165.49 82.0258C165.871 82.0258 166.228 82.1635 166.447 82.447V82.0501H166.893ZM166.439 83.2651C166.439 82.7629 166.066 82.4308 165.554 82.4308C165.035 82.4308 164.662 82.7629 164.662 83.2651C164.662 83.7593 165.035 84.1076 165.554 84.1076C166.066 84.1076 166.439 83.7593 166.439 83.2651Z" fill="#263238"/>
<path d="M170.235 83.1436V84.626H169.765V83.2003C169.765 82.6981 169.513 82.447 169.067 82.447C168.572 82.447 168.248 82.7467 168.248 83.3057V84.6341H167.777V82.0582H168.223V82.447C168.41 82.1878 168.743 82.0339 169.156 82.0339C169.789 82.0258 170.235 82.3822 170.235 83.1436Z" fill="#263238"/>
<path d="M174.818 82.0501V84.626H174.372V84.2372C174.186 84.5045 173.861 84.6584 173.496 84.6584C172.831 84.6584 172.385 84.2939 172.385 83.5325V82.0501H172.855V83.4758C172.855 83.978 173.107 84.2372 173.553 84.2372C174.04 84.2372 174.348 83.9375 174.348 83.3786V82.0501H174.818Z" fill="#263238"/>
<path d="M178.379 83.3381C178.379 84.1319 177.827 84.6584 177.073 84.6584C176.708 84.6584 176.384 84.5207 176.173 84.2372V85.5657H175.702V82.0501H176.148V82.4551C176.359 82.1716 176.692 82.0258 177.065 82.0258C177.827 82.0258 178.379 82.5523 178.379 83.3381ZM177.909 83.3381C177.909 82.7953 177.535 82.4308 177.041 82.4308C176.546 82.4308 176.173 82.7872 176.173 83.3381C176.173 83.8889 176.546 84.2453 177.041 84.2453C177.527 84.2453 177.909 83.8808 177.909 83.3381Z" fill="#263238"/>
<path d="M184.236 82.0501L183.271 84.626H182.824L182.078 82.6738L181.324 84.626H180.878L179.92 82.0501H180.367L181.113 84.0995L181.892 82.0501H182.289L183.052 84.1076L183.822 82.0501H184.236Z" fill="#263238"/>
<path d="M184.625 81.2481C184.625 81.078 184.763 80.9403 184.942 80.9403C185.12 80.9403 185.258 81.0699 185.258 81.24C185.258 81.4182 185.128 81.5478 184.942 81.5478C184.763 81.5559 184.625 81.4182 184.625 81.2481ZM184.715 82.0501H185.185V84.626H184.715V82.0501Z" fill="#263238"/>
<path d="M187.521 84.4721C187.384 84.5936 187.165 84.6503 186.954 84.6503C186.434 84.6503 186.134 84.3668 186.134 83.8403V82.4227H185.696V82.042H186.134V81.4749H186.605V82.042H187.343V82.4227H186.605V83.816C186.605 84.0914 186.751 84.2453 187.01 84.2453C187.148 84.2453 187.278 84.2048 187.375 84.1238L187.521 84.4721Z" fill="#263238"/>
<path d="M190.531 83.1437V84.626H190.06V83.2004C190.06 82.6981 189.809 82.447 189.363 82.447C188.868 82.447 188.543 82.7467 188.543 83.3057V84.6342H188.073V81.0294H188.543V82.4227C188.738 82.1716 189.062 82.0339 189.452 82.0339C190.084 82.0258 190.531 82.3822 190.531 83.1437Z" fill="#263238"/>
<path d="M195.138 82.9006H195.609V84.2291C195.268 84.5126 194.798 84.6584 194.319 84.6584C193.273 84.6584 192.502 83.9213 192.502 82.9168C192.502 81.9124 193.273 81.1752 194.327 81.1752C194.871 81.1752 195.325 81.3534 195.633 81.7018L195.333 82.0015C195.049 81.7261 194.733 81.6045 194.343 81.6045C193.556 81.6045 192.989 82.1554 192.989 82.9087C192.989 83.654 193.556 84.2129 194.343 84.2129C194.627 84.2129 194.895 84.1481 195.138 83.9942V82.9006Z" fill="#263238"/>
<path d="M196.225 83.3381C196.225 82.5685 196.793 82.0258 197.572 82.0258C198.342 82.0258 198.91 82.5685 198.91 83.3381C198.91 84.1076 198.342 84.6584 197.572 84.6584C196.793 84.6503 196.225 84.0995 196.225 83.3381ZM198.432 83.3381C198.432 82.7872 198.058 82.4308 197.564 82.4308C197.069 82.4308 196.696 82.7872 196.696 83.3381C196.696 83.8889 197.069 84.2453 197.564 84.2453C198.066 84.2453 198.432 83.8808 198.432 83.3381Z" fill="#263238"/>
<path d="M199.316 83.3381C199.316 82.5685 199.884 82.0258 200.662 82.0258C201.433 82.0258 202.001 82.5685 202.001 83.3381C202.001 84.1076 201.433 84.6584 200.662 84.6584C199.884 84.6503 199.316 84.0995 199.316 83.3381ZM201.522 83.3381C201.522 82.7872 201.149 82.4308 200.654 82.4308C200.16 82.4308 199.786 82.7872 199.786 83.3381C199.786 83.8889 200.16 84.2453 200.654 84.2453C201.157 84.2453 201.522 83.8808 201.522 83.3381Z" fill="#263238"/>
<path d="M205.116 82.0501V84.2777C205.116 85.185 204.653 85.5981 203.777 85.5981C203.307 85.5981 202.828 85.4685 202.544 85.2174L202.771 84.861C203.007 85.0635 203.388 85.1931 203.761 85.1931C204.369 85.1931 204.645 84.9096 204.645 84.3263V84.1238C204.418 84.3911 204.085 84.5207 203.712 84.5207C202.966 84.5207 202.406 84.0185 202.406 83.2733C202.406 82.528 202.974 82.0258 203.712 82.0258C204.094 82.0258 204.45 82.1635 204.661 82.447V82.0501H205.116ZM204.653 83.2651C204.653 82.7629 204.28 82.4308 203.769 82.4308C203.25 82.4308 202.877 82.7629 202.877 83.2651C202.877 83.7593 203.25 84.1076 203.769 84.1076C204.288 84.1076 204.653 83.7593 204.653 83.2651Z" fill="#263238"/>
<path d="M206 81.0211H206.47V84.6258H206V81.0211Z" fill="#263238"/>
<path d="M209.683 83.492H207.59C207.647 83.9456 208.012 84.2453 208.523 84.2453C208.823 84.2453 209.074 84.14 209.269 83.9375L209.529 84.2372C209.293 84.5126 208.936 84.6584 208.515 84.6584C207.679 84.6584 207.127 84.1076 207.127 83.3381C207.127 82.5766 207.679 82.0258 208.417 82.0258C209.164 82.0258 209.691 82.5604 209.691 83.3543C209.691 83.3867 209.683 83.4434 209.683 83.492ZM207.59 83.1517H209.245C209.196 82.7224 208.871 82.4146 208.417 82.4146C207.971 82.4146 207.638 82.7224 207.59 83.1517Z" fill="#263238"/>
<path d="M153.379 83.2004V83.9618H155.244C155.082 84.618 154.49 85.0311 153.679 85.0311C152.632 85.0311 151.878 84.2858 151.878 83.2652C151.878 82.6819 152.178 82.1149 152.665 81.799C153.452 81.2805 154.401 81.483 154.895 82.042C155.025 82.1878 155.228 82.2364 155.39 82.1392C155.601 82.0177 155.658 81.7342 155.504 81.5479C155.05 81.0375 154.376 80.7297 153.654 80.7297C152.194 80.7297 151.099 81.8152 151.099 83.2571C151.099 84.699 152.21 85.7844 153.679 85.7844C155.066 85.7844 156.064 84.861 156.064 83.5811V83.1923H153.379V83.2004Z" fill="#263238"/>
<path d="M249.616 48.0211C253.955 46.2398 256.025 41.2837 254.242 36.9514C252.458 32.6191 247.495 30.5512 243.157 32.3325C238.818 34.1139 236.747 39.0699 238.531 43.4022C240.315 47.7345 245.278 49.8025 249.616 48.0211Z" fill="#DE6164"/>
<path d="M249.817 38.0101L248.561 36.7557L242.945 42.3633L244.201 43.6177L249.817 38.0101Z" fill="#FDFCF7"/>
<path d="M244.199 36.7541L242.943 38.0085L248.559 43.6161L249.815 42.3617L244.199 36.7541Z" fill="#FDFCF7"/>
<path d="M60.0919 264.117L54.8274 263.485C51.4934 265.705 47.4537 266.977 43.0896 266.863C32.7876 266.604 24.2134 258.406 23.4914 248.143C22.6559 236.284 32.1954 226.247 44.1847 226.555C54.365 226.814 62.8662 234.826 63.7422 244.959C64.1722 249.99 62.7364 254.696 60.0351 258.455L60.0432 258.447L60.0919 264.117Z" fill="#FDFCF7"/>
<path d="M60.0921 264.117C60.0921 264.117 60.084 263.979 60.0759 263.736C60.0678 263.477 60.0597 263.113 60.0516 262.643C60.0354 261.671 60.0029 260.269 59.9705 258.447L60.0921 258.504L60.084 258.512C60.0516 258.536 60.0029 258.536 59.9786 258.504C59.9542 258.479 59.9542 258.439 59.9786 258.414C61.4144 256.381 63.0043 253.368 63.5234 249.431C63.7911 247.471 63.7587 245.316 63.3531 243.064C62.9313 240.82 62.0795 238.511 60.7411 236.324C59.3945 234.153 57.5613 232.128 55.29 230.5C53.0268 228.88 50.3336 227.616 47.3809 227.09C44.4363 226.539 41.2727 226.652 38.2308 227.487C35.1727 228.305 32.2848 229.965 29.8919 232.225C28.6508 233.343 27.653 234.672 26.7364 236.016C26.3308 236.721 25.909 237.426 25.5602 238.147L25.0816 239.257L24.8463 239.808L24.6679 240.383C23.6539 243.412 23.4267 246.596 23.8405 249.585C24.2379 252.582 25.4141 255.352 26.9554 257.693C28.5129 260.043 30.484 261.962 32.6255 263.396C34.7752 264.822 37.0708 265.762 39.3178 266.264C39.8856 266.361 40.4372 266.458 40.9888 266.555C41.5404 266.636 42.0839 266.653 42.6193 266.701C43.6901 266.782 44.7203 266.734 45.7099 266.645C49.6766 266.256 52.7347 264.773 54.7951 263.429C54.8114 263.421 54.8276 263.412 54.8438 263.421C56.5148 263.639 57.8208 263.809 58.7212 263.931C59.1593 263.988 59.4919 264.036 59.7433 264.069C59.9705 264.093 60.0921 264.117 60.0921 264.117C60.0921 264.117 59.9867 264.109 59.7596 264.093C59.5162 264.069 59.1836 264.036 58.7537 263.988C57.8371 263.89 56.5148 263.745 54.8195 263.558L54.8681 263.55C52.8158 264.935 49.7334 266.458 45.7261 266.879C44.7284 266.977 43.6819 267.033 42.6031 266.96C42.0596 266.912 41.508 266.904 40.9483 266.823C40.3967 266.726 39.8288 266.628 39.2529 266.531C36.9816 266.029 34.6373 265.089 32.4552 263.655C30.2812 262.214 28.2695 260.261 26.6796 257.88C25.1059 255.498 23.9053 252.695 23.4916 249.642C23.0698 246.604 23.297 243.364 24.3272 240.277L24.5056 239.694L24.7409 239.127C24.9031 238.754 25.0653 238.374 25.2276 238.001C25.5845 237.264 26.0063 236.551 26.42 235.83C27.3529 234.461 28.3668 233.1 29.6323 231.966C32.0658 229.666 35.0104 227.973 38.1254 227.146C41.2322 226.296 44.4445 226.191 47.4377 226.758C50.4472 227.3 53.1809 228.596 55.4765 230.249C57.7803 231.91 59.6379 233.967 60.9926 236.179C62.3391 238.398 63.1909 240.747 63.6127 243.023C64.0102 245.308 64.0264 247.487 63.7506 249.471C63.199 253.449 61.5685 256.478 60.0921 258.512L59.9867 258.414L59.9948 258.406C60.0273 258.382 60.0759 258.382 60.1003 258.414C60.1084 258.431 60.1165 258.447 60.1165 258.463C60.1165 260.302 60.1084 261.719 60.1084 262.7C60.1084 263.161 60.1003 263.518 60.1003 263.777C60.1003 264.004 60.0921 264.117 60.0921 264.117Z" fill="#263238"/>
<path d="M34.7183 247.949L37.2491 245.243L42.4488 249.552L52.037 239.694L54.5516 242.222L42.246 254.607L34.7183 247.949Z" fill="#DE6164"/>
<path d="M92.3775 202.302C92.8723 200.715 94.1621 199.394 95.7439 198.859C96.3847 198.641 97.131 198.503 97.5041 197.928C97.7718 197.523 97.7637 197.004 97.8773 196.535C98.2342 195.093 99.9864 194.177 101.382 194.712C101.722 194.842 102.047 195.052 102.42 195.06C103.904 195.101 104.123 192.258 105.6 192.314C105.202 192.8 104.845 193.359 104.789 193.983C104.74 194.607 105.089 195.303 105.689 195.465C107.263 195.895 108.017 192.849 109.639 193.051C110.515 193.157 111.156 194.242 112.016 194.048C112.349 193.975 112.608 193.724 112.892 193.537C113.858 192.93 115.293 193.254 115.902 194.226C116.421 195.052 116.502 196.332 117.443 196.599C118.027 196.761 118.611 196.405 119.114 196.057C119.495 196.867 119.69 197.758 119.674 198.649C121.499 198.77 123.024 200.585 122.829 202.399C123.786 202.602 124.768 202.829 125.579 203.38C126.39 203.93 126.991 204.902 126.82 205.866C126.78 206.085 126.707 206.304 126.731 206.523C126.755 206.766 126.893 206.976 127.039 207.163C127.607 207.9 128.353 208.515 128.735 209.358C129.116 210.2 128.946 211.423 128.078 211.756C127.875 211.837 127.631 211.877 127.518 212.055C127.437 212.193 127.461 212.371 127.502 212.533C127.68 213.173 128.126 213.708 128.499 214.259C128.873 214.809 129.189 215.466 129.075 216.122C128.962 216.778 128.224 217.345 127.623 217.061C128.313 217.871 129.01 218.69 129.7 219.5C130.114 219.986 130.552 220.593 130.349 221.193C130.081 221.978 128.921 222.027 128.215 221.59C127.51 221.152 127.015 220.423 126.293 220.002C126.001 219.832 125.668 219.718 125.417 219.491C125.214 219.313 125.06 219.062 124.792 218.997C124.265 218.868 123.949 219.678 124.233 220.131C124.516 220.585 125.084 220.771 125.571 220.998C126.058 221.225 126.569 221.638 126.528 222.181C126.504 222.44 126.358 222.675 126.342 222.934C126.293 223.833 127.664 224.012 128.183 224.757C128.564 225.308 128.394 226.053 128.175 226.677C127.907 227.446 127.112 228.353 126.463 227.851C126.236 227.681 126.147 227.381 125.944 227.187C125.709 226.96 125.36 226.895 125.044 226.798C124.257 226.571 123.535 226.11 123.008 225.478C123.997 225.94 125.133 226.628 125.125 227.714C125.125 228.167 124.906 228.588 124.76 229.026C124.484 229.876 124.508 230.8 124.241 231.65C123.981 232.501 123.267 233.343 122.375 233.295C122.991 233.943 123.097 235.028 122.602 235.782C122.107 236.535 121.069 236.875 120.225 236.567C119.99 236.486 119.763 236.349 119.52 236.373C119.252 236.389 119.033 236.575 118.822 236.737C117.54 237.685 115.707 237.815 114.296 237.07C114.49 236.867 114.693 236.665 114.888 236.47C113.387 236.972 111.821 237.491 110.256 237.256C108.69 237.021 107.149 235.798 107.133 234.218C107.125 233.53 107.352 232.72 106.841 232.258C106.492 231.942 105.957 231.974 105.486 232.031C103.523 232.258 101.56 232.485 99.5889 232.72C98.6317 232.833 97.6258 232.93 96.7579 232.525C95.8899 232.12 95.2815 231.002 95.7682 230.168C94.9976 229.585 94.0647 229.22 93.1075 229.139C92.0287 229.042 90.9417 229.293 89.8547 229.253C88.7677 229.204 87.5834 228.75 87.1616 227.754C86.7479 226.75 87.7213 225.348 88.7353 225.729C87.8835 224.328 85.231 225.51 84.29 224.174C83.5275 223.08 84.7443 221.727 85.0769 220.447C84.7199 220.115 84.1683 220.059 83.8033 219.735C83.0327 219.062 83.4951 217.782 84.1359 216.972C84.7767 216.17 85.596 215.271 85.3608 214.275C85.1174 213.254 83.8195 212.598 83.9088 211.553C83.9655 210.97 84.5334 210.492 85.1174 210.54C84.9633 208.523 88.7677 208.24 88.93 206.231C88.9462 206.069 88.93 205.899 88.8407 205.769C88.7677 205.656 88.6379 205.575 88.5163 205.518C87.9241 205.235 87.2346 205.267 86.5938 205.129C85.9529 205 85.2634 204.587 85.2066 203.93C85.1499 203.274 86.2044 202.788 86.4802 203.38C86.8209 202.553 88.062 202.286 88.7109 202.91C88.8732 202.213 89.6763 201.832 90.3901 201.889C91.1039 201.946 91.7366 202.335 92.345 202.707" fill="#263238"/>
<path d="M109.502 217.037C107.741 214.915 104.967 213.886 102.25 213.408C101.106 213.206 99.9136 213.092 98.8103 213.457C97.7153 213.821 96.7418 214.777 96.6851 215.935L97.7153 217.572C98.9077 220.407 102.201 221.606 104.521 223.623C105.527 224.506 106.573 225.648 107.912 225.551C108.609 225.502 109.25 225.097 109.729 224.587C111.635 222.602 111.262 219.159 109.502 217.037Z" fill="#DE6164"/>
<path d="M116.283 229.488C116.754 226.644 114.831 223.607 112.065 222.797C112.39 221.014 110.994 219.281 109.323 218.592C107.652 217.904 105.77 218.001 103.961 218.106C101.203 214.882 95.7198 214.518 92.5562 217.345C89.1654 215.579 84.8986 217.304 82.173 219.986C81.5079 220.642 80.8751 221.363 80.0559 221.8C79.4475 222.124 78.7742 222.27 78.1333 222.513C74.6047 223.833 72.5849 227.9 72.9499 231.642C73.0067 232.242 73.1202 232.849 73.0148 233.441C72.885 234.218 72.4064 234.891 72.09 235.612C71.3924 237.167 71.4168 239.03 72.1631 240.569C72.7958 241.873 73.9314 243.007 74.0125 244.457C74.0531 245.186 73.8179 245.915 73.9395 246.628C74.2721 248.71 77.1843 249.455 77.8008 251.464C77.9306 251.877 77.9468 252.307 78.036 252.728C78.2226 253.587 78.7417 254.364 79.4475 254.883C79.9991 255.28 80.6805 255.547 81.0374 256.13C81.3051 256.568 81.3375 257.11 81.4835 257.596C81.8486 258.803 86.448 261.728 87.7053 261.817L115.918 247.009C117.808 245.437 118.506 242.586 117.549 240.318C117.386 239.937 117.184 239.548 117.257 239.143C117.313 238.803 117.565 238.528 117.76 238.236C119.049 236.3 117.93 233.7 116.64 231.764C116.462 231.496 116.275 231.213 116.194 230.897C116.072 230.435 116.202 229.957 116.283 229.488Z" fill="#263238"/>
<path d="M108.261 233.846C105.673 228.839 99.4917 224.805 93.2456 225.024C89.3114 225.162 86.8779 226.458 85.1419 227.146C81.2483 228.686 79.269 232.088 79.269 232.088C77.9143 233.279 75.0346 241.509 77.7683 247.292C80.8021 253.724 84.7607 261.452 88.0541 265.681C94.6814 274.186 102.485 271.432 102.485 271.432C102.477 271.416 105.965 278.625 105.965 278.625L115.715 286.872L124.403 272.728L126.293 269.674L108.261 233.846Z" fill="#AE7461"/>
<path d="M100.505 256.916C100.221 256.478 99.7591 256.195 99.2967 256.065C98.3639 255.814 97.3742 256.227 96.8956 257.054C96.4251 257.88 96.7334 258.755 97.3174 259.613C97.9745 259.97 98.5261 260.367 99.2318 260.099C99.3373 260.059 99.4508 260.01 99.5482 259.962C100.051 259.702 100.489 259.281 100.692 258.722C100.903 258.163 100.862 257.459 100.505 256.916Z" fill="#6F4439"/>
<path d="M84.8416 253.676C85.1661 254.316 85.9854 254.575 86.6587 254.251C87.3401 253.927 87.624 253.141 87.2995 252.493C86.975 251.853 86.1557 251.594 85.4824 251.918C84.8011 252.25 84.5171 253.036 84.8416 253.676Z" fill="#263238"/>
<path d="M81.8729 249.69C82.1082 249.763 82.6435 248.597 83.9333 247.892C85.215 247.171 86.521 247.309 86.5778 247.074C86.6102 246.968 86.302 246.766 85.726 246.693C85.1582 246.62 84.3065 246.709 83.5034 247.155C82.7003 247.6 82.1893 248.265 81.9703 248.783C81.7431 249.309 81.7594 249.666 81.8729 249.69Z" fill="#263238"/>
<path d="M95.0136 255.701C94.9811 255.628 94.1051 255.928 92.7098 256.478C92.361 256.624 92.0122 256.73 91.8338 256.535C91.6228 256.341 91.5661 255.911 91.5174 255.442C91.3876 254.478 91.2497 253.465 91.1118 252.404C90.4953 248.103 89.8626 244.635 89.6841 244.66C89.5138 244.684 89.8707 248.2 90.4791 252.501C90.6413 253.554 90.7873 254.567 90.9333 255.531C91.0145 255.976 91.0307 256.511 91.4768 256.916C91.704 257.11 92.0366 257.159 92.2799 257.102C92.5233 257.054 92.7098 256.948 92.8802 256.875C94.2348 256.219 95.046 255.782 95.0136 255.701Z" fill="#263238"/>
<path d="M102.477 271.432C102.477 271.432 109.023 268.362 113.184 261.201C113.184 261.201 113.484 269.601 103.661 273.87L102.477 271.432Z" fill="#6F4439"/>
<path d="M80.1369 246.985C80.5263 247.179 81.3942 246.426 82.6029 245.891C83.7872 245.316 84.931 245.13 85.0283 244.708C85.0689 244.506 84.7687 244.271 84.1928 244.174C83.625 244.077 82.7813 244.158 81.9621 244.538C81.1428 244.919 80.5425 245.51 80.2505 246.004C79.9584 246.515 79.9584 246.887 80.1369 246.985Z" fill="#263238"/>
<path d="M99.1347 246.345C99.4835 246.977 99.232 247.795 98.575 248.167C97.9179 248.54 97.1067 248.329 96.766 247.697C96.4172 247.066 96.6687 246.247 97.3258 245.875C97.9747 245.502 98.794 245.713 99.1347 246.345Z" fill="#263238"/>
<path d="M99.7755 240.504C99.7025 240.739 98.437 240.52 97.1229 241.185C95.8007 241.825 95.1761 242.991 94.9571 242.902C94.8516 242.87 94.8597 242.505 95.1274 241.987C95.387 241.476 95.9467 240.828 96.766 240.415C97.5853 240.01 98.4289 239.961 98.9805 240.075C99.5321 240.172 99.816 240.391 99.7755 240.504Z" fill="#263238"/>
<path d="M97.0498 235.425C96.9443 235.855 95.7681 236.057 94.5432 236.648C93.3021 237.207 92.3936 237.977 91.9961 237.791C91.8177 237.693 91.8258 237.313 92.134 236.802C92.4342 236.3 93.0669 235.693 93.9105 235.296C94.7623 234.899 95.6221 234.801 96.1981 234.899C96.7902 234.988 97.0904 235.223 97.0498 235.425Z" fill="#263238"/>
<path d="M111.627 243.51C111.245 242.813 111.148 240.739 111.773 240.253C113.452 238.957 116.834 237.288 119.43 241.922C122.975 248.256 115.877 250.508 115.764 250.33C115.683 250.184 112.941 245.907 111.627 243.51Z" fill="#AE7461"/>
<path d="M116.218 247.033C116.234 247.001 116.372 247.049 116.607 247.033C116.834 247.017 117.183 246.896 117.443 246.588C117.978 245.964 117.946 244.587 117.337 243.429C117.029 242.845 116.599 242.359 116.145 242.019C115.691 241.663 115.212 241.509 114.839 241.638C114.458 241.752 114.336 242.084 114.352 242.303C114.368 242.529 114.482 242.635 114.45 242.659C114.441 242.683 114.255 242.627 114.158 242.343C114.117 242.205 114.101 242.011 114.182 241.808C114.263 241.598 114.45 241.412 114.701 241.306C115.212 241.063 115.902 241.274 116.405 241.646C116.94 242.003 117.435 242.537 117.775 243.194C118.449 244.49 118.465 246.053 117.694 246.831C117.313 247.195 116.867 247.268 116.591 247.228C116.315 247.179 116.202 247.058 116.218 247.033Z" fill="#6F4439"/>
<path d="M76.3974 248.159C77.241 246.653 77.46 245.105 76.5434 243.639C77.533 243.42 77.8007 241.849 77.8899 240.844C77.9792 239.832 78.3848 239.127 77.8575 238.26C77.7521 238.09 77.6385 237.912 77.6385 237.71C77.6304 237.394 77.89 237.151 78.109 236.924C79.2365 235.757 79.6989 233.991 79.2852 232.42C80.9806 232.266 82.6273 231.683 84.0468 230.743C85.2311 231.334 86.7237 231.278 87.8513 230.589C88.9869 229.901 89.7251 228.613 89.7413 227.284C90.5606 227.867 91.6719 227.924 92.6453 227.673C93.6188 227.422 94.5029 226.887 95.3628 226.369C95.9225 228.289 98.0803 229.585 100.043 229.18C100.311 229.123 100.611 229.05 100.83 229.204C101.057 229.366 101.082 229.69 101.122 229.965C101.366 231.723 103.345 233.027 105.056 232.566C104.456 233.943 105.592 235.749 107.092 235.814C107.401 235.83 107.798 235.83 107.904 236.114C107.944 236.219 107.928 236.349 107.912 236.462C107.782 237.353 107.693 238.301 108.066 239.111C108.439 239.929 109.461 240.52 110.264 240.115C110.053 240.707 109.924 241.395 110.224 241.954C110.516 242.513 111.392 242.764 111.797 242.286C111.968 242.084 114.799 239.718 114.831 239.451C115.285 236.017 111.538 234.567 109.688 231.634C107.839 228.702 105.17 226.353 102.209 224.554C100.968 223.801 99.6621 223.137 98.2587 222.732C96.6688 222.27 94.9978 222.173 93.343 222.084C91.1852 221.97 88.9788 221.881 86.8941 222.456C83.0166 223.534 80.1288 226.741 77.7439 229.982C76.8354 231.213 75.9512 232.485 75.4077 233.918C74.7507 235.628 74.6047 237.491 74.5884 239.322C74.5641 241.97 74.8237 244.668 75.8701 247.098" fill="#263238"/>
<path d="M73.9231 246.62C73.9231 246.62 73.842 246.32 73.8906 245.753C73.9069 245.47 73.9637 245.113 73.9718 244.7C73.9718 244.287 73.8907 243.809 73.6797 243.315C73.4688 242.821 73.1444 242.311 72.7874 241.76C72.4305 241.209 72.033 240.593 71.7978 239.84C71.5545 239.103 71.449 238.26 71.5382 237.377C71.5788 236.94 71.6761 236.486 71.8303 236.049C71.9763 235.603 72.2034 235.174 72.4224 234.753C72.6414 234.324 72.8605 233.878 72.9335 233.392C73.0065 232.906 72.9416 232.388 72.8767 231.861C72.755 230.8 72.8037 229.674 73.0714 228.556C73.3391 227.438 73.7933 226.312 74.499 225.308C74.8316 224.789 75.2615 224.336 75.7158 223.89C76.1944 223.477 76.7055 223.08 77.2895 222.78C77.5734 222.626 77.8817 222.505 78.1818 222.375C78.49 222.262 78.8064 222.173 79.1147 222.067C79.7393 221.873 80.3152 221.573 80.8181 221.136C81.3292 220.715 81.7753 220.196 82.2783 219.735C82.7731 219.257 83.3328 218.827 83.9087 218.43C84.4928 218.033 85.1174 217.693 85.7663 217.393C86.4234 217.102 87.1129 216.875 87.8267 216.713C89.2463 216.421 90.8119 216.454 92.1909 217.069C92.3288 217.134 92.4667 217.191 92.5965 217.256L92.4748 217.272C94.1621 215.773 96.4577 215.19 98.5668 215.376C100.692 215.555 102.712 216.502 104.034 218.05L103.945 218.017C104.918 217.961 105.876 217.912 106.825 217.969C107.766 218.033 108.707 218.212 109.542 218.6C110.378 218.997 111.091 219.605 111.578 220.342C112.065 221.079 112.308 221.978 112.146 222.829L112.081 222.724C113.493 223.137 114.612 224.093 115.342 225.186C116.072 226.28 116.445 227.535 116.413 228.71C116.421 229.001 116.372 229.293 116.332 229.569C116.283 229.844 116.226 230.111 116.202 230.379C116.186 230.638 116.218 230.897 116.315 231.124C116.413 231.359 116.559 231.561 116.697 231.772C117.248 232.614 117.67 233.441 117.954 234.226C118.23 235.012 118.368 235.757 118.335 236.405C118.311 237.053 118.124 237.588 117.913 237.977C117.703 238.374 117.459 238.617 117.362 238.819C117.256 239.022 117.24 239.143 117.232 239.135C117.232 239.135 117.232 239.014 117.338 238.803C117.427 238.592 117.67 238.333 117.865 237.944C118.068 237.556 118.238 237.029 118.254 236.389C118.278 235.749 118.141 235.02 117.857 234.243C117.573 233.473 117.143 232.655 116.591 231.829C116.453 231.618 116.307 231.407 116.194 231.164C116.08 230.921 116.04 230.63 116.064 230.354C116.08 230.079 116.145 229.803 116.186 229.528C116.218 229.253 116.267 228.977 116.259 228.686C116.283 227.543 115.91 226.32 115.196 225.259C114.482 224.198 113.387 223.274 112.024 222.878L111.943 222.853L111.959 222.772C112.105 221.978 111.878 221.128 111.408 220.423C110.937 219.718 110.248 219.127 109.453 218.754C108.642 218.382 107.733 218.204 106.808 218.147C105.876 218.09 104.926 218.139 103.953 218.195H103.904L103.872 218.155C102.59 216.656 100.619 215.733 98.5506 215.563C96.4902 215.385 94.2513 215.952 92.6208 217.41L92.564 217.458L92.491 217.426C92.3612 217.369 92.2315 217.304 92.0936 217.248C90.7551 216.648 89.2463 216.616 87.8592 216.899C87.1616 217.053 86.4883 217.28 85.8475 217.564C85.2066 217.863 84.5901 218.187 84.0223 218.584C83.4545 218.973 82.9029 219.394 82.4162 219.864C81.9132 220.326 81.4671 220.836 80.9398 221.274C80.6802 221.492 80.3963 221.695 80.0962 221.857C79.7961 222.019 79.4797 222.14 79.1633 222.246C78.847 222.351 78.5387 222.44 78.2386 222.553C77.9466 222.675 77.6464 222.788 77.3706 222.942C76.8028 223.226 76.308 223.615 75.8375 224.012C75.3994 224.441 74.9776 224.886 74.645 225.389C73.9474 226.369 73.5013 227.471 73.2336 228.572C72.9659 229.674 72.9091 230.776 73.0308 231.82C73.0876 232.347 73.1606 232.874 73.0795 233.392C72.9984 233.91 72.7712 234.372 72.5441 234.801C72.317 235.231 72.0979 235.644 71.9519 236.073C71.8059 236.503 71.7086 236.94 71.6599 237.369C71.5707 238.228 71.668 239.054 71.9033 239.783C72.1304 240.512 72.5116 241.128 72.8605 241.679C73.2093 242.238 73.5418 242.748 73.7446 243.258C73.9637 243.761 74.0367 244.255 74.0286 244.676C74.0123 245.097 73.9555 245.446 73.9231 245.729C73.8907 246.013 73.8907 246.231 73.8988 246.377C73.915 246.547 73.9231 246.62 73.9231 246.62Z" fill="#455A64"/>
<path d="M88.7921 217.588C88.7921 217.604 88.5731 217.58 88.1756 217.604C87.7863 217.62 87.2103 217.693 86.5614 217.96C85.9206 218.22 85.1905 218.681 84.6308 219.41C84.0711 220.131 83.6817 221.12 83.6655 222.181C83.6574 222.489 83.6817 222.797 83.7466 223.072C83.8115 223.347 83.9413 223.615 84.1603 223.72L84.4361 223.85L84.136 223.914C83.3167 224.101 82.6677 224.635 82.2946 225.227C81.9133 225.826 81.8241 226.474 81.8565 226.993C81.8971 227.519 82.0512 227.916 82.181 228.175C82.3108 228.434 82.4081 228.564 82.3919 228.572C82.3838 228.58 82.3595 228.548 82.3108 228.491C82.2621 228.434 82.1891 228.337 82.1161 228.216C81.962 227.965 81.7754 227.551 81.7186 227.009C81.6619 226.466 81.7349 225.777 82.1323 225.129C82.5217 224.49 83.2031 223.914 84.0873 223.704L84.0629 223.906C83.7466 223.752 83.6006 223.42 83.5276 223.121C83.4627 222.813 83.4383 222.497 83.4465 222.173C83.4627 221.063 83.8764 220.034 84.4685 219.289C85.0607 218.528 85.8232 218.066 86.4965 217.815C87.1698 217.564 87.7619 217.515 88.1594 217.515C88.3622 217.515 88.5163 217.531 88.6218 217.547C88.7354 217.564 88.7921 217.58 88.7921 217.588Z" fill="#455A64"/>
<path d="M103.134 219.24C103.142 219.248 103.117 219.37 103.036 219.589C102.955 219.807 102.817 220.123 102.59 220.48C102.355 220.836 102.022 221.241 101.527 221.557C101.041 221.865 100.376 222.076 99.686 221.946L99.8158 221.849C99.7996 221.97 99.7834 222.092 99.7753 222.213C99.7509 222.335 99.7185 222.456 99.6941 222.586C99.4913 223.323 99.102 223.971 98.6477 224.449C98.1935 224.935 97.6905 225.267 97.2363 225.47C96.782 225.672 96.3845 225.753 96.1087 225.794C95.8329 225.818 95.6788 225.81 95.6788 225.802C95.6707 225.753 96.3034 225.769 97.1714 225.34C97.6013 225.129 98.0799 224.789 98.5017 224.319C98.9316 223.858 99.2967 223.242 99.4913 222.537C99.5157 222.416 99.5481 222.302 99.5643 222.189C99.5806 222.076 99.5968 221.954 99.6049 221.849L99.6211 221.727L99.7347 221.752C100.359 221.873 100.976 221.687 101.438 221.411C101.909 221.136 102.241 220.755 102.485 220.415C102.939 219.718 103.101 219.224 103.134 219.24Z" fill="#455A64"/>
<path d="M109.737 223.299C109.745 223.299 109.761 223.339 109.786 223.428C109.802 223.517 109.826 223.647 109.81 223.817C109.794 224.149 109.607 224.643 109.153 225.057C108.707 225.478 107.993 225.729 107.222 225.85C106.833 225.915 106.435 225.98 105.997 226.004C105.576 226.021 105.081 225.988 104.675 225.688C104.643 225.664 104.61 225.632 104.578 225.607L104.756 225.567C104.408 226.385 104.002 227.146 103.491 227.73C102.988 228.329 102.363 228.718 101.804 228.896C101.244 229.083 100.749 229.066 100.425 229.002C100.262 228.969 100.141 228.929 100.068 228.888C99.9866 228.856 99.946 228.831 99.9541 228.823C99.9623 228.807 100.124 228.872 100.441 228.912C100.749 228.953 101.22 228.945 101.755 228.75C102.29 228.564 102.866 228.183 103.345 227.6C103.832 227.025 104.221 226.28 104.562 225.478L104.618 225.34L104.732 225.437C104.756 225.462 104.781 225.478 104.813 225.502C105.138 225.753 105.584 225.794 105.989 225.777C106.403 225.761 106.809 225.696 107.19 225.64C107.952 225.526 108.618 225.3 109.047 224.927C109.486 224.554 109.672 224.101 109.721 223.793C109.778 223.485 109.713 223.307 109.737 223.299Z" fill="#455A64"/>
<path d="M104.107 196.842C104.115 196.859 104.002 196.907 103.832 197.061C103.669 197.215 103.466 197.491 103.369 197.912C103.272 198.325 103.296 198.851 103.556 199.386C103.799 199.929 104.245 200.447 104.748 200.99L104.829 201.079L104.724 201.136C103.994 201.508 103.304 202.148 102.891 203.015C102.469 203.874 102.404 204.975 102.907 205.907C103.337 206.766 104.148 207.381 105 207.519L105.308 207.568L105.032 207.713C104.042 208.24 103.418 209.188 103.199 210.095C102.972 211.01 103.158 211.869 103.458 212.493C103.759 213.125 104.156 213.53 104.44 213.781C104.732 214.032 104.919 214.129 104.91 214.145C104.91 214.153 104.862 214.129 104.772 214.08C104.683 214.032 104.553 213.951 104.399 213.837C104.091 213.602 103.669 213.197 103.337 212.549C103.012 211.918 102.793 211.018 103.02 210.046C103.239 209.09 103.88 208.094 104.935 207.519L104.967 207.713C104.042 207.568 103.174 206.903 102.72 205.996C102.461 205.502 102.331 204.951 102.347 204.416C102.355 203.882 102.501 203.371 102.712 202.918C103.15 202.011 103.888 201.346 104.651 200.966L104.626 201.111C104.132 200.561 103.686 200.018 103.434 199.443C103.174 198.876 103.166 198.301 103.28 197.879C103.393 197.45 103.621 197.158 103.807 197.013C103.896 196.94 103.978 196.891 104.034 196.867C104.075 196.851 104.099 196.842 104.107 196.842Z" fill="#455A64"/>
<path d="M123.04 204.416C123.048 204.416 123.024 204.457 122.967 204.538C122.91 204.611 122.845 204.724 122.732 204.854C122.513 205.121 122.148 205.486 121.604 205.85C121.069 206.207 120.347 206.547 119.471 206.709C118.603 206.879 117.565 206.847 116.551 206.482L116.689 206.393C116.64 207.632 116.088 209.058 114.896 209.925C113.63 210.84 111.878 210.816 110.799 209.973L110.962 209.876C111.043 210.403 110.962 210.929 110.791 211.375C110.613 211.828 110.353 212.217 110.069 212.533C109.485 213.181 108.804 213.546 108.244 213.797C107.676 214.048 107.206 214.186 106.881 214.283C106.557 214.372 106.378 214.412 106.378 214.404C106.378 214.396 106.549 214.331 106.857 214.218C107.173 214.105 107.636 213.951 108.187 213.683C108.731 213.416 109.388 213.043 109.94 212.42C110.475 211.804 110.921 210.889 110.759 209.9L110.718 209.649L110.921 209.803C111.919 210.581 113.582 210.597 114.766 209.738C115.894 208.92 116.429 207.568 116.478 206.377L116.486 206.239L116.616 206.288C117.589 206.644 118.587 206.693 119.43 206.539C120.282 206.401 120.988 206.077 121.523 205.745C122.618 205.064 123.008 204.376 123.04 204.416Z" fill="#455A64"/>
<path d="M121.467 217.377C121.475 217.377 121.483 217.434 121.459 217.531C121.426 217.628 121.345 217.766 121.183 217.888C120.866 218.123 120.339 218.341 119.65 218.422C118.968 218.503 118.1 218.414 117.289 217.961C116.486 217.515 115.756 216.713 115.431 215.684L115.423 215.66L115.618 215.692C115.01 216.575 114.117 217.15 113.257 217.442C112.39 217.742 111.546 217.758 110.864 217.669C110.183 217.58 109.656 217.393 109.307 217.24C108.958 217.086 108.78 216.972 108.788 216.964C108.804 216.916 109.55 217.369 110.889 217.515C111.554 217.58 112.365 217.555 113.201 217.256C114.028 216.964 114.872 216.405 115.448 215.571L115.569 215.393L115.642 215.603L115.65 215.619C115.959 216.583 116.64 217.353 117.403 217.782C118.165 218.22 118.993 218.325 119.65 218.268C120.315 218.212 120.842 218.009 121.15 217.815C121.45 217.612 121.442 217.369 121.467 217.377Z" fill="#455A64"/>
<path d="M90.3009 204.692C90.3496 204.676 90.3496 205.607 91.0877 206.806C91.4528 207.397 92.0206 208.029 92.8155 208.491C93.6105 208.945 94.6245 209.204 95.679 209.123C96.2712 209.074 96.839 208.928 97.3419 208.702L97.4636 208.645L97.488 208.775C97.6583 209.609 97.9909 210.354 98.3803 210.954C98.7777 211.553 99.2158 212.031 99.6295 212.371C99.8323 212.541 100.027 212.695 100.205 212.8C100.384 212.906 100.562 212.93 100.684 212.873C100.814 212.817 100.879 212.728 100.895 212.655C100.911 212.582 100.903 212.541 100.911 212.541C100.911 212.541 100.944 212.582 100.927 212.663C100.919 212.744 100.854 212.865 100.708 212.938C100.562 213.019 100.343 212.995 100.149 212.89C99.9539 212.784 99.7593 212.647 99.5402 212.476C99.1103 212.144 98.6398 211.666 98.2261 211.059C97.8124 210.443 97.4555 209.682 97.277 208.815L97.4231 208.888C96.9039 209.131 96.3117 209.285 95.6871 209.333C94.5839 209.414 93.5213 209.139 92.702 208.653C91.8746 208.159 91.3068 207.487 90.9417 206.871C90.5767 206.255 90.4145 205.68 90.3415 205.291C90.309 205.097 90.2928 204.943 90.2847 204.838C90.2928 204.749 90.2928 204.692 90.3009 204.692Z" fill="#455A64"/>
<path d="M99.5242 255.142C99.3214 255.19 99.7351 256.527 98.8833 257.831C98.0397 259.135 96.5633 259.427 96.612 259.621C96.6201 259.711 97.0095 259.783 97.6179 259.613C98.2182 259.451 99.0212 258.998 99.5404 258.196C100.06 257.402 100.116 256.527 99.9946 255.968C99.8648 255.385 99.6134 255.101 99.5242 255.142Z" fill="#263238"/>
<path d="M105.802 278.074C105.802 278.074 111.521 315.888 118.432 322.514C125.83 329.602 139.117 333.093 139.117 333.093C139.117 333.093 156.809 340.076 162.958 338.553L174.079 300.48C174.079 300.48 173.585 298.285 171.062 298.196C169.959 298.156 166.779 299.638 165.343 299.29C159.584 297.904 146.086 277.281 146.086 277.281C146.086 277.281 133.261 259.63 122.326 261.217C114.831 262.311 111.724 265.64 108.901 273.19C108.22 275.02 107.173 276.689 105.802 278.074Z" fill="#DE6164"/>
<path d="M105.802 278.074L100.814 303.291L77.7598 296.754L73.7769 310.193L112.778 327.779L120.452 295.895L105.802 278.074Z" fill="#DE6164"/>
<path d="M157.945 322.554C157.84 322.514 159.535 317.791 161.733 312.007C163.932 306.224 165.805 301.574 165.919 301.614C166.024 301.655 164.329 306.378 162.131 312.161C159.932 317.945 158.059 322.595 157.945 322.554Z" fill="#263238"/>
<path d="M157.515 317.265C157.41 317.224 158.359 314.373 159.641 310.906C160.922 307.431 162.05 304.652 162.155 304.693C162.261 304.733 161.312 307.576 160.03 311.052C158.756 314.527 157.629 317.305 157.515 317.265Z" fill="#263238"/>
<path d="M105.202 285.373C105.324 285.373 105.405 288.014 105.535 291.27C105.599 292.898 105.672 294.373 105.737 295.434C105.802 296.495 105.859 297.151 105.802 297.167C105.745 297.175 105.583 296.527 105.445 295.466C105.299 294.405 105.186 292.923 105.121 291.286C105.056 289.65 105.048 288.176 105.072 287.106C105.088 286.029 105.137 285.373 105.202 285.373Z" fill="#263238"/>
<g opacity="0.3">
<path d="M92.5068 318.634L101.097 314.907L105.802 298.269L102.598 318.771L96.2707 320.335L92.5068 318.634Z" fill="black"/>
</g>
<g opacity="0.3">
<path d="M164.215 304.887C163.648 304.555 162.917 304.798 162.455 305.276C161.985 305.754 161.717 306.426 161.457 307.074C159.762 311.367 158.058 315.653 156.363 319.946C156.12 320.562 155.876 321.21 155.941 321.874C156.014 322.538 156.533 323.194 157.134 323.105C157.693 323.024 158.026 322.4 158.269 321.85C160.687 316.414 162.755 310.784 164.442 305.017" fill="black"/>
</g>
<path d="M42.0435 300.124C42.0435 300.124 45.1503 295.985 46.9754 295.094C48.4275 294.389 57.0665 292.866 58.1211 293.068C59.1756 293.271 77.7598 297.337 77.7598 297.337L75.3506 305.446L74.1662 304.895C74.1662 304.895 70.4105 306.775 67.5551 305.875C64.6916 304.976 61.0332 302.457 61.0332 302.457L58.478 303.413C58.478 303.413 61.2847 304.288 61.4956 305.454C61.7065 306.612 60.1085 306.742 60.1085 306.742L59.9949 307.252C59.7921 308.143 58.916 308.719 58.0156 308.532C56.3689 308.2 53.9922 307.641 53.4568 307.05C53.2378 306.807 52.1102 304.741 52.1102 304.741C50.3743 303.518 50.3986 302.303 50.496 301.558C50.6906 300.075 52.2725 298.407 52.2725 298.407L49.1413 298.237C49.1332 298.237 44.0795 303.413 42.0435 300.124Z" fill="#AE7461"/>
<path d="M68.1472 298.763C64.3752 298.763 60.7979 298.261 57.9912 298.958C57.253 299.144 56.4986 299.411 55.9632 299.954C55.4278 300.497 55.1845 301.388 55.5657 302.044C55.8983 302.611 56.5878 302.862 57.2368 302.902C57.8857 302.943 58.5428 302.805 59.1917 302.789C60.7654 302.749 62.258 303.413 63.6532 304.134C65.0485 304.863 66.4194 305.681 67.9606 306.005C69.4937 306.337 73.1035 306.045 74.1661 304.887" fill="#AE7461"/>
<path d="M74.1662 304.895C74.1743 304.903 74.1013 305 73.931 305.162C73.7525 305.308 73.4524 305.503 73.0387 305.665C72.2113 305.989 70.9458 306.272 69.364 306.288C68.5772 306.305 67.6768 306.183 66.8007 305.859C65.9165 305.543 65.0323 305.09 64.1238 304.604C63.2072 304.126 62.2581 303.623 61.2035 303.299C60.6763 303.137 60.1328 303.032 59.5731 303.008C59.0134 302.975 58.4455 303.073 57.829 303.113C57.2207 303.154 56.5555 303.097 55.9958 302.757C55.4198 302.441 55.0791 301.728 55.1846 301.104C55.2657 300.48 55.6226 299.93 56.085 299.581C56.5474 299.225 57.0746 299.022 57.5776 298.876C59.6299 298.318 61.5361 298.431 63.0936 298.471C64.6024 298.552 65.8516 298.625 66.7926 298.674C67.6687 298.723 68.1473 298.747 68.1473 298.779C68.1473 298.795 68.0256 298.804 67.7985 298.82C67.5713 298.836 67.2306 298.844 66.7926 298.844C65.9165 298.852 64.6511 298.804 63.0855 298.779C61.5361 298.771 59.6461 298.706 57.6911 299.265C57.2125 299.411 56.7339 299.606 56.3365 299.913C55.939 300.221 55.6632 300.667 55.5983 301.169C55.5253 301.663 55.7605 302.157 56.2148 302.416C56.6609 302.684 57.2288 302.749 57.8047 302.708C58.3806 302.676 58.9809 302.57 59.5893 302.603C60.1896 302.627 60.7736 302.749 61.3252 302.919C62.4284 303.259 63.4019 303.785 64.3104 304.271C66.1112 305.276 67.8066 306.062 69.3721 305.997C70.9215 306.021 72.1707 305.786 72.99 305.519C73.8093 305.235 74.1419 304.863 74.1662 304.895Z" fill="#6F4439"/>
<path d="M56.0851 297.896C56.1013 297.945 55.7363 298.123 55.1036 298.237C54.4709 298.358 53.5948 298.439 52.6295 298.463C50.6908 298.512 49.1333 298.358 49.1333 298.245C49.1333 298.123 50.6989 298.091 52.6133 298.042C53.5705 298.018 54.4384 297.985 55.063 297.937C55.6876 297.896 56.0689 297.832 56.0851 297.896Z" fill="#6F4439"/>
<path d="M60.2383 306.742C60.2626 306.839 58.2509 307.163 55.8579 306.523C53.4649 305.908 51.8669 304.636 51.9399 304.563C52.0048 304.45 53.6596 305.527 55.9634 306.118C58.2671 306.734 60.2302 306.613 60.2383 306.742Z" fill="#6F4439"/>
<path d="M55.0466 302.514C55.0629 302.4 55.9065 302.416 56.9123 302.668C57.9182 302.919 58.6726 303.307 58.6239 303.413C58.5834 303.526 57.7803 303.324 56.8069 303.081C55.8335 302.83 55.0304 302.635 55.0466 302.514Z" fill="#6F4439"/>
<path d="M16.897 308.873L37.3631 298.868C37.6957 298.706 38.0931 298.739 38.4014 298.949L60.9036 313.231C61.4227 313.595 61.5201 314.34 61.1145 314.826L49.2225 330.72L16.897 308.873Z" fill="#263238"/>
<path d="M19.4443 309.61L46.9921 327.722L59.5086 313.79L37.8257 300.343L19.4443 309.61Z" fill="#FDFCF7"/>
<path d="M30.1519 304.207L53.7979 320.14L46.992 327.722L19.4443 309.61L30.1519 304.207Z" fill="#DCDACE"/>
<path d="M42.2386 304.676L38.6207 307.609C38.3773 307.803 38.0285 307.763 37.8338 307.528C37.6392 307.285 37.6797 306.937 37.915 306.742L41.5328 303.81C41.7762 303.615 42.125 303.656 42.3197 303.891C42.5144 304.134 42.4819 304.482 42.2386 304.676Z" fill="#DCDACE"/>
<path d="M43.8767 306.005L40.2589 308.937C40.0155 309.132 39.6667 309.099 39.472 308.856C39.2773 308.621 39.3179 308.265 39.5531 308.071L43.171 305.138C43.4063 304.944 43.7632 304.984 43.9579 305.219C44.1525 305.462 44.112 305.811 43.8767 306.005Z" fill="#DCDACE"/>
<path d="M45.6292 307.568L42.0113 310.501C41.768 310.695 41.4191 310.655 41.2245 310.42C41.0298 310.177 41.0703 309.828 41.3056 309.634L44.9235 306.702C45.1587 306.507 45.5156 306.54 45.7103 306.783C45.905 307.018 45.8644 307.374 45.6292 307.568Z" fill="#DCDACE"/>
<path d="M46.3429 309.683L44.2906 311.343C44.0473 311.538 43.6984 311.497 43.5038 311.262C43.3091 311.019 43.3496 310.671 43.5849 310.476L45.6372 308.816C45.8805 308.621 46.2293 308.662 46.424 308.897C46.6187 309.132 46.5862 309.488 46.3429 309.683Z" fill="#DCDACE"/>
<path d="M39.2047 304.19L36.8198 305.859C36.5684 306.037 36.2196 305.973 36.0411 305.721C35.8626 305.47 35.9275 305.122 36.179 304.944L38.5639 303.275C38.8153 303.097 39.1641 303.162 39.3426 303.413C39.5129 303.664 39.4562 304.012 39.2047 304.19Z" fill="#DE6164"/>
<path d="M51.4939 312.169L49.4335 314.227C49.2145 314.446 48.8657 314.446 48.6467 314.227C48.4277 314.008 48.4277 313.66 48.6467 313.441L50.7071 311.384C50.9261 311.165 51.2749 311.165 51.4939 311.384C51.7048 311.602 51.7048 311.959 51.4939 312.169Z" fill="#DE6164"/>
<path d="M49.2145 330.72C48.6791 331.562 47.5597 331.805 46.716 331.27L16.6293 312.048C15.7857 311.513 15.5423 310.395 16.0777 309.553C16.6131 308.711 17.7325 308.468 18.5762 309.002L48.671 328.233C49.5065 328.767 49.758 329.885 49.2145 330.72Z" fill="#263238"/>
<path d="M280.271 271.813L281.147 250.411C281.147 250.411 303.09 245.664 303.633 241.727L262.279 236.988L259.538 270.282L280.271 271.813Z" fill="#455A64"/>
<g opacity="0.6">
<path d="M268.177 251.213C267.39 250.93 266.903 249.99 267.154 249.188C267.406 248.394 268.363 247.892 269.15 248.159C269.945 248.427 270.561 249.544 270.221 250.306C269.888 251.067 268.728 251.594 268.022 251.148" fill="#FDFCF7"/>
</g>
<path d="M262.279 236.98L262.003 240.334L302.1 243.526C302.1 243.526 303.495 243.096 303.885 241.444L262.279 236.98Z" fill="#263238"/>
<path d="M281.805 250.67C281.813 250.468 280.807 250.298 279.858 249.569C278.892 248.864 278.446 247.949 278.252 248.013C278.065 248.038 278.268 249.269 279.436 250.136C280.588 251.002 281.829 250.857 281.805 250.67Z" fill="#263238"/>
<path d="M286.29 249.204C286.355 249.01 285.503 248.597 284.879 247.689C284.23 246.798 284.124 245.859 283.922 245.851C283.735 245.802 283.5 246.977 284.295 248.094C285.09 249.22 286.274 249.399 286.29 249.204Z" fill="#263238"/>
<path d="M289.17 244.19C288.992 244.133 288.627 245.121 289.065 246.272C289.495 247.422 290.411 247.932 290.509 247.77C290.638 247.616 290.062 246.968 289.722 246.021C289.357 245.089 289.365 244.23 289.17 244.19Z" fill="#263238"/>
<path d="M281.058 255.523C280.985 255.328 280.036 255.539 278.901 255.377C277.757 255.231 276.897 254.785 276.775 254.947C276.645 255.085 277.457 255.903 278.803 256.073C280.15 256.26 281.148 255.693 281.058 255.523Z" fill="#263238"/>
<g opacity="0.3">
<path d="M280.271 271.813L281.147 250.411C281.147 250.411 303.09 245.664 303.633 241.727L262.279 236.988L259.538 270.282L280.271 271.813Z" fill="black"/>
</g>
<path d="M283.743 256.114C283.41 256.778 280.92 318.925 280.92 318.925L259.497 310.485C259.497 310.485 255.709 303.421 256.374 293.749C257.039 284.077 262.717 254.397 262.717 254.397L283.743 256.114Z" fill="#263238"/>
<path d="M278.032 273.174L267.674 254.413C267.674 254.413 283.97 238.998 282.396 235.344L244.563 252.687L259.497 282.578L278.032 273.174Z" fill="#455A64"/>
<g opacity="0.6">
<path d="M256.998 261.817C256.179 261.987 255.279 261.428 255.076 260.618C254.873 259.808 255.433 258.884 256.252 258.706C257.063 258.528 258.175 259.16 258.28 259.986C258.386 260.812 257.672 261.865 256.836 261.841" fill="#FDFCF7"/>
</g>
<path d="M244.571 252.687L246.08 255.701L282.023 237.677C282.023 237.677 282.988 236.592 282.469 234.98L244.571 252.687Z" fill="#263238"/>
<path d="M268.371 254.291C268.274 254.113 267.325 254.486 266.14 254.356C264.948 254.259 264.096 253.7 263.958 253.862C263.812 253.983 264.623 254.931 266.067 255.061C267.511 255.207 268.493 254.437 268.371 254.291Z" fill="#263238"/>
<path d="M271.453 250.719C271.405 250.525 270.464 250.614 269.458 250.152C268.444 249.723 267.868 248.977 267.69 249.075C267.503 249.131 267.917 250.257 269.174 250.8C270.431 251.359 271.535 250.897 271.453 250.719Z" fill="#263238"/>
<path d="M271.308 244.943C271.121 244.992 271.332 246.021 272.297 246.774C273.263 247.535 274.317 247.495 274.317 247.309C274.342 247.106 273.522 246.855 272.735 246.223C271.94 245.608 271.502 244.87 271.308 244.943Z" fill="#263238"/>
<path d="M270.261 258.836C270.099 258.706 269.393 259.378 268.339 259.824C267.284 260.294 266.319 260.35 266.303 260.553C266.262 260.739 267.382 261.015 268.623 260.472C269.856 259.937 270.416 258.933 270.261 258.836Z" fill="#263238"/>
<g opacity="0.3">
<path d="M275.98 269.455L274.139 266.11L255.96 275.49L257.493 278.569L275.98 269.455Z" fill="black"/>
</g>
<path d="M174.08 300.48L180.066 298.577C180.066 298.577 191.09 289.739 203.444 290.906C215.799 292.072 225.817 297.872 225.817 297.872L238.674 304.911L271.738 313.749L252.699 268.896L271.494 261.112C271.494 261.112 290.281 291.327 295.96 299.832C301.638 308.338 305.953 316.924 306.627 323.931C307.292 330.938 302.019 340.748 287.491 342.409C272.963 344.077 210.786 339.93 210.786 339.93L162.95 338.553L174.08 300.48Z" fill="#263238"/>
<path d="M174.08 300.48C174.08 300.48 174.023 300.707 173.901 301.137C173.779 301.574 173.593 302.214 173.358 303.064C172.871 304.766 172.149 307.269 171.208 310.525C169.318 317.038 166.56 326.556 163.072 338.585L162.958 338.431C172.822 338.707 184.341 339.023 197.231 339.379C210.129 339.525 224.365 340.699 239.712 341.412C247.386 341.793 255.336 342.141 263.529 342.384C267.625 342.498 271.778 342.587 275.988 342.595C278.097 342.587 280.215 342.595 282.34 342.506C283.403 342.482 284.473 342.449 285.536 342.352C286.607 342.279 287.677 342.206 288.732 342.012C292.958 341.388 297.193 339.849 300.551 337.022C303.909 334.251 306.253 330.088 306.448 325.632C306.505 325.082 306.424 324.523 306.416 323.972C306.343 323.421 306.294 322.862 306.189 322.311C305.994 321.21 305.751 320.108 305.426 319.022C304.801 316.852 303.974 314.729 303.025 312.647C301.127 308.492 298.774 304.506 296.219 300.618C291.798 293.935 287.613 287.228 283.459 280.65C279.338 274.057 275.283 267.568 271.308 261.209L271.559 261.29C265.159 263.939 258.889 266.531 252.764 269.067L252.87 268.799C259.643 284.782 266.019 299.824 271.884 313.66L272.03 314L271.673 313.903C259.724 310.703 248.676 307.738 238.617 305.041L238.601 305.033L238.585 305.025C235.153 303.145 231.852 301.331 228.672 299.589C227.074 298.731 225.541 297.832 224 297.062C222.45 296.292 220.893 295.604 219.352 294.996C213.187 292.574 207.249 291.173 201.911 290.922C199.242 290.841 196.744 291.181 194.481 291.708C192.218 292.258 190.19 293.012 188.373 293.789C184.755 295.385 182.013 297.135 180.066 298.593L180.058 298.601H180.05C178.014 299.233 176.521 299.703 175.524 300.011C174.566 300.343 174.08 300.48 174.08 300.48C174.08 300.48 174.542 300.318 175.532 299.994C176.529 299.67 178.022 299.192 180.058 298.528L180.042 298.536C181.989 297.054 184.722 295.28 188.34 293.668C190.157 292.874 192.193 292.113 194.465 291.546C196.744 291.003 199.259 290.654 201.944 290.727C207.314 290.962 213.276 292.347 219.473 294.77C221.023 295.385 222.58 296.066 224.146 296.835C225.711 297.613 227.244 298.504 228.834 299.363C232.014 301.096 235.324 302.902 238.755 304.782L238.723 304.766C248.781 307.447 259.838 310.395 271.786 313.579L271.575 313.822C265.694 299.986 259.31 284.952 252.521 268.977L252.44 268.791L252.626 268.71C258.759 266.175 265.021 263.574 271.421 260.926L271.584 260.861L271.673 261.007C275.648 267.357 279.704 273.846 283.832 280.44C287.986 287.017 292.179 293.725 296.592 300.399C299.156 304.296 301.516 308.297 303.422 312.485C304.372 314.575 305.207 316.722 305.84 318.917C306.164 320.011 306.416 321.129 306.61 322.255C306.716 322.814 306.765 323.381 306.838 323.948C306.846 324.523 306.927 325.09 306.87 325.665C306.667 330.258 304.25 334.519 300.819 337.354C297.387 340.246 293.08 341.793 288.797 342.425C287.726 342.627 286.647 342.692 285.568 342.773C284.49 342.87 283.419 342.903 282.356 342.927C280.223 343.016 278.097 343 275.988 343.008C271.77 343 267.609 342.903 263.512 342.789C255.319 342.546 247.37 342.182 239.696 341.793C224.34 341.072 210.12 339.873 197.223 339.703C184.333 339.314 172.822 338.974 162.958 338.674L162.804 338.666L162.845 338.52C166.39 326.483 169.188 316.965 171.103 310.452C172.06 307.212 172.806 304.717 173.301 303.024C173.552 302.19 173.739 301.558 173.869 301.12C174.007 300.691 174.08 300.48 174.08 300.48Z" fill="#455A64"/>
<path d="M269.458 313.028C269.466 312.996 269.742 313.036 270.229 313.125C270.716 313.214 271.421 313.368 272.289 313.579C274.009 314.016 276.41 314.656 278.876 315.847C281.358 317.005 283.305 318.666 284.408 320.076C284.7 320.416 284.927 320.756 285.122 321.048C285.325 321.339 285.487 321.598 285.601 321.825C285.836 322.263 285.958 322.514 285.933 322.53C285.86 322.57 285.341 321.598 284.181 320.27C283.037 318.933 281.131 317.37 278.698 316.228C276.272 315.061 273.912 314.373 272.216 313.871C270.505 313.376 269.442 313.093 269.458 313.028Z" fill="#455A64"/>
<path d="M63.0044 327.155C63.0044 327.155 54.5276 322.344 52.8728 322.246C50.5122 322.101 40.1291 322.457 38.8556 322.376C37.7199 322.303 37.2413 323.502 37.728 324.312C38.2066 325.122 39.3828 326.434 42.5951 326.353C45.8074 326.272 47.6569 326.831 48.4599 327.155C49.263 327.479 49.0359 328.46 49.0359 328.46C49.0359 328.46 44.3716 328.703 43.0169 328.387C41.1593 327.949 35.0024 323.777 35.0024 323.777L32.5446 322.206C32.5446 322.206 31.5144 323.453 33.1205 325.786C34.7266 328.111 36.7384 330.201 36.7384 330.201C36.7384 330.201 34.532 331.586 36.4626 333.709C36.4626 333.709 35.043 336.382 38.2715 337.937C38.2715 337.937 38.9853 339.808 40.3806 340.918C41.3621 341.704 43.8443 341.558 45.3693 341.647C47.1053 341.753 50.9097 341.38 52.167 341.113C55.647 340.384 58.1454 339.533 58.1454 339.533L65.8192 339.97L66.5168 326.904L63.0044 327.155Z" fill="#AE7461"/>
<path d="M41.6296 332.907C41.589 333.012 40.2181 332.591 38.6688 331.748C37.1194 330.914 36.0081 330.007 36.073 329.918C36.146 329.82 37.3385 330.558 38.8635 331.376C40.3966 332.202 41.6702 332.801 41.6296 332.907Z" fill="#6F4439"/>
<path d="M40.6078 335.839C40.5754 335.944 39.456 335.701 38.2149 335.045C36.9737 334.397 36.1301 333.611 36.2031 333.53C36.2761 333.433 37.2009 334.041 38.4095 334.673C39.6182 335.305 40.6484 335.718 40.6078 335.839Z" fill="#6F4439"/>
<path d="M40.7942 338.974C40.7699 339.079 39.7721 338.942 38.6608 338.391C37.5576 337.84 36.8437 337.127 36.9167 337.038C36.9897 336.941 37.7928 337.484 38.8555 338.01C39.9019 338.545 40.8185 338.853 40.7942 338.974Z" fill="#6F4439"/>
<g opacity="0.3">
<path d="M125.62 327.463C129.951 321.817 132.174 314.786 133.082 307.738C133.983 300.683 133.772 293.984 133.423 286.88C131.923 301.234 129.351 314.543 125.62 327.463Z" fill="black"/>
</g>
<path d="M134.169 278.65C134.242 279.37 134.185 277.078 134.161 277.88C133.958 287.56 128.24 328.824 120.825 336.852C115.163 342.984 62.0796 340.375 62.0796 340.375L62.6636 326.572C62.6636 326.572 64.0994 326.159 73.6308 324.968C83.1622 323.777 102.598 318.779 102.598 318.779L109.144 275.604" fill="#DE6164"/>
<path d="M109.144 275.596C109.144 275.596 109.12 275.863 109.055 276.373C108.982 276.9 108.877 277.653 108.739 278.641C108.447 280.642 108.017 283.567 107.473 287.309C106.354 294.826 104.74 305.616 102.777 318.796L102.76 318.909L102.655 318.933C96.9685 320.383 90.7468 321.89 84.0626 323.3C80.7206 323.996 77.2649 324.677 73.6714 325.155C70.1022 325.624 66.3951 326.046 62.7367 326.758L62.8827 326.572C62.6961 330.971 62.5014 335.629 62.3068 340.375L62.104 340.157C65.8516 340.327 69.8264 340.456 73.858 340.554C81.4506 340.732 88.873 340.772 96.0276 340.578C99.6049 340.473 103.117 340.311 106.549 340.035C109.972 339.744 113.338 339.379 116.518 338.601C117.305 338.399 118.084 338.172 118.83 337.864C119.56 337.556 120.29 337.2 120.785 336.625C121.815 335.442 122.578 334.049 123.226 332.648C124.524 329.837 125.457 326.953 126.285 324.158C127.915 318.553 129.051 313.223 130.008 308.346C131.882 298.585 132.944 290.606 133.561 285.081C133.869 282.319 134.048 280.164 134.121 278.706C134.137 278.342 134.153 278.018 134.169 277.742V277.71C134.169 277.718 134.161 277.686 134.21 277.677C134.234 277.686 134.226 277.686 134.234 277.694C134.242 277.718 134.234 277.71 134.242 277.718L134.25 277.775L134.259 277.872C134.259 277.937 134.259 277.993 134.267 278.058C134.267 278.172 134.267 278.277 134.267 278.374C134.25 278.56 134.291 278.706 134.226 278.803C134.202 278.698 134.21 278.658 134.21 278.658C134.21 278.658 134.218 278.706 134.234 278.795C134.218 278.714 134.226 278.56 134.218 278.382C134.218 278.285 134.21 278.18 134.202 278.066C134.202 278.01 134.194 277.945 134.194 277.88L134.186 277.783L134.177 277.734C134.169 277.726 134.177 277.734 134.234 277.726V277.75C134.226 278.034 134.218 278.35 134.21 278.714C134.161 280.181 134.007 282.335 133.731 285.106C133.163 290.638 132.141 298.634 130.308 308.411C129.375 313.295 128.248 318.634 126.633 324.264C125.806 327.074 124.881 329.966 123.575 332.818C122.926 334.235 122.156 335.653 121.085 336.9C120.525 337.548 119.747 337.921 118.992 338.237C118.23 338.553 117.435 338.788 116.632 338.99C113.411 339.784 110.037 340.149 106.605 340.448C103.166 340.732 99.6454 340.902 96.06 341.007C88.8892 341.21 81.4669 341.169 73.8661 340.991C69.8345 340.894 65.8597 340.764 62.104 340.586L61.8931 340.578L61.9012 340.367C62.104 335.62 62.2987 330.963 62.4933 326.564L62.5015 326.402L62.6394 326.37C64.5294 325.965 66.3627 325.738 68.2041 325.471C70.0373 325.227 71.8544 324.993 73.639 324.766C77.2082 324.296 80.6638 323.615 83.9978 322.927C90.6738 321.534 96.9036 320.035 102.582 318.609L102.46 318.747C104.488 305.584 106.151 294.794 107.303 287.285C107.887 283.55 108.349 280.626 108.658 278.633C108.82 277.653 108.942 276.9 109.023 276.373C109.088 275.855 109.144 275.596 109.144 275.596Z" fill="#263238"/>
</g>
<defs>
<clipPath id="clip0_124_2139">
<rect width="361" height="343" fill="white"/>
</clipPath>
</defs>
</svg>
