<svg width="31" height="30" viewBox="0 0 31 30" fill="none" xmlns="http://www.w3.org/2000/svg">
<path d="M26.75 8.75V23.75C26.75 24.4375 26.5054 25.0263 26.0163 25.5163C25.5271 26.0063 24.9383 26.2508 24.25 26.25H6.75C6.0625 26.25 5.47417 26.0054 4.985 25.5163C4.49583 25.0271 4.25083 24.4383 4.25 23.75V6.25C4.25 5.5625 4.495 4.97417 4.985 4.485C5.475 3.99583 6.06333 3.75083 6.75 3.75H21.75L26.75 8.75ZM15.5 22.5C16.5417 22.5 17.4271 22.1354 18.1562 21.4062C18.8854 20.6771 19.25 19.7917 19.25 18.75C19.25 17.7083 18.8854 16.8229 18.1562 16.0938C17.4271 15.3646 16.5417 15 15.5 15C14.4583 15 13.5729 15.3646 12.8438 16.0938C12.1146 16.8229 11.75 17.7083 11.75 18.75C11.75 19.7917 12.1146 20.6771 12.8438 21.4062C13.5729 22.1354 14.4583 22.5 15.5 22.5ZM8 12.5H19.25V7.5H8V12.5Z" fill="black"/>
</svg>
