<svg width="31" height="31" viewBox="0 0 31 31" fill="none" xmlns="http://www.w3.org/2000/svg">
<path fill-rule="evenodd" clip-rule="evenodd" d="M15.5 3C8.59625 3 3 8.59625 3 15.5C3 17.8625 3.65625 20.075 4.7975 21.96L3.6825 25.75C3.61848 25.9676 3.61427 26.1984 3.67031 26.4182C3.72634 26.638 3.84056 26.8387 4.00095 26.9991C4.16134 27.1594 4.36198 27.2737 4.58177 27.3297C4.80156 27.3857 5.0324 27.3815 5.25 27.3175L9.04 26.2025C10.9884 27.3812 13.2228 28.0029 15.5 28C22.4037 28 28 22.4037 28 15.5C28 8.59625 22.4037 3 15.5 3ZM12.6725 18.3287C15.2012 20.8562 17.615 21.19 18.4675 21.2212C19.7637 21.2687 21.0262 20.2788 21.5175 19.13C21.579 18.987 21.6012 18.8302 21.5819 18.6757C21.5625 18.5212 21.5023 18.3747 21.4075 18.2513C20.7225 17.3763 19.7963 16.7475 18.8913 16.1225C18.7024 15.9915 18.4701 15.9389 18.2433 15.9758C18.0164 16.0126 17.8127 16.136 17.675 16.32L16.925 17.4638C16.8854 17.525 16.8239 17.5689 16.7531 17.5865C16.6823 17.6042 16.6075 17.5942 16.5438 17.5588C16.035 17.2675 15.2938 16.7725 14.7613 16.24C14.2288 15.7075 13.7638 15 13.5025 14.5237C13.4709 14.4631 13.462 14.3931 13.4773 14.3264C13.4927 14.2598 13.5313 14.2008 13.5862 14.16L14.7412 13.3025C14.9066 13.1595 15.0133 12.9605 15.041 12.7437C15.0686 12.5269 15.0153 12.3075 14.8912 12.1275C14.3312 11.3075 13.6788 10.265 12.7325 9.57375C12.6101 9.48582 12.4671 9.43099 12.3173 9.41457C12.1675 9.39814 12.016 9.42068 11.8775 9.48C10.7275 9.9725 9.7325 11.235 9.78 12.5337C9.81125 13.3862 10.145 15.8 12.6725 18.3287Z" fill="black"/>
</svg>
