<svg width="455" height="164" viewBox="0 0 455 164" fill="none" xmlns="http://www.w3.org/2000/svg">
<path d="M17.2016 126C17.2016 126 7.97231 128.217 3.176 130.27C-1.6255 132.322 -8.05691 132.183 42.9635 140.686C93.984 149.19 97.4151 150.794 95.7956 153.135C94.1709 155.471 117.016 157.533 125.736 156.574C134.457 155.61 137.504 153.135 137.504 153.135C137.504 153.135 157.307 154.924 169.905 164C190.071 155.61 225 140.686 225 140.686L197.167 133.879L17.2016 126Z" fill="#E8E3DD"/>
<path d="M161 108C183.269 106.284 184.249 83.2085 202.754 74.3623C212.502 69.7027 230.702 74.9116 228.735 93.2406C226.888 110.449 197.889 107.128 194.404 93.2406C189.434 73.4438 203.85 58.4425 214.198 53.4245C238.294 41.7399 268.015 45.8731 280.387 39.6948C292.758 33.5164 300.181 22.5327 292.758 10.5192C285.335 -1.49432 262.798 7.74279 255.953 22.5327C246.534 42.8812 277.888 54.2207 298.326 57.2002C332.341 62.1589 384.215 16.5251 383.999 19.7867" stroke="black" stroke-dasharray="4 4"/>
<path d="M160.154 124.721L155.241 124.157L153.605 126.131L160.154 124.721Z" fill="#0A6C8E"/>
<path d="M140.965 8.4243L140.934 32.0901C140.934 32.0901 113.09 34.2268 107.048 32.3147C101.007 30.4027 103.845 22.42 103.85 18.6063C103.855 14.7926 103.949 5.50918 104.921 3.32023C105.893 1.1365 110.487 2.27538 116.131 2.97543C121.775 3.6807 140.965 8.4243 140.965 8.4243Z" fill="#FDFCF7"/>
<path d="M103.849 18.6062C103.854 14.7925 103.948 5.50906 104.921 3.3201C105.893 1.13637 110.486 2.27526 116.13 2.9753C121.774 3.68058 140.964 8.41896 140.964 8.41896L140.959 12.3842C135.796 11.1303 122.386 8.55479 117.897 7.9958C112.253 7.29052 108.27 6.54868 107.298 8.73241C106.326 10.9161 105.997 19.2801 105.992 23.0938C105.987 25.194 105.13 28.5532 105.365 31.4735C101.602 28.6942 103.844 21.9967 103.849 18.6062Z" fill="#898989"/>
<g opacity="0.58">
<path d="M104.012 3.65454L140.688 10.3416C140.693 10.3416 111.26 3.86873 104.012 3.65454Z" fill="#E8D3C1"/>
<path d="M103.039 17.2322L140.044 20.116C140.044 20.116 110.246 16.7464 103.039 17.2322Z" fill="#E8D3C1"/>
<path d="M103.039 15.7226L140.023 19.552C140.029 19.552 110.261 15.3726 103.039 15.7226Z" fill="#E8D3C1"/>
<path d="M103.045 14.8082L140.029 18.6375C140.029 18.6375 110.262 14.4581 103.045 14.8082Z" fill="#E8D3C1"/>
<path d="M103.055 13.6014L140.013 17.7965C140.018 17.8017 110.282 13.3246 103.055 13.6014Z" fill="#E8D3C1"/>
<path d="M103.091 12.0029L139.981 16.9764C139.981 16.9764 110.329 11.8775 103.091 12.0029Z" fill="#E8D3C1"/>
<path d="M103.097 10.8535L139.987 15.8165C139.987 15.8217 110.329 10.7281 103.097 10.8535Z" fill="#E8D3C1"/>
<path d="M103.117 9.44296L139.971 14.7665C139.966 14.7717 110.355 9.38549 103.117 9.44296Z" fill="#E8D3C1"/>
<path d="M103.117 8.1318L139.971 13.4553C139.971 13.4553 110.355 8.07434 103.117 8.1318Z" fill="#E8D3C1"/>
<path d="M103.144 6.78381L139.95 12.5044C139.95 12.5044 110.382 6.80471 103.144 6.78381Z" fill="#E8D3C1"/>
<path d="M102.981 5.28442L139.788 11.005C139.788 11.005 110.225 5.30532 102.981 5.28442Z" fill="#E8D3C1"/>
<path d="M104.1 29.7705L139.793 29.7235C139.793 29.7235 111.291 30.7945 104.1 29.7705Z" fill="#E8D3C1"/>
<path d="M103.185 18.366L139.897 20.8423C139.897 20.8475 110.417 19.6929 103.185 18.366Z" fill="#E8D3C1"/>
<path d="M103.194 19.5835L139.881 21.6889C139.881 21.6889 110.359 21.0985 103.194 19.5835Z" fill="#E8D3C1"/>
<path d="M103.221 21.1975L139.844 22.5088C139.844 22.514 110.396 22.5663 103.221 21.1975Z" fill="#E8D3C1"/>
<path d="M103.215 22.3573L139.839 23.679C139.839 23.679 110.395 23.726 103.215 22.3573Z" fill="#E8D3C1"/>
<path d="M103.23 23.7834L139.818 24.7343C139.818 24.729 110.411 25.0791 103.23 23.7834Z" fill="#E8D3C1"/>
<path d="M103.226 25.1053L139.813 26.0562C139.818 26.0562 110.406 26.401 103.226 25.1053Z" fill="#E8D3C1"/>
<path d="M103.246 26.4635L139.791 27.0068C139.791 27.012 110.432 27.686 103.246 26.4635Z" fill="#E8D3C1"/>
<path d="M103.08 27.9473L139.625 28.4906C139.625 28.4958 110.266 29.1645 103.08 27.9473Z" fill="#E8D3C1"/>
<path d="M103.802 30.8728L140.514 31.296C140.52 31.3012 111.008 31.9333 103.802 30.8728Z" fill="#E8D3C1"/>
</g>
<path d="M107.653 0.0345459C107.653 0.0345459 46.9535 6.57006 42.0044 8.0433C37.0554 9.51653 38.179 24.2071 39.0256 28.7626C39.8722 33.3181 43.2117 34.6503 46.7601 34.7914C50.3086 34.9324 112.895 34.6764 112.895 34.6764C112.895 34.6764 104.455 33.1301 103.561 26.7199C102.668 20.3098 104.136 7.56789 104.424 5.39984C104.706 3.237 107.653 0.0345459 107.653 0.0345459Z" fill="#9E6718"/>
<path d="M80.8759 27.8898C80.045 21.6364 81.409 9.20268 81.6755 7.09209C81.8584 5.64498 83.2067 3.71723 84.0324 2.65149H84.0272C82.6005 2.81866 81.1477 2.99629 79.6844 3.16869C78.8534 4.26055 77.6567 6.03679 77.4895 7.40032C77.2229 9.51091 75.859 21.9446 76.6899 28.198C77.1759 31.8497 78.843 33.7984 80.1495 34.7858C81.6912 34.7805 83.2328 34.7753 84.7588 34.7701C83.4105 33.9029 81.4142 31.9438 80.8759 27.8898Z" fill="#FFD773"/>
<path d="M73.5999 28.0987C72.769 22.002 74.1329 9.88704 74.3995 7.83392C74.5824 6.4286 75.9202 4.56355 76.7459 3.52393C75.2879 3.70155 73.8298 3.87917 72.3718 4.0568C71.5461 5.12254 70.3754 6.82564 70.2082 8.13693C69.9417 10.1953 68.5777 22.3103 69.4086 28.4017C69.8894 31.9385 71.5408 33.8349 72.8473 34.8119C74.3681 34.8066 75.9045 34.8066 77.4514 34.8014C76.1084 33.9342 74.1329 32.0274 73.5999 28.0987Z" fill="#FFD773"/>
<path d="M101.988 17.039C102.035 16.0726 102.082 15.1374 102.113 14.265C102.134 13.6851 102.15 13.0947 102.165 12.5044C102.28 7.92274 102.406 3.18959 105.087 1.06332C106.299 0.102063 107.867 -0.206167 109.743 0.133408C115.147 1.11556 137.979 5.98455 142.902 7.03462L142.897 10.258C139.678 9.56838 114.812 4.26055 109.278 3.2575C108.029 3.03286 107.47 3.33064 107.161 3.57096C105.588 4.81955 105.479 9.00939 105.385 12.7081C105.369 13.3089 105.353 13.9097 105.332 14.4948C105.301 15.383 105.217 16.9346 105.202 17.3159C105.176 18.1309 104.752 29.5981 106.686 30.8728C108.834 31.9229 126.67 32.8319 142.86 32.0378L142.855 35.2246C136.563 35.5276 122.066 35.0418 112.889 34.6708C109.116 34.5193 106.242 34.2006 105.207 33.6312C101.261 31.4579 101.632 24.1283 101.988 17.039Z" fill="#87510A"/>
<path d="M107.126 21.3438C107.126 21.3438 107.69 29.2062 107.628 34.2581C110.643 34.582 113.888 34.7126 113.888 34.7126C113.888 34.7126 112.535 21.7042 107.126 21.3438Z" fill="#898989"/>
<path opacity="0.46" d="M42.8676 8.90491C42.8676 8.90491 83.9283 4.11429 90.6541 3.48216C97.38 2.85003 99.6585 2.24924 100.578 2.89182C101.498 3.5344 101.101 9.47436 100.578 10.3416C100.056 11.214 95.9376 11.1722 91.4119 11.2924C86.8914 11.4125 42.784 13.4187 41.5036 13.4552C40.2232 13.4918 40.4636 11.4387 40.9183 10.6132C41.373 9.78259 41.9374 9.01462 42.8676 8.90491Z" fill="white"/>
<path d="M142.901 58.6345C142.901 58.6345 145.974 66.8835 145.87 73.6803C146.999 72.0869 148.122 69.9345 148.122 69.9345L151.78 73.2101C151.78 73.2101 149.523 58.0598 146.622 53.452C143.722 48.8495 142.901 58.6345 142.901 58.6345Z" fill="#EE6D4A"/>
<path d="M32.8789 58.8905L43.9162 65.9903H136.395L146.623 58.8905C146.623 58.8905 101.972 57.3651 87.3338 56.2836C72.6958 55.2022 32.8789 58.8905 32.8789 58.8905Z" fill="#007F7C"/>
<path d="M32.8768 34.2114C32.8768 34.2114 142.241 34.6712 146.239 35.1309C148.695 35.8989 148.544 42.1941 148.695 47.5698C148.847 52.9456 149.004 58.0758 146.621 58.8855C144.238 59.7005 34.6694 58.943 32.8768 58.8855C31.0843 58.828 29.8562 55.3487 29.6524 49.717C29.4434 44.0905 28.8319 34.1958 32.8768 34.2114Z" fill="#00AAAC"/>
<path d="M44.355 34.2637C42.9179 34.2585 41.5852 34.2532 40.3832 34.2428C39.9495 34.8279 39.4844 35.8466 39.4844 37.5341C39.4844 40.7052 39.4844 50.3282 39.4844 53.1702C39.4844 55.2129 40.4773 57.6004 41.2351 58.9534C42.6984 58.9639 44.3289 58.9743 46.1005 58.9848C45.165 57.9399 43.7279 55.9808 43.4143 53.515C42.9388 49.7849 43.0171 40.3447 43.2105 38.1192C43.3568 36.3847 43.8272 34.9272 44.355 34.2637Z" fill="#4CEDE5"/>
<path d="M51.3162 34.3002C49.9313 34.295 48.6091 34.2845 47.3444 34.2793C46.9159 34.8696 46.4717 35.8831 46.4717 37.5392C46.4717 40.7103 46.4717 50.3334 46.4717 53.1754C46.4717 55.2442 47.4855 57.663 48.2485 59.0108C49.7902 59.0213 51.4207 59.0317 53.1296 59.0422C52.1941 58.0078 50.7204 56.0278 50.4016 53.5254C49.9261 49.7953 50.0045 40.3551 50.1978 38.1296C50.3441 36.416 50.804 34.9741 51.3162 34.3002Z" fill="#4CEDE5"/>
<path d="M133.145 59.2147C134.895 59.2042 136.51 59.1885 137.973 59.1729C138.721 57.7989 139.651 55.5107 139.651 53.5307C139.651 50.6887 139.651 41.0657 139.651 37.8946C139.651 36.4945 139.332 35.5593 138.977 34.9481C137.764 34.9272 136.421 34.9115 134.968 34.8906C135.418 35.6325 135.799 36.949 135.93 38.4849C136.123 40.7104 136.197 50.1558 135.726 53.8807C135.413 56.2473 134.08 58.1437 133.145 59.2147Z" fill="#4CEDE5"/>
<path d="M126.125 59.2459C127.813 59.2406 129.423 59.2354 130.949 59.225C131.701 57.8562 132.652 55.5314 132.652 53.5253C132.652 50.6833 132.652 41.0603 132.652 37.8892C132.652 36.4212 132.302 35.4599 131.926 34.8487C130.651 34.833 129.313 34.8173 127.912 34.8069C128.383 35.5331 128.79 36.8809 128.931 38.4795C129.125 40.7051 129.198 50.1505 128.728 53.8753C128.419 56.2733 127.06 58.1801 126.125 59.2459Z" fill="#4CEDE5"/>
<path d="M32.8781 35.9038C32.8781 35.9038 92.5329 35.9038 111.32 35.9038C130.108 35.9038 141.119 35.9038 143.674 35.9038C146.235 35.9038 147.103 37.0531 147.312 39.0958C147.516 41.1385 146.695 41.4885 141.579 41.4258C136.457 41.3631 36.2593 41.4258 32.8781 41.4258C29.4969 41.4258 30.3435 35.9038 32.8781 35.9038Z" fill="#00C1BC"/>
<path d="M93.571 144.824C93.571 144.824 22.1578 130.64 16.8325 129.021C11.5072 127.401 9.88711 111.666 15.9075 109.696C21.9278 107.727 89.9912 103.563 89.9912 103.563L169.223 108.108L93.571 144.824Z" fill="#167BA8"/>
<path d="M16.8319 129.015C22.1572 130.635 93.5704 144.819 93.5704 144.819L134.359 124.037L13.6701 111.462C10.4718 116.138 12.3218 127.647 16.8319 129.015Z" fill="#3989B4"/>
<path d="M167.308 110.005C152.613 111.217 100.149 115.788 92.9943 119.763C84.6589 124.392 87.4391 142.677 94.3844 143.137C100.013 143.513 148.928 133.106 167.308 129.136V110.005Z" fill="#FDFCF7"/>
<path d="M96.8478 125.489C103.474 121.811 148.946 117.616 167.31 116.054V110.004C152.614 111.216 100.151 115.788 92.9962 119.763C85.429 123.964 87.0229 139.422 92.5782 142.578C90.7647 136.695 91.6113 128.394 96.8478 125.489Z" fill="#898989"/>
<path d="M169.222 126.947C146.839 131.8 101.19 141.413 94.7983 141.407C94.6886 141.407 94.5893 141.402 94.5056 141.397C92.6609 141.272 90.8736 138.727 90.0479 135.055C88.8929 129.893 89.8232 123.504 93.8419 121.273C100.186 117.747 148.558 113.238 169.222 111.582V108.098C156.737 109.096 100.092 113.829 92.1539 118.238C86.3897 121.44 85.2661 129.596 86.6562 135.812C87.853 141.157 90.3667 144.605 93.8629 144.84C93.9726 144.845 94.5057 144.871 94.6468 144.871C102.224 144.871 151.741 134.282 169.217 130.494V126.947H169.222Z" fill="#0A759B"/>
<path d="M94.3857 122.657L166.384 112.82C166.384 112.82 108.161 119.189 94.3857 122.657Z" fill="#E8D3C1"/>
<path d="M93.5176 124.664L165.516 114.826C165.516 114.832 107.293 121.195 93.5176 124.664Z" fill="#E8D3C1"/>
<path d="M91.6689 126.921L164.937 116.634C164.937 116.634 105.445 123.452 91.6689 126.921Z" fill="#E8D3C1"/>
<path d="M91.584 129.193L164.821 118.17C164.821 118.17 105.36 125.719 91.584 129.193Z" fill="#E8D3C1"/>
<path d="M91.584 131.231L164.821 119.748C164.821 119.748 105.36 127.756 91.584 131.231Z" fill="#E8D3C1"/>
<path d="M91.584 133.143L164.821 121.064C164.821 121.064 105.36 129.668 91.584 133.143Z" fill="#E8D3C1"/>
<path d="M92.1426 134.501L164.936 122.537C164.936 122.537 105.918 131.027 92.1426 134.501Z" fill="#E8D3C1"/>
<path d="M92.1426 136.147L164.821 124.042C164.821 124.042 105.918 132.678 92.1426 136.147Z" fill="#E8D3C1"/>
<path d="M93.1787 138.059L165.109 125.056C165.109 125.056 106.954 134.585 93.1787 138.059Z" fill="#E8D3C1"/>
<path d="M94.3857 139.741L165.517 126.314C165.517 126.314 108.161 136.272 94.3857 139.741Z" fill="#E8D3C1"/>
<path d="M14.6046 112.47C14.6046 112.47 62.9607 119.586 73.0312 121.064C83.1017 122.537 85.5318 122.104 85.1869 126.314C84.842 130.525 83.4519 130.51 69.1274 128.519C54.8029 126.529 17.3012 119.241 14.6098 118.807C11.9132 118.374 13.1099 112.251 14.6046 112.47Z" fill="#3C9CC6"/>
<path d="M60.1248 136.638C60.0308 136.638 59.9419 136.632 59.8479 136.617C46.9135 134.522 31.3505 131.241 26.8875 130.285C26.0304 130.102 25.351 129.439 25.1472 128.592C24.5358 126.043 23.4436 119.669 26.4903 115.547C26.9241 114.962 27.6609 114.659 28.4135 114.748L61.2014 118.765C61.7031 118.828 62.1525 119.1 62.44 119.513C62.7222 119.925 62.8214 120.437 62.7013 120.923C62.1159 123.316 61.2275 128.294 61.8233 134.752C61.8703 135.29 61.677 135.807 61.285 136.173C60.961 136.476 60.5534 136.638 60.1248 136.638ZM28.147 115.145C27.6191 115.145 27.1279 115.38 26.8248 115.793C23.8825 119.774 24.9539 126.001 25.5549 128.493C25.7221 129.188 26.2813 129.731 26.9816 129.877C31.4393 130.833 46.9971 134.109 59.921 136.204C60.3234 136.267 60.7154 136.147 61.008 135.875C61.3059 135.598 61.4575 135.201 61.4209 134.788C60.8199 128.274 61.7188 123.243 62.3093 120.824C62.3981 120.453 62.325 120.061 62.1107 119.748C61.8912 119.429 61.5463 119.22 61.1596 119.173L28.3717 115.156C28.2881 115.15 28.2149 115.145 28.147 115.145Z" fill="#B6E2FF"/>
<path d="M72.9423 136.146C75.0521 136.146 76.7625 133.761 76.7625 130.818C76.7625 127.875 75.0521 125.489 72.9423 125.489C70.8324 125.489 69.1221 127.875 69.1221 130.818C69.1221 133.761 70.8324 136.146 72.9423 136.146Z" fill="#003E60"/>
<path d="M70.0784 130.99C70.0784 128.049 71.7873 125.661 73.8934 125.661C73.5903 125.552 73.2715 125.489 72.9423 125.489C70.831 125.489 69.1221 127.876 69.1221 130.818C69.1221 133.759 70.831 136.146 72.9423 136.146C71.2961 135.556 70.0784 133.477 70.0784 130.99Z" fill="#0A759B"/>
<path d="M20.7983 125.217C22.4117 125.217 23.7196 123.391 23.7196 121.137C23.7196 118.884 22.4117 117.057 20.7983 117.057C19.1849 117.057 17.877 118.884 17.877 121.137C17.877 123.391 19.1849 125.217 20.7983 125.217Z" fill="#003E60"/>
<path d="M18.6034 121.273C18.6034 119.022 19.9099 117.198 21.5247 117.193C21.2895 117.11 21.0491 117.063 20.7983 117.063C19.1835 117.063 17.877 118.886 17.877 121.143C17.877 123.394 19.1835 125.223 20.7983 125.223C19.5388 124.763 18.6034 123.175 18.6034 121.273Z" fill="#0A759B"/>
<path d="M95.0957 130.478C95.0957 130.478 95.7176 139.302 95.6549 144.824C97.2645 144.704 102.224 143.978 102.224 143.978C102.224 143.978 100.923 130.635 95.0957 130.478Z" fill="#898989"/>
<path d="M95.0957 130.442C95.0957 130.442 101.032 134.208 101.383 151.981C104.163 149.097 106.07 147.264 106.07 147.264L111.087 150.194C111.087 150.194 107.79 131.387 103.896 128.754C98.1895 129.381 95.0957 130.442 95.0957 130.442Z" fill="#EE6D4A"/>
<path d="M84.9427 116.644C84.9427 116.644 147.294 109.09 151.888 107.423C156.487 105.757 157.882 92.0902 152.687 90.6953C147.493 89.3004 88.7367 86.239 88.7367 86.239L20.3389 88.5795L84.9427 116.644Z" fill="#E0512F"/>
<path d="M151.889 107.423C147.29 109.09 84.9437 116.644 84.9437 116.644L54.6172 98.772L85.0848 92.8268L154.622 92.1111C157.381 95.9822 155.782 106.008 151.889 107.423Z" fill="#EE6D4A"/>
<path d="M21.9932 90.1206C34.6819 90.4288 79.9652 91.7245 86.1423 94.7963C93.3385 98.3697 90.9398 114.293 84.9455 115.045C80.0906 115.651 37.8645 109.137 21.9932 106.64V90.1206Z" fill="#FDFCF7"/>
<path d="M82.8166 99.9369C77.0994 97.095 37.8417 95.768 21.9912 95.3448V90.1206C34.6799 90.4288 79.9632 91.7245 86.1403 94.7963C92.6728 98.0406 91.2984 111.467 86.5009 114.471C88.0687 109.304 87.3371 102.183 82.8166 99.9369Z" fill="#898989"/>
<path d="M20.3457 104.848C39.6662 107.909 79.0702 113.901 84.5889 113.578C84.683 113.572 84.7666 113.567 84.845 113.557C86.4337 113.358 87.9806 111.07 88.6913 107.857C89.6895 103.343 88.8847 97.8735 85.4146 96.1495C79.9378 93.4277 38.182 91.9701 20.3457 91.5835V88.5796C31.1217 88.8095 80.0161 90.0372 86.8726 93.4434C91.8478 95.9144 92.8198 102.899 91.6179 108.338C90.5831 113.013 88.0642 116.153 85.0488 116.529C84.9547 116.54 84.845 116.55 84.7248 116.561C78.1818 116.942 35.4384 110.302 20.3509 107.909V104.848H20.3457Z" fill="#F48369"/>
<g opacity="0.58">
<path d="M84.9438 97.3667L22.791 92.5082C22.791 92.5082 73.0494 95.0681 84.9438 97.3667Z" fill="#E8D3C1"/>
<path d="M85.6919 99.0595L23.5391 94.2009C23.5391 94.2009 73.7975 96.7556 85.6919 99.0595Z" fill="#E8D3C1"/>
<path d="M87.2841 100.914L24.0391 95.7314C24.0391 95.7314 75.3949 98.61 87.2841 100.914Z" fill="#E8D3C1"/>
<path d="M87.3576 102.868L24.1387 97.0481C24.1387 97.0481 75.4684 100.564 87.3576 102.868Z" fill="#E8D3C1"/>
<path d="M87.3576 104.628L24.1387 98.4115C24.1387 98.4063 75.4684 102.324 87.3576 104.628Z" fill="#E8D3C1"/>
<path d="M87.3576 106.279L24.1387 99.5453C24.1387 99.5453 75.4684 103.975 87.3576 106.279Z" fill="#E8D3C1"/>
<path d="M86.8765 107.481L24.0391 100.825C24.0391 100.825 74.9873 105.177 86.8765 107.481Z" fill="#E8D3C1"/>
<path d="M86.8768 108.902L24.1387 102.115C24.1387 102.115 74.9876 106.598 86.8768 108.902Z" fill="#E8D3C1"/>
<path d="M85.984 110.605L23.8887 103.004C23.8887 103.004 74.0948 108.301 85.984 110.605Z" fill="#E8D3C1"/>
<path d="M84.9445 112.115L23.5391 104.111C23.5391 104.111 73.0502 109.816 84.9445 112.115Z" fill="#E8D3C1"/>
</g>
<path d="M153.88 93.5321C153.88 93.5321 114.732 96.5778 104.479 97.5965C95.6467 98.4742 93.1487 97.8682 93.4518 101.483C93.7497 105.099 98.8032 104.336 111.335 102.998C125.252 101.509 151.487 98.9966 153.812 98.4899C156.138 97.9831 155.171 93.2709 153.88 93.5321Z" fill="#F48369"/>
<path d="M147.787 108.265C147.698 108.259 147.614 108.191 147.588 108.103C147.557 107.993 147.62 107.883 147.729 107.857C148.398 107.711 150.546 106.332 150.881 104.848C151.225 103.307 151.664 99.7804 151.879 96.8183C152.077 94.0181 150.159 92.8897 150.076 92.8426C149.976 92.7852 149.935 92.6598 149.982 92.5605C150.034 92.4613 150.154 92.4247 150.259 92.4874C150.28 92.4978 152.506 93.7882 152.286 96.8757C152.072 99.8536 151.633 103.406 151.283 104.963C150.922 106.577 148.659 108.087 147.844 108.265C147.823 108.265 147.802 108.265 147.787 108.265Z" fill="#F9A0A0"/>
<path d="M145.101 108.547C145.012 108.541 144.929 108.474 144.903 108.385C144.871 108.275 144.934 108.165 145.044 108.139C145.713 107.993 147.861 106.614 148.195 105.13C148.54 103.589 148.979 100.063 149.193 97.1004C149.392 94.3002 147.474 93.1717 147.39 93.1247C147.291 93.0673 147.249 92.9419 147.296 92.8426C147.348 92.7434 147.469 92.7068 147.573 92.7695C147.594 92.7799 149.82 94.0703 149.601 97.1578C149.387 100.136 148.948 103.688 148.597 105.245C148.237 106.859 145.974 108.369 145.159 108.547C145.138 108.547 145.122 108.552 145.101 108.547Z" fill="#F9A0A0"/>
<path d="M102.112 101.52C102.352 106.53 101.631 110.166 99.5352 114.842C101.207 114.633 102.974 114.414 104.803 114.179C105.002 113.698 106.904 108.949 106.967 102.299C106.998 99.0753 106.078 96.8654 105.075 95.4078L100.188 95.7317C101.093 97.1371 101.997 99.1066 102.112 101.52Z" fill="#CC3A1D"/>
<path d="M109.8 101.013C110.035 105.846 109.356 109.409 107.433 113.844C109.147 113.625 110.903 113.4 112.685 113.175C113.223 111.718 114.603 107.439 114.655 101.792C114.686 98.5632 113.767 96.3533 112.763 94.8958L107.877 95.2197C108.781 96.625 109.685 98.5997 109.8 101.013Z" fill="#CC3A1D"/>
<path d="M82.4781 102.116C82.4781 102.116 81.9032 111.342 81.9555 116.493C80.4556 116.378 75.6738 115.923 75.6738 115.923C75.6738 115.923 77.0483 102.262 82.4781 102.116Z" fill="#898989"/>
<path d="M82.4788 102.116C82.4788 102.116 76.9444 106.259 76.6204 122.825C74.0283 120.134 72.2515 118.426 72.2515 118.426L67.5742 121.158C67.5742 121.158 70.6523 103.631 74.2739 101.17C79.594 101.761 82.4788 102.116 82.4788 102.116Z" fill="#FFBC00"/>
<path d="M41.1523 61.4921V85.231C41.1523 85.231 68.6568 88.4961 74.6249 86.8244C80.5929 85.1526 77.8023 77.0289 77.8023 73.2048C77.8023 69.3807 77.7239 60.0606 76.7675 57.8299C75.8112 55.5991 71.2698 56.5552 65.6936 57.0358C60.1175 57.5112 41.1523 61.4921 41.1523 61.4921Z" fill="#FDFCF7"/>
<path d="M77.8081 73.2048C77.8081 69.3807 77.7297 60.0606 76.7734 57.8299C75.817 55.5991 71.2756 56.5552 65.6995 57.0358C60.1233 57.5112 41.1582 61.4973 41.1582 61.4973V65.4729C46.2588 64.4229 59.5119 62.3802 63.9488 61.9988C69.5249 61.5234 73.4601 60.9331 74.4164 63.1638C75.3728 65.3946 75.6864 73.7951 75.6864 77.6193C75.6864 79.7246 76.5277 83.1308 76.2926 86.0512C80.0083 83.413 77.8081 76.6058 77.8081 73.2048Z" fill="#898989"/>
<g opacity="0.58">
<path d="M77.6603 58.1956L41.418 63.425C41.418 63.4303 70.5007 58.1224 77.6603 58.1956Z" fill="#E8D3C1"/>
<path d="M78.6054 71.857L42.0391 73.2571C42.0391 73.2571 71.4876 71.0786 78.6054 71.857Z" fill="#E8D3C1"/>
<path d="M78.6069 70.3419L42.0615 72.6928C42.0615 72.6928 71.4734 69.6993 78.6069 70.3419Z" fill="#E8D3C1"/>
<path d="M78.6069 69.4276L42.0615 71.7785C42.0615 71.7785 71.4734 68.785 78.6069 69.4276Z" fill="#E8D3C1"/>
<path d="M78.5896 68.2156L42.0703 70.9374C42.0755 70.9374 71.4561 67.6462 78.5896 68.2156Z" fill="#E8D3C1"/>
<path d="M78.5588 66.6118L42.1074 70.112C42.1074 70.112 71.4148 66.1938 78.5588 66.6118Z" fill="#E8D3C1"/>
<path d="M78.5588 65.4625L42.1074 68.9523C42.1074 68.9523 71.4148 65.0394 78.5588 65.4625Z" fill="#E8D3C1"/>
<path d="M78.5437 64.0415L42.1289 67.897C42.1237 67.897 71.3893 63.6967 78.5437 64.0415Z" fill="#E8D3C1"/>
<path d="M78.5437 62.7249L42.1289 66.5804C42.1237 66.5804 71.3893 62.3749 78.5437 62.7249Z" fill="#E8D3C1"/>
<path d="M78.5175 61.3719L42.1445 65.6244C42.1498 65.6297 71.3631 61.1055 78.5175 61.3719Z" fill="#E8D3C1"/>
<path d="M78.6796 59.8777L42.3066 64.1303C42.3066 64.1303 71.5252 59.6061 78.6796 59.8777Z" fill="#E8D3C1"/>
<path d="M77.5406 84.3899L41.5596 82.4674C41.5596 82.4674 70.4384 85.1265 77.5406 84.3899Z" fill="#E8D3C1"/>
<path d="M78.4602 72.9906L42.1865 73.9937C42.1865 73.9989 71.311 74.025 78.4602 72.9906Z" fill="#E8D3C1"/>
<path d="M78.4506 74.2081L42.2031 74.8403C42.2031 74.8403 71.3694 75.4463 78.4506 74.2081Z" fill="#E8D3C1"/>
<path d="M78.4192 75.8326L42.2344 75.6759C42.2344 75.6707 71.3275 76.9141 78.4192 75.8326Z" fill="#E8D3C1"/>
<path d="M78.4231 76.9923L42.2383 76.8408C42.2383 76.8408 71.3262 78.0737 78.4231 76.9923Z" fill="#E8D3C1"/>
<path d="M78.4021 78.4185L42.2539 77.8961C42.2539 77.8961 71.3105 79.432 78.4021 78.4185Z" fill="#E8D3C1"/>
<path d="M78.408 79.7507L42.2598 79.2283C42.2598 79.2283 71.3111 80.759 78.408 79.7507Z" fill="#E8D3C1"/>
<path d="M78.3857 81.109L42.2793 80.1843C42.2793 80.1843 71.2836 82.0441 78.3857 81.109Z" fill="#E8D3C1"/>
<path d="M78.5498 82.6032L42.4434 81.6785C42.4434 81.6785 71.4477 83.5383 78.5498 82.6032Z" fill="#E8D3C1"/>
<path d="M77.8281 85.5131L41.2461 83.8204C41.2513 83.8204 70.7155 86.2811 77.8281 85.5131Z" fill="#E8D3C1"/>
</g>
<path d="M74.0724 54.4236C74.0724 54.4236 134.03 63.4249 138.917 65.1019C143.803 66.7789 143.16 79.3432 142.319 83.8778C141.477 88.4125 138.174 89.614 134.668 89.614C131.161 89.614 72.5986 88.867 72.5986 88.867C72.5986 88.867 77.1871 87.749 78.0807 81.3545C78.9744 74.9601 77.5424 62.1189 77.2602 59.9352C76.978 57.7514 74.0724 54.4236 74.0724 54.4236Z" fill="#FFBC00"/>
<path d="M99.7261 62.3382C99.9874 64.3652 101.32 76.3026 100.489 82.2478C99.7783 87.3571 96.533 88.8407 95.6289 89.1594C97.2751 89.1803 98.9526 89.2012 100.646 89.2221C101.968 88.4803 104.069 86.7092 104.628 82.7179C105.459 76.7728 104.126 64.8354 103.865 62.8084C103.698 61.5023 102.517 59.7522 101.702 58.676C100.254 58.4461 98.8168 58.2267 97.4058 58.0021C98.221 59.0469 99.5484 60.9433 99.7261 62.3382Z" fill="#FFD773"/>
<path d="M106.918 63.3414C107.179 65.3214 108.512 76.9506 107.681 82.7442C107.075 86.9811 104.634 88.6581 103.364 89.2536C104.99 89.2745 106.615 89.2954 108.224 89.3111C109.536 88.4804 111.318 86.7251 111.82 83.1935C112.651 77.3998 111.318 65.7707 111.057 63.7907C110.89 62.5317 109.74 60.8599 108.925 59.8046C107.488 59.5748 106.045 59.3449 104.603 59.1202C105.423 60.1546 106.74 61.9883 106.918 63.3414Z" fill="#FFD773"/>
<path d="M79.6486 71.7054C79.6016 70.7337 79.5546 69.7934 79.5284 68.9157C79.5075 68.3306 79.4971 67.7402 79.4814 67.1499C79.3717 62.5526 79.2567 57.7933 76.6123 55.5573C75.4156 54.5438 73.8687 54.1677 72.0135 54.4341C66.6725 55.2021 44.1118 59.162 39.2464 60.0188V63.2526C42.4238 62.6936 67.0017 58.3732 72.4681 57.5843C73.7067 57.4067 74.2502 57.7306 74.5585 57.9866C76.1106 59.2979 76.2099 63.5086 76.2988 67.223C76.3144 67.8238 76.3249 68.4298 76.3458 69.0202C76.3772 69.9135 76.4555 71.4703 76.466 71.8569C76.4921 72.6771 76.8945 84.1966 74.9766 85.3929C72.8496 86.3594 55.2328 85.4504 39.2412 84.0033V87.2005C45.4601 87.7595 59.7794 88.9558 68.8465 88.9558C72.5726 88.9558 75.4156 88.7521 76.4399 88.2245C80.3437 86.1975 79.9883 78.8313 79.6486 71.7054Z" fill="#F7A500"/>
<path d="M74.5676 75.817C74.5676 75.817 73.9979 83.6795 74.0554 88.7522C71.0766 88.956 67.873 88.956 67.873 88.956C67.873 88.956 69.2161 75.9633 74.5676 75.817Z" fill="#898989"/>
<path d="M74.5667 75.8117C74.5667 75.8117 68.7658 80.5815 68.4523 96.9594C65.9072 94.6921 64.1565 93.2763 64.1565 93.2763L59.5576 96.6721C59.5576 96.6721 62.7977 78.7425 66.3671 75.7752C71.5931 75.561 74.5667 75.8117 74.5667 75.8117Z" fill="#3989B4"/>
<path opacity="0.37" d="M80.248 57.1089C80.248 57.1089 134.588 65.6349 136.553 65.9901C138.513 66.3401 138.858 68.2992 139.265 69.7829C139.673 71.2666 138.089 70.6553 134.813 70.3471C131.536 70.0389 86.169 64.2766 83.7128 63.9318C81.2566 63.587 80.896 62.6884 80.4884 61.3458C80.0807 60.0031 79.4902 58.0075 79.5686 57.6C79.6418 57.1925 79.8299 57.0462 80.248 57.1089Z" fill="white"/>
<path d="M83.7392 88.8566C83.6504 88.8566 83.5615 88.8148 83.5093 88.7312C83.4257 88.6058 83.457 88.4282 83.5877 88.3446C84.0632 88.0259 85.9028 84.9645 86.0439 81.6628C86.1798 78.4499 86.1798 71.1569 86.0439 65.0654C85.908 59.1411 83.9796 56.9783 83.9587 56.9574C83.8542 56.8425 83.8594 56.6701 83.9744 56.5656C84.0841 56.4611 84.2618 56.4663 84.3663 56.5813C84.45 56.6753 86.462 58.8904 86.6031 65.055C86.7442 71.1569 86.7442 78.4656 86.6031 81.6889C86.462 84.9802 84.612 88.3342 83.9012 88.8096C83.849 88.8409 83.7967 88.8566 83.7392 88.8566Z" fill="#CC8200"/>
<path d="M86.8379 89.1753C86.749 89.1753 86.6602 89.1335 86.6079 89.0499C86.5243 88.9246 86.5557 88.7469 86.6863 88.6633C87.1619 88.3447 89.0014 85.2833 89.1425 81.9815C89.2784 78.7686 89.2784 71.4756 89.1425 65.3842C89.0067 59.4599 87.0783 57.297 87.0574 57.2761C86.9528 57.1612 86.9581 56.9888 87.073 56.8843C87.1828 56.7798 87.3605 56.7851 87.465 56.9C87.5486 56.994 89.5606 59.2091 89.7017 65.3737C89.8428 71.4756 89.8428 78.7843 89.7017 82.0077C89.5606 85.2989 87.7106 88.6529 86.9999 89.1283C86.9424 89.1596 86.8901 89.1753 86.8379 89.1753Z" fill="#CC8200"/>
<path d="M107.126 21.3387C107.126 21.3387 112.99 26.3278 113.287 42.6692C115.869 40.5169 117.641 39.1742 117.641 39.1742L122.292 42.7476C122.292 42.7476 119.036 24.7397 115.43 21.6365C110.131 21.2081 107.126 21.3387 107.126 21.3387Z" fill="#FFBC00"/>
<path d="M91.9756 101.76C91.9756 101.76 106.896 111.493 115.2 137.473C113.371 141.7 116.015 147.138 121.826 144.907C125.851 143.904 148.176 137.975 163.671 158.088C186.618 148.852 212.801 140.164 212.801 140.164C212.801 140.164 213.767 137.484 213.605 137.364C212.895 136.857 209.806 138.711 208.249 138.006C199.333 133.983 179.375 125.964 167.162 128.65C162.396 129.663 159.861 128.932 159.861 126.314C159.861 123.702 151.761 101.64 145.553 95.951C130.193 96.1026 105.924 100.804 96.3759 100.951C96.0362 100.956 93.7995 98.7617 93.1776 98.8662C92.7699 98.9289 91.9756 101.76 91.9756 101.76Z" fill="#87510A"/>
<path d="M93.1787 98.861C93.1787 98.861 109.447 110.485 117.751 136.465C115.922 140.691 117.725 144.479 123.537 142.248C127.561 141.245 149.646 137.045 164.827 155.487C187.775 146.25 213.612 137.364 213.612 137.364C213.612 137.364 185.438 122.731 169.342 126.273C164.576 127.286 162.042 126.555 162.042 123.937C162.042 121.325 153.941 99.2633 147.733 93.5741C128.501 93.7622 93.1787 98.861 93.1787 98.861Z" fill="#6D3E06"/>
<path d="M148.25 89.6143L101.237 92.7384C99.4288 98.4589 120.124 126.288 120.124 126.288C120.124 126.288 121.205 130.034 124.038 135.708L164.801 123.917C160.432 105.533 148.25 89.6143 148.25 89.6143Z" fill="#EADBCE"/>
<path d="M164.821 124.042C164.811 124 164.801 123.958 164.79 123.917L124.027 135.708C124.101 135.854 124.168 135.995 124.247 136.146C146.269 132.035 166.384 147.123 166.384 147.123C166.384 147.123 176.496 143.873 214.96 129.188C205.114 124.355 173.146 122.046 164.821 124.042Z" fill="#E5D1C3"/>
<path d="M167.329 143.774L167.308 143.779C167.308 143.779 150.224 129.762 125.202 135.279C122.275 122.741 109.168 96.3482 101.23 92.7383C98.7217 94.7339 95.6279 96.9595 95.6279 96.9595C95.6279 96.9595 113.584 113.651 118.884 136.146C122.882 135.979 124.831 140.362 124.831 140.362C124.831 140.362 138.371 137.505 148.897 140.78C159.422 144.056 166.038 152.974 166.038 152.974L166.174 152.927L214.399 135.561L214.958 129.193L167.329 143.774Z" fill="#D6B8A1"/>
<path d="M167.308 143.779C167.308 143.779 150.224 129.762 125.202 135.279C122.275 122.741 109.168 96.3482 101.23 92.7383C98.7217 94.7339 95.6279 96.9595 95.6279 96.9595C95.6279 96.9595 113.584 113.651 118.884 136.146C122.882 135.979 124.831 140.362 124.831 140.362C124.831 140.362 138.371 137.505 148.897 140.78C159.422 144.056 166.038 152.974 166.038 152.974L166.174 152.927L167.329 143.774L167.308 143.779Z" fill="#DBC2AD"/>
<path d="M125.202 135.707C125.202 135.707 143.253 128.138 167.329 139.741C192.936 132.636 213.009 126.288 213.009 126.288C213.009 126.288 185.902 118.932 164.82 124.042C143.739 129.151 127.293 134.318 125.202 135.707Z" fill="#EADBCE"/>
<path d="M125.202 135.284C125.202 135.284 126.692 110.365 108.218 89.3164C120.185 87.9163 154.468 87.3051 154.468 87.3051C154.468 87.3051 165.688 107.512 164.815 124.047C146.258 128.754 125.202 135.284 125.202 135.284Z" fill="#FDFCF7"/>
<path d="M168.264 123.326C168.264 123.326 136.056 131.941 129.143 134.564C122.229 137.186 122.694 153.627 122.694 153.627L119.72 149.353L116.935 151.981C116.935 151.981 118.131 138.33 124.779 133.628C131.431 128.921 162.082 123.3 168.264 123.326Z" fill="#FFBC00"/>
<path d="M159.004 119.471C154.457 119.471 150.203 119.826 146.582 120.448C146.838 117.156 146.462 113.285 145.375 109.278C142.652 99.258 136.496 92.2053 131.62 93.527C126.744 94.8487 125.004 104.049 127.721 114.069C129.608 121.007 133.135 126.513 136.746 128.812C140.332 131.283 148.944 133.027 159.004 133.027C172.283 133.027 183.044 129.992 183.044 126.246C183.044 122.501 172.278 119.471 159.004 119.471Z" fill="#FDFCF7"/>
<path d="M182.816 85.7531C191.877 98.1659 189.16 115.568 176.743 124.627C164.326 133.685 146.918 130.969 137.856 118.556C128.794 106.143 131.512 88.7414 143.929 79.6826C156.346 70.6237 173.754 73.3403 182.816 85.7531Z" fill="#003E60"/>
<path d="M163.621 118.343C163.605 118.301 163.579 118.254 163.547 118.201C163.536 118.196 163.531 118.196 163.521 118.191L163.621 118.343Z" fill="#C4C4C3"/>
<path d="M137.743 87.404C137.967 87.2055 138.197 87.1689 138.432 86.9913C138.96 86.5838 139.185 86.0509 139.587 85.5285C139.817 85.2255 140.518 84.259 140.967 84.5463C140.951 84.6874 140.732 85.0792 140.862 85.215C141.024 85.3874 141.322 85.1001 141.458 85.0792C141.474 85.3665 141.396 85.7584 141.5 86.0248C141.944 86.0823 141.944 85.5755 141.991 85.2725C142.044 84.9173 142.106 84.6352 142.294 84.3165C142.451 84.05 142.592 83.8881 142.671 83.5903C142.76 83.2769 142.744 82.9738 142.901 82.697C143.214 82.1536 143.637 81.7514 144.029 81.2812C144.233 81.0304 144.515 80.8528 144.73 80.6229C144.97 80.3617 145.153 80.0639 145.383 79.7975C145.717 79.4161 146.371 78.5959 146.961 78.6847C146.747 79.0452 146.203 79.2594 146.015 79.6356C145.885 79.8916 146.005 79.9333 145.749 80.1266C145.55 80.2781 145.211 80.367 145.258 80.6804C145.404 80.6752 145.55 80.6491 145.623 80.7797C145.911 80.7588 146.136 80.3513 146.345 80.5864C146.606 80.8789 146.094 81.114 146.146 81.3439C146.214 81.6573 146.669 81.0827 146.731 80.9468C146.857 80.6856 146.857 80.3617 147.034 80.1214C147.249 79.8341 147.62 79.6251 147.871 79.3691C148.095 79.1393 148.283 79.0087 148.587 78.8676C148.911 78.7161 149.266 78.5855 149.569 78.3974C149.768 78.2773 149.982 78.016 150.227 78.0474C150.233 78.0526 150.259 78.1049 150.264 78.1101C150.41 77.9899 150.614 77.8802 150.761 77.7757C150.896 77.6765 151.074 77.4884 151.194 77.4153C151.602 77.1645 152.203 76.9607 152.673 76.757C152.955 76.6316 153.102 76.3547 153.374 76.3182C153.494 76.3025 153.541 76.3704 153.703 76.3025C153.839 76.245 153.933 76.104 154.032 76.0361C154.241 75.9002 155.595 75.7069 155.417 75.3935C155.26 75.1218 153.797 75.3883 153.52 75.4039C153.034 75.4301 152.543 75.4875 152.057 75.5711C149.219 76.454 146.47 77.8175 143.935 79.6669C142.728 80.5446 141.62 81.5058 140.596 82.5298C139.613 83.5799 138.704 84.6822 137.842 85.8472C137.607 86.1659 137.361 86.4689 137.131 86.7771C136.854 87.195 136.593 87.6182 136.342 88.0466C136.227 88.2973 136.138 88.5638 136.086 88.8511C136.436 88.5377 136.823 88.2555 137.183 87.9578C137.382 87.8063 137.544 87.5816 137.743 87.404Z" fill="#3989B4"/>
<path d="M152.872 80.8113C152.538 80.7068 152.449 81.0098 152.193 81.0934C152.193 81.0359 152.182 80.968 152.177 80.9105C152.004 80.9105 151.858 80.921 151.696 80.9419C151.686 80.8949 151.686 80.6911 151.701 80.6127C151.722 80.5918 151.801 80.5657 151.832 80.5448C151.842 80.4925 151.78 80.4664 151.795 80.4141C151.947 80.2939 151.91 80.2417 151.926 80.0693C151.9 80.0431 151.853 79.9909 151.827 79.97C151.701 80.0118 151.398 80.132 151.351 80.1581C151.247 80.2208 151.027 80.1006 151.037 80.3775C150.823 80.4246 150.379 80.55 150.353 80.6022C150.112 81.015 150.724 80.8426 150.541 81.1875C150.316 81.0203 150.086 81.0673 149.856 81.1196C149.699 81.1927 149.537 81.2345 149.37 81.2554C149.48 81.6369 149.391 81.5898 149.229 81.8511C149.187 81.919 149.046 81.9086 148.978 81.9974C148.91 82.0915 149.025 82.2796 148.957 82.3736C148.722 82.6924 147.812 82.7446 148.136 83.3142C148.413 83.0634 148.722 83.4396 148.968 83.1157C149.145 83.2149 149.746 82.7028 149.872 82.5409C150.029 82.3371 149.997 82.1594 150.206 82.034C150.269 81.9974 150.583 82.0392 150.692 81.9974C150.604 82.3841 149.935 82.6715 149.893 83.0216C149.84 83.4448 150.144 83.2202 150.306 83.1261C150.389 83.0738 150.436 82.5252 150.661 82.9693C150.954 82.8648 151.403 82.6454 151.492 82.3371C151.592 82.4782 151.743 82.5513 151.931 82.5252C151.999 82.2482 152.339 82.2117 152.292 81.8459C152.334 81.872 152.428 81.8929 152.485 81.9452C152.627 81.7884 152.559 81.5846 152.444 81.454C152.762 81.3913 152.836 81.0778 152.872 80.8113Z" fill="#3989B4"/>
<path d="M163.461 118.113C163.445 118.071 163.418 118.024 163.387 117.971C163.376 117.966 163.371 117.966 163.36 117.961L163.461 118.113Z" fill="url(#paint0_radial_206_1108)"/>
<path d="M186.526 92.7223C185.648 90.293 184.42 87.9421 182.816 85.748C177.313 78.2146 168.737 74.2546 160.072 74.3278C159.847 74.4427 159.659 74.589 159.56 74.7666C159.409 75.0435 159.424 74.939 159.571 75.148C159.717 75.357 160.412 75.3256 160.527 75.4771C160.945 76.0309 159.936 75.8271 160.088 76.2398C159.915 76.313 159.226 76.1406 159.68 76.6108C159.644 76.6317 159.586 76.6317 159.555 76.6526C159.618 77.1436 160.004 76.9817 160.391 77.0392C160.861 77.1071 161.112 77.4205 160.631 77.734C160.804 77.9691 160.877 78.3713 160.496 78.4184C160.339 77.9691 160.208 78.4758 160.057 78.4392C159.879 78.3975 159.722 78.2721 159.926 78.0265C159.691 78.0527 159.419 78.0161 159.246 77.9273C159.299 77.9012 159.398 77.8123 159.45 77.7914C159.294 77.7758 158.959 77.8959 158.849 77.7967C158.651 77.6138 158.891 77.4832 159.053 77.4466C158.834 77.384 158.625 77.4049 158.457 77.2847C158.609 77.1384 158.834 77.0757 158.964 76.8876C158.797 76.6839 158.316 76.7466 158.081 76.7309C157.778 76.71 157.433 76.5481 157.13 76.5951C156.404 76.6996 155.808 76.8824 155.4 77.4362C154.961 78.0318 154.329 78.0213 153.717 78.434C153.315 78.7109 152.62 79.3378 152.688 79.8498C152.719 79.902 152.771 79.8237 152.782 79.8237C152.636 80.414 153.54 80.0692 153.278 79.5677C153.383 79.6147 153.456 79.5729 153.571 79.6617C153.686 79.5207 154.151 78.6587 154.271 79.3535C154.538 79.3326 154.559 79.0766 154.851 79.1236C154.862 79.5102 154.752 79.9752 154.815 80.3461C155.249 80.461 155.886 79.9073 155.703 79.4789C156.226 79.3587 155.792 78.852 155.933 78.5176C155.98 78.4131 156.236 78.1258 156.289 78.084C156.445 77.9586 156.472 77.7862 156.775 77.8437C156.822 78.1728 156.487 78.3295 156.545 78.6691C157.099 78.7214 157.041 79.0505 157.626 78.7893C157.977 78.6326 158.342 78.4393 158.322 79.0662C158.651 79.1863 159.037 79.0191 159.356 79.1236C159.487 79.1654 159.518 79.3221 159.612 79.3639C159.675 79.3953 160.015 79.458 160.036 79.4789C160.762 80.3304 159.048 79.902 158.97 79.9595C158.792 79.6043 158.102 79.8811 157.966 80.1528C157.773 80.5446 158.28 80.7066 157.658 80.7222C157.475 80.7275 157.417 80.6021 157.167 80.6961C156.999 80.7588 156.916 80.9312 156.733 81.0043C156.586 81.067 156.304 81.0618 156.142 81.1036C156.012 81.1402 155.651 81.3439 155.552 81.3387C155.228 81.3335 154.982 80.9835 154.564 81.1036C154.256 81.1872 154.297 81.323 154.068 81.485C153.874 81.626 153.655 81.5477 153.487 81.6522C153.09 81.9029 153.284 82.3783 153.043 82.6918C152.944 82.8276 152.74 82.8276 152.62 82.9634C152.51 83.094 152.515 83.3135 152.374 83.465C152.15 83.4388 151.988 83.4702 151.799 83.3814C151.549 83.7314 150.874 83.2717 150.66 83.8098C150.718 83.8098 150.786 83.8202 150.848 83.8307C150.775 83.9038 150.759 84.0449 150.712 84.1075C151.57 84.0762 151.125 85.0531 150.655 85.3091C150.488 85.1315 150.096 85.4397 149.866 85.4972C149.772 85.5181 149.746 85.6487 149.667 85.6539C149.568 85.6644 149.542 85.539 149.469 85.5494C149.228 85.5808 149.061 85.6539 148.894 85.492C148.695 85.6644 148.585 85.9047 148.481 86.145C148.345 86.4585 148.324 86.6413 148.272 87.0227C148.204 87.519 147.383 88.5899 148.47 88.4071C148.674 88.3705 149.014 88.1093 149.218 88.0153C149.317 87.9683 149.333 87.822 149.416 87.7854C149.505 87.7436 149.631 87.8168 149.714 87.7802C149.887 87.7018 150.064 87.6705 150.211 87.5294C150.409 87.3414 150.545 87.1272 150.739 86.9234C150.874 86.7824 151.167 86.4167 151.204 86.2025C152.249 86.2495 151.434 85.4711 152.097 85.2151C152.437 85.0845 152.62 85.4084 152.965 85.1942C153.122 85.0949 153.08 84.8964 153.21 84.7972C153.346 84.6979 153.467 84.7606 153.608 84.7031C153.947 84.5568 153.958 84.4471 154.36 84.5673C154.465 84.5986 154.543 84.7188 154.658 84.7658C154.783 84.818 154.925 84.7606 155.066 84.8024C155.358 84.8964 156.346 85.6748 156.43 84.8703C156.022 84.8494 155.191 84.7083 155.358 84.1284C156.315 83.7262 156.853 84.4419 157.527 84.8598C157.778 85.0166 158.175 85.2569 158.332 85.5912C158.504 85.9726 158.311 86.4741 158.954 86.3383C158.975 86.2547 159.037 86.0875 159.043 86.0092C159.043 85.983 158.985 85.936 158.97 85.9151C159.382 85.7271 158.99 85.6382 158.964 85.4606C158.949 85.3561 158.797 85.4136 158.849 85.1994C158.87 85.1106 159.163 85.1263 159.199 85.0061C159.288 84.7083 158.792 84.7031 159.257 84.5098C159.518 84.4001 159.847 84.4837 159.712 84.8024C159.879 84.8807 159.942 85.0166 159.91 85.2046C159.968 85.2099 160.036 85.2151 160.093 85.2203C160.172 85.539 159.973 86.1032 160.339 86.2599C160.328 86.3278 160.349 86.4219 160.354 86.4898C160.788 86.5525 161.044 86.3226 161.436 86.1972C161.687 86.1189 162.199 85.8942 162.476 85.9517C162.69 85.9935 162.638 86.2077 162.873 86.192C163.025 86.1816 163.182 85.8995 163.302 85.842C163.919 85.5442 163.626 85.9726 163.84 86.354C163.767 86.3331 163.71 86.3383 163.636 86.307C163.783 86.4323 163.971 86.5316 164.101 86.6361C163.835 86.6779 163.621 86.5891 163.359 86.5943C163.542 86.6413 164.039 86.7771 164.018 87.1324C164.117 87.1376 164.216 87.1428 164.31 87.1376C164.305 87.1846 164.305 87.2316 164.3 87.2787C164.253 87.3361 164.248 87.3518 164.201 87.4302C164.128 87.4302 164.044 87.4458 163.966 87.4458C163.971 87.6653 163.819 87.7436 163.621 87.7279C163.595 87.6861 163.574 87.6391 163.553 87.5973C163.323 87.7593 162.236 88.2347 162.173 87.8429C162.011 87.8324 161.948 87.7593 161.797 87.8272C161.713 87.6391 161.546 87.5346 161.337 87.5451C161.196 87.7332 161.306 87.9526 161.206 88.0989C161.081 88.2817 160.856 88.2922 160.752 88.5168C160.877 88.6526 160.856 88.8146 160.731 88.9661C160.354 88.9452 160.475 88.5847 160.239 88.4384C160.14 88.3757 160.015 88.4698 159.905 88.428C159.785 88.381 159.544 88.2347 159.424 88.219C158.452 88.0832 159.388 89.2325 158.682 89.3109C158.583 89.2325 156.853 90.0945 157.031 89.4258C156.508 89.3631 156.984 89.1228 156.853 88.9191C156.691 88.6683 156.377 88.8094 156.147 88.825C155.865 88.8407 154.616 88.8877 155.055 88.1929C154.998 88.1772 154.935 88.1407 154.872 88.125C154.961 87.7279 154.773 87.6026 154.611 87.2996C154.339 87.1742 154.219 87.4093 153.973 87.4876C153.754 87.5608 153.362 87.5503 153.174 87.5503C152.839 87.5503 151.993 87.4929 151.794 87.9265C151.188 87.9839 150.932 88.2817 150.467 88.6265C150.132 88.8773 150.185 88.8982 149.814 88.7885C149.584 88.7206 149.265 88.3757 149.124 88.7676C148.836 88.7101 148.758 88.8721 148.591 89.0236C148.491 89.1124 148.167 89.384 148.11 89.4833C147.901 89.8176 147.88 90.5334 147.462 90.7162C147.493 90.9879 147.148 91.2595 147.007 91.4476C146.751 91.7872 146.631 91.8551 146.229 92.0484C146.255 92.3096 145.826 92.6962 145.633 92.8686C145.695 92.8843 145.753 92.9261 145.821 92.9417C145.753 93.3231 145.178 93.6679 145.042 94.0597C145.126 94.044 145.241 94.0858 145.324 94.0754C145.293 94.3627 145.523 94.5874 145.371 94.8486C145.006 94.8277 144.912 95.1986 144.598 95.2613C144.656 95.4232 144.561 95.4128 144.734 95.5121C144.624 95.7106 144.446 96.139 144.488 96.395C144.561 96.8077 144.765 96.7868 144.603 97.2361C144.394 97.8212 143.924 98.2078 143.908 98.8085C143.966 98.8138 144.034 98.8242 144.091 98.8242C144.206 98.9496 144.274 99.122 144.253 99.2996C144.321 99.2892 144.415 99.3257 144.483 99.3153C144.577 99.5034 144.561 99.7228 144.446 99.89C144.483 100.031 144.582 100.162 144.687 100.24C144.708 100.188 144.765 100.109 144.797 100.057C145.293 99.984 145.45 100.768 145.69 101.086C145.868 101.316 145.936 101.442 146.077 101.682C146.192 101.875 146.229 102.163 146.323 102.324C146.464 102.56 146.683 102.575 146.861 102.763C147.101 103.025 146.981 103.239 147.415 103.307C147.812 103.369 148.575 103.171 148.559 102.674C148.852 102.596 148.93 102.857 149.15 102.863C149.38 102.868 149.458 102.769 149.693 102.763C150.033 102.763 150.477 103.145 150.587 102.476C150.89 102.476 151.021 102.21 151.225 102.037C151.46 101.844 151.81 101.833 152.003 101.666C152.338 101.384 152.4 100.303 152.897 100.945C152.918 100.992 152.902 101.029 152.913 101.076C153.425 101.013 153.629 101.708 153.785 102.032C153.843 102.157 153.906 102.695 153.942 102.716C154.203 102.883 154.538 102.586 154.548 102.324C154.763 102.267 154.836 102.455 155.024 102.408C155.181 102.366 155.264 102.173 155.479 102.121C155.63 102.084 155.907 102.105 156.033 102.157C156.351 102.298 156.147 102.272 156.315 102.513C156.498 102.774 156.728 103.061 156.764 103.453C156.806 103.897 156.487 104.263 156.466 104.691C156.445 105.104 156.654 105.287 156.926 105.516C157.193 105.741 157.308 105.95 157.606 106.185C157.945 106.457 159.597 106.619 158.949 107.199C159.633 107.225 159.105 107.648 159.273 107.967C159.288 107.993 159.299 108.014 159.314 108.035C159.137 108.353 159.116 108.776 159.623 108.85C159.597 109.053 159.633 109.2 159.633 109.388C159.633 109.466 159.466 109.523 159.476 109.581C159.503 109.696 159.712 109.779 159.717 109.842C159.743 110.187 159.602 110.396 159.367 110.704C159.105 111.049 158.881 111.143 158.75 111.556C158.677 111.791 158.651 111.759 158.651 111.989C158.651 111.968 158.74 112.595 158.74 112.595C158.86 112.872 159.435 113.039 159.717 113.149C160.13 113.311 160.229 113.593 160.511 113.739C160.673 113.828 160.882 113.739 161.065 113.776C161.253 113.813 161.373 113.938 161.562 113.975C162.048 114.074 162.403 113.943 161.959 114.419C161.823 114.565 161.567 114.518 161.572 114.805C162.084 115.045 160.997 115.589 161.452 116.012C161.63 116.179 161.98 116.075 162.147 116.242C162.335 116.43 162.157 116.827 162.492 116.994C162.502 117.067 162.508 117.151 162.508 117.224C162.67 117.323 162.596 117.276 162.706 117.423C162.957 117.443 163.271 117.746 163.417 117.981C163.521 118.023 163.469 118.081 163.542 118.222C163.563 118.264 163.474 118.384 163.5 118.457C163.527 118.535 163.673 118.499 163.694 118.551C163.798 118.849 163.798 119.011 163.798 119.35C164.19 119.402 164.603 119.47 164.587 119.941C164.979 119.993 164.901 119.554 165.016 119.303C165.131 119.052 165.272 118.922 165.46 118.697C165.742 118.358 165.554 118.441 166.014 118.316C166.307 118.237 166.599 118.222 166.615 117.83C167.263 117.799 167.707 117.511 168.261 117.24C168.549 117.099 168.789 117.02 168.983 116.722C169.228 116.341 169.019 116.305 169.071 115.954C168.596 115.782 169.15 115.197 168.591 115.092C168.753 114.523 169.751 114.894 169.829 114.372C170.143 114.241 170.42 114.194 170.65 113.907C170.916 113.572 170.942 113.342 170.812 113.071C170.733 112.914 170.597 112.794 170.514 112.632C170.441 112.491 170.576 112.491 170.378 112.277C170.132 112.021 169.746 112.115 169.667 111.744C169.563 111.253 170.132 111.305 170.472 111.2C171.015 111.033 170.906 110.788 171.251 110.406C171.376 110.265 171.622 110.265 171.711 110.15C171.831 109.988 171.752 109.701 171.852 109.523C171.94 109.361 172.118 109.351 172.202 109.121C172.259 108.964 172.275 108.855 172.291 108.682C172.207 108.599 172.338 108.118 172.301 107.883C172.249 107.523 172.029 107.256 172.144 106.901C172.076 106.885 172.029 106.849 171.961 106.833C172.16 106.29 171.611 106.248 171.261 106.149C171.256 106.149 171.251 106.143 171.245 106.143C171.23 106.112 171.219 106.086 171.204 106.065C171.078 105.856 170.937 105.699 170.765 105.522C170.582 105.334 170.331 105.302 170.263 105.025C169.996 104.942 168.779 105.172 169.296 104.482C169.463 104.257 169.819 104.378 170.028 104.273C170.352 104.111 170.268 104.127 170.383 103.74C170.488 103.782 170.65 103.74 170.759 103.772C170.895 103.474 170.738 103.056 170.874 102.789C170.937 102.659 171.204 102.56 171.308 102.445C171.491 102.246 171.454 102.225 171.559 102.001C171.711 101.666 171.794 101.483 172.092 101.206C172.385 100.935 172.484 100.846 172.494 100.376C172.421 100.381 172.332 100.355 172.264 100.36C172.233 100.094 172.484 99.984 172.51 99.7332C173.158 99.6026 172.787 99.0959 172.996 98.7354C173.101 98.5578 173.409 98.5369 173.482 98.3802C173.581 98.1764 173.331 97.9204 173.404 97.6592C173.984 97.5547 174.376 97.1525 174.428 96.5621C174.386 96.5412 174.339 96.5256 174.292 96.5099C174.271 96.0188 174.695 95.5904 174.794 95.0837C174.883 94.6448 175.191 93.8978 174.972 93.5112C174.48 93.4328 174.674 94.0284 174.475 94.2321C174.235 94.4881 173.696 94.1642 173.686 94.6292C173.247 94.6762 173.142 95.277 172.745 95.418C172.385 95.5434 171.721 95.2613 171.711 95.9666C171.24 95.9091 169.975 96.6562 169.798 95.9352C170.028 95.836 171.036 95.2874 170.19 95.2247C170.268 95.0523 170.232 94.8643 170.127 94.6971C169.557 94.6135 169.416 95.3867 169.092 94.5978C168.899 94.5926 168.753 94.6239 168.564 94.6344C168.591 94.1642 168.476 94.1485 168.214 93.8612C168.042 93.6731 168.084 93.8455 167.969 93.5477C167.896 93.3597 167.901 93.0305 167.864 92.8216C167.619 92.785 167.263 92.7014 167.117 92.529C167.018 92.4141 167.096 92.1947 167.023 92.1163C166.903 91.9909 166.72 92.0379 166.584 91.9752C166.119 91.7506 165.643 91.6618 165.157 91.4215C165.356 90.9147 164.546 91.0662 164.321 90.9252C163.83 90.6222 164.054 90.3401 164.41 90.1938C164.687 90.0788 165.288 90.246 165.136 89.9587C164.911 89.5303 164.509 89.8699 164.169 89.7915C163.971 89.4363 164.441 89.2169 164.917 88.9922C165.168 89.1176 165.366 89.4937 165.497 89.6505C165.648 89.8333 166.04 90.0214 165.998 90.3348C166.265 90.2983 166.49 90.4445 166.594 90.6796C167.253 90.6326 167.838 91.0715 168.413 91.3327C168.721 91.4685 170.153 91.97 170.153 92.1633C170.796 92.2365 170.644 92.7537 170.545 93.2029C171.042 93.2291 170.399 93.9814 171.031 94.2008C171.522 94.3679 171.987 94.1903 172.463 94.0023C172.75 93.8925 173.017 93.8298 173.304 93.7567C173.446 93.7201 173.623 93.741 173.749 93.647C173.979 93.4694 173.796 93.4485 173.895 93.3126C174.161 92.947 174.653 92.738 174.987 92.3723C174.689 92.0693 175.233 91.7036 175.322 91.3797C174.773 91.3692 174.877 90.7632 174.972 90.4028C174.888 90.4341 174.721 90.4027 174.637 90.4393C174.637 90.2617 175.113 88.8825 174.391 89.5512C174.418 89.1071 174.156 89.3161 173.937 89.2586C173.561 89.1646 173.691 89.337 173.545 88.9138C173.435 88.6004 173.299 87.8951 172.808 88.0309C172.662 88.3862 172.74 89.0392 172.108 88.9609C171.893 88.9347 171.904 88.6997 171.716 88.6579C171.46 88.6004 171.402 88.778 171.157 88.6631C170.869 88.522 170.671 88.0153 170.477 87.822C170.226 87.566 169.651 87.4981 169.876 86.9913C169.369 86.9234 169.651 86.0614 170.185 86.239C170.54 86.354 170.467 86.9757 171.062 86.7458C171.083 87.1219 171.047 87.1846 171.266 87.3831C171.434 87.5346 171.637 87.3988 171.768 87.7175C172.139 87.8272 172.322 87.4145 172.688 87.4406C172.75 87.5817 173.231 87.9317 173.346 87.9787C173.482 88.0362 174.214 88.0257 174.365 87.9683C174.543 87.8951 174.475 87.6705 174.632 87.5921C174.794 87.5085 174.925 87.613 175.066 87.5869C175.369 87.5242 175.897 87.2787 175.766 87.9212C176.027 87.8847 176.288 88.0257 176.513 88.0414C176.968 88.0727 176.869 87.9474 177.187 88.2869C177.13 88.7885 178.598 88.8877 178.959 88.8303C179.178 89.0706 179.602 88.9922 179.523 89.4101C179.863 89.5512 179.565 89.7341 179.654 89.9639C179.753 90.2199 179.894 90.152 180.15 90.3714C180.213 90.4237 180.234 90.5908 180.255 90.6065C180.265 90.6169 180.579 90.7789 180.558 90.7528C180.746 91.0035 180.741 91.0662 180.762 91.4371C181.264 91.5312 181.546 92.0223 181.546 92.482C181.546 92.7014 181.394 92.8999 181.483 93.088C181.629 93.3858 181.828 93.2291 182.027 93.3858C182.445 93.7149 182.272 94.0806 182.638 94.3314V90.5386C182.225 90.3923 182.727 89.9273 182.476 89.6243C182.298 89.4101 181.682 89.3945 181.462 89.2064C181.321 89.0862 181.285 88.9034 181.206 88.7728C181.112 88.6161 180.835 88.5899 180.966 88.2869C181.039 88.1198 181.305 88.1981 181.4 88.0309C181.504 87.8481 181.384 87.6026 181.457 87.3936C181.525 87.404 181.619 87.3727 181.687 87.3779C181.703 87.0906 181.582 86.6152 182.032 86.751C181.98 87.1167 182.089 87.7175 182.523 87.6914C182.722 88.0884 182.257 88.2974 182.617 88.637C182.763 88.7728 183.009 88.6474 183.14 88.8094C183.229 88.9138 183.182 89.2221 183.182 89.3579C183.673 89.5669 183.704 90.2147 184.3 90.0997C184.263 89.943 184.284 89.8385 184.154 89.7132C184.493 89.3684 184.415 89.9221 184.467 90.0109C184.566 90.1729 184.734 90.293 184.807 90.502C184.87 90.6849 184.802 90.9722 184.838 91.1603C184.88 91.364 185.052 91.4476 185.011 91.7297C185.204 91.8237 186.139 92.6648 186.526 92.7223ZM163.26 84.259C162.753 83.6948 162.894 84.5934 162.607 84.7449C162.335 84.8912 162.152 84.5986 161.922 84.5568C161.718 84.515 161.478 84.6143 161.279 84.5516C160.893 84.4262 160.715 84.0814 160.396 83.8568C160.13 83.6687 160.067 83.8307 159.936 83.559C159.884 83.4545 160.328 83.3082 159.91 83.2194C159.921 83.1515 159.905 83.0523 159.895 82.9896C159.597 82.953 159.017 83.303 158.954 82.9425C158.614 82.9216 158.316 82.9843 157.977 82.9269C158.118 82.3313 158.693 82.3156 159.21 82.2425C159.665 82.1798 160.208 82.0335 160.642 81.9552C160.778 81.929 161.164 81.7984 161.232 81.8037C161.462 81.8193 161.603 81.9865 161.818 82.0544C162.084 82.138 162.152 82.0962 162.387 81.9552C162.492 81.8925 162.617 81.4327 162.821 81.7984L163.067 81.8977C163.124 81.9656 163.192 81.9656 163.171 82.0858C163.229 82.091 163.291 82.0962 163.354 82.1014C163.37 82.1798 163.391 82.2686 163.406 82.3313C163.328 82.3783 163.328 82.4306 163.271 82.4828C163.391 82.488 163.453 82.5612 163.558 82.5873C163.5 82.9007 162.46 82.8694 163.119 83.1829C163.532 83.3814 164.117 83.1202 164.546 83.1881C164.525 83.2456 164.52 83.3187 164.509 83.3709C164.723 83.35 164.797 83.3918 164.859 83.5695C164.885 83.5747 164.911 83.5799 164.943 83.5851C165.021 84.5882 163.396 83.4806 163.26 84.259ZM167.671 84.6509C167.127 84.3949 167.263 84.1964 167.164 83.6739C167.07 83.1829 166.479 83.0836 166.516 82.5925C166.213 82.5664 165.884 82.4724 165.972 82.0962C165.601 82.1798 165.539 81.9395 165.392 81.7357C165.424 81.4954 165.622 81.0984 165.293 80.9939C165.46 80.7013 165.716 80.6596 165.591 80.273C165.936 80.2468 166.082 79.9229 166.417 79.8602C166.406 79.7923 166.437 79.6983 166.432 79.6304C166.673 79.6199 166.923 79.6199 167.159 79.6304C167.2 79.714 167.122 79.6878 167.117 79.7192L167.164 80.017C167.477 80.5864 166.328 80.7849 166.411 81.2656C166.532 81.9499 167.54 81.9708 168.099 81.997C168.058 82.2164 168.125 82.4358 168.335 82.5351C167.692 82.8851 168.753 83.2455 169.04 83.2351C169.035 83.303 169.066 83.3971 169.056 83.465C169.312 83.465 169.531 83.2926 169.782 83.4336C169.646 84.0605 170.404 83.815 169.996 84.4576C170.247 84.4523 170.446 84.5777 170.592 84.7658C169.866 85.4554 168.418 85.0009 167.671 84.6509Z" fill="#3989B4"/>
<path d="M172.672 115.442C173.006 115.557 173.242 115.495 173.482 115.244C173.576 115.145 173.597 114.962 173.675 114.883C173.78 114.784 173.994 114.795 174.078 114.69C174.172 114.57 174.072 114.356 174.172 114.251C174.297 114.116 174.501 114.189 174.632 114.069C174.914 113.813 174.757 113.588 174.815 113.227C174.914 112.642 175.531 112.595 176.048 112.313C176.273 112.188 176.618 112.068 176.456 111.786C176.309 111.524 175.959 111.754 175.672 111.681C175.729 111.232 175.844 111.174 175.274 111.091C175.238 110.782 175.447 110.568 175.755 110.547C175.692 110.417 175.75 110.291 175.719 110.166C176.215 110.156 176.111 109.508 176.158 109.22C176.189 109.038 176.288 108.902 176.309 108.677C176.325 108.484 176.231 108.28 176.246 108.144C176.283 107.794 176.576 106.295 175.875 106.102C175.797 105.971 175.703 105.913 175.619 105.814L175.321 105.861C175.74 106.399 175.515 106.431 175.269 106.901C175.107 107.214 175.295 107.716 175.086 107.998C174.966 108.16 174.673 108.196 174.527 108.332C174.402 108.452 174.25 108.719 174.172 108.876C174.093 109.022 174.057 109.304 173.978 109.419C173.816 109.649 173.576 109.664 173.393 109.837C172.985 110.213 173.132 110.49 173.231 110.913C173.304 111.227 173.325 111.644 173.247 112.036C173.205 112.23 173.1 112.439 173.048 112.627C173.043 112.642 172.918 112.951 172.907 112.883C172.923 112.987 173.095 113.112 173.1 113.154C173.121 113.541 173.006 113.907 172.902 114.304C172.813 114.638 172.876 115.171 172.672 115.442Z" fill="#3989B4"/>
<path d="M143.527 123.942C143.412 123.807 143.323 123.551 143.208 123.389C142.978 123.06 142.753 122.72 142.492 122.422C142.189 122.077 141.729 121.827 141.551 121.419C141.389 121.053 141.4 120.468 140.929 120.322C140.987 119.946 140.647 119.784 140.715 119.403C140.538 119.387 140.214 119.11 140.13 119C139.947 118.76 139.963 118.635 139.874 118.321C139.848 118.227 139.686 118.164 139.649 118.023C139.649 118.029 139.733 117.736 139.738 117.715C139.822 117.417 139.764 117.37 140.083 117.219C140.376 117.083 140.485 117.349 140.626 116.979C140.673 116.848 140.532 116.498 140.464 116.346C140.255 115.866 140.25 115.563 139.686 115.521C139.451 115.364 139.56 115.218 139.482 114.999C139.362 114.669 139.231 114.361 139.147 114.011C139.106 113.839 139.158 113.515 139.053 113.369C138.949 113.222 138.755 113.259 138.64 113.139C138.249 112.71 138.515 112.689 138.755 112.433C138.923 112.256 138.886 112.292 138.991 112.047C138.991 112.047 138.881 111.916 138.907 111.838C138.944 111.744 139.106 111.739 139.137 111.681C139.309 111.352 139.529 111.049 139.555 110.662C139.581 110.265 139.336 110.03 139.294 109.659C139.247 109.226 139.456 109.079 138.985 108.735C138.755 108.567 138.154 108.484 138.102 108.233C137.757 108.16 137.271 108.635 137.261 108.035C136.712 107.867 136.764 108.573 136.289 108.463C136.179 108.16 135.834 107.408 135.5 107.324C135.437 107.005 135.865 106.159 135.202 106.29C135.197 106.117 135.191 105.934 135.186 105.762C135.045 105.678 135.076 105.725 135.045 105.558C134.93 104.958 135.338 103.986 134.663 103.568C134.371 103.385 134.036 103.672 133.723 103.422C133.456 103.207 133.477 102.607 133.524 102.304C133.603 101.792 133.545 101.63 133.362 101.16C133.2 100.742 133.326 100.449 133.216 100.026C133.049 99.3728 132.965 98.7407 132.819 98.0406C131.774 105.02 133.373 112.402 137.862 118.551C139.498 120.792 141.41 122.72 143.516 124.319C143.704 124.334 143.898 124.334 144.07 124.339C143.898 124.167 143.684 124.125 143.527 123.942Z" fill="#3989B4"/>
<path d="M177.182 122.892V122.824C177.104 123.054 177.057 123.2 176.895 123.383C176.701 123.598 176.717 123.571 176.623 123.848C176.571 124 176.55 124.026 176.487 124.141C176.487 124.141 176.304 124.386 176.325 124.376C176.199 124.47 176.017 124.491 175.896 124.611C175.708 124.799 175.745 124.883 175.468 125.008C175.285 125.092 175.071 125.227 174.872 125.259C174.349 125.337 174.412 124.668 173.958 124.742C173.89 124.888 173.701 124.888 173.56 124.961C173.419 124.726 173.231 124.83 173.033 124.872C172.823 125.248 172.531 125.583 172.102 125.682C171.778 125.755 171.831 125.635 171.543 125.593C171.47 125.583 171.245 125.625 171.177 125.666C171.041 125.76 171.088 125.849 170.979 125.922C170.801 126.048 170.608 126.058 170.42 126.178C170.221 126.304 170.08 126.492 169.85 126.575C169.557 126.685 169.285 126.664 168.998 126.79C168.784 126.884 168.413 126.91 168.24 127.04C168.136 126.967 168.016 126.904 167.885 126.92C167.895 126.972 167.864 127.056 167.874 127.108C167.702 127.103 167.618 127.254 167.482 127.343C167.404 127.396 167.326 127.369 167.242 127.432C167.158 127.5 167.132 127.537 167.091 127.631C167.3 127.672 167.211 127.751 167.179 127.892C167.185 127.876 166.976 128.195 166.981 128.19C166.761 128.346 166.233 128.315 166.124 128.038C165.993 128.169 165.742 128.205 165.664 128.357C165.481 128.31 165.34 128.195 165.141 128.164C164.822 128.111 164.755 128.273 164.519 128.357C164.143 128.487 163.762 128.237 163.401 128.325C163.37 128.028 163.082 128.069 163.129 128.357C162.978 128.362 162.826 128.336 162.695 128.425C162.549 128.367 162.351 128.32 162.209 128.435C161.875 128.101 160.919 128.848 160.626 129.088C160.563 129.14 160.563 129.271 160.495 129.329C160.438 129.381 160.328 129.402 160.265 129.459C160.15 129.558 160.062 129.663 159.941 129.752C159.868 129.809 159.758 129.898 159.659 129.971C165.575 130.117 171.58 128.388 176.733 124.632C176.78 124.595 176.827 124.559 176.874 124.522C176.889 124.371 176.889 124.219 176.936 124.078C176.973 123.958 177.396 123.66 177.01 123.645C177.208 123.503 177.083 123.43 177.114 123.289C177.156 123.148 177.255 123.033 177.182 122.892Z" fill="#3989B4"/>
<path d="M149.275 80.2526C149.27 80.2526 149.924 79.9495 149.971 79.9182C150.185 79.7509 150.028 79.3956 150.452 79.4636C150.687 79.0403 150.938 78.7999 151.162 78.3923C151.283 78.3714 151.319 78.2878 151.403 78.2356L151.649 77.99C151.497 78.1154 150.681 78.5125 150.415 78.5752C150.195 78.6223 150.033 78.5805 149.824 78.6379C149.333 78.7633 149.579 78.7895 149.375 79.1291C149.244 79.3434 148.591 80.1742 149.275 80.2526Z" fill="#3989B4"/>
<mask id="mask0_206_1108" style="mask-type:luminance" maskUnits="userSpaceOnUse" x="132" y="74" width="57" height="56">
<path d="M182.816 85.7531C191.878 98.1659 189.161 115.568 176.744 124.627C164.327 133.685 146.919 130.969 137.857 118.556C128.795 106.143 131.513 88.7414 143.93 79.6826C156.347 70.6237 173.755 73.3403 182.816 85.7531Z" fill="white"/>
</mask>
<g mask="url(#mask0_206_1108)">
</g>
<mask id="mask1_206_1108" style="mask-type:luminance" maskUnits="userSpaceOnUse" x="132" y="74" width="57" height="56">
<path d="M182.816 85.7531C191.878 98.1659 189.161 115.568 176.744 124.627C164.327 133.685 146.919 130.969 137.857 118.556C128.795 106.143 131.513 88.7414 143.93 79.6826C156.347 70.6237 173.755 73.3403 182.816 85.7531Z" fill="white"/>
</mask>
<g mask="url(#mask1_206_1108)">
</g>
<path opacity="0.4" d="M150.491 76.1303C146.279 78.3036 143.091 81.715 141.716 86.0877C138.476 96.3951 146.503 108.097 159.647 112.23C171.525 115.965 183.519 112.23 188.108 103.866C188.499 97.6176 186.791 91.2023 182.808 85.7482C175.262 75.4094 161.915 71.8047 150.491 76.1303Z" fill="#E9F8FF"/>
<path d="M374.629 17.3884L368.344 8.85798L406.786 15.1994L374.629 17.3884Z" fill="#FDFDFD" stroke="black" stroke-width="0.5"/>
<path d="M406.411 15.7262L375.153 24.127L374.774 17.8798L406.411 15.7262Z" fill="#D6D6D6" stroke="black" stroke-width="0.5"/>
<path d="M380.921 22.7936L375.638 24.0247L377.387 22.0762L380.921 22.7936Z" fill="#767676" stroke="black" stroke-width="0.5"/>
<path d="M407.899 15.7738L380.21 36.4057L377.586 21.9982L407.899 15.7738Z" fill="white" stroke="black" stroke-width="0.5"/>
<defs>
<radialGradient id="paint0_radial_206_1108" cx="0" cy="0" r="1" gradientUnits="userSpaceOnUse" gradientTransform="translate(163.41 118.038) scale(0.0636122 0.0634371)">
<stop stop-color="white"/>
<stop offset="0.2051" stop-color="#E9E9F3"/>
<stop offset="1" stop-color="#9997C6"/>
</radialGradient>
</defs>
</svg>
